<svg xmlns="http://www.w3.org/2000/svg" data-name="Слой 1" viewBox="0 0 48 48">
  <defs>
    <clipPath id="a" clipPathUnits="userSpaceOnUse">
      <rect width="48" height="48" fill="#e5d7c7" stroke-linejoin="round" stroke-width="2" rx="7.8340001"/>
    </clipPath>
  </defs>
  <g clip-path="url(#clipPath909)">
    <g clip-path="url(#a)">
      <rect width="48" height="48" fill="#d0c5ac" rx="7.8340001"/>
      <path fill="#0f0" stroke="#0f0" stroke-linecap="round" stroke-linejoin="round" stroke-width="2" d="M-1.0880432 29h4.8300953M2.5 29h4.8300953" class="cls-2"/>
      <path fill="#ff0" stroke="#ff0" stroke-linecap="round" stroke-linejoin="round" stroke-width="1.88784" d="M7.0560799 12.822535v2.233545M36.05608 18.94392v2.233545" class="cls-3"/>
      <path fill="none" stroke="#333" stroke-linecap="round" stroke-linejoin="round" stroke-width="2" d="m23 26.6-7.460001 4.519998"/>
      <path fill="#00f" stroke="#00f" stroke-linecap="round" stroke-linejoin="round" stroke-width="2" d="M7 29h4.830095" class="cls-2"/>
      <path fill="none" stroke="#333" stroke-linecap="round" stroke-linejoin="round" stroke-width="2" d="M-7.0292063 30.968697h4.8300953" class="cls-2"/>
      <path fill="none" stroke="#5a5a5a" stroke-linecap="round" stroke-linejoin="round" stroke-width="1.88784" d="M16.05608 19.822533v2.233547m.621385-1.61216H14.44392m3.11216 0h-2.233545m1.35493 7.61216H14.44392m3.11216 0h-2.233545" class="cls-3"/>
      <path fill="#ff0" stroke="#ff0" stroke-linecap="round" stroke-linejoin="round" stroke-width="1.87389" d="M7 23.862402v2.200653" class="cls-3"/>
      <path fill="none" stroke="#5a5a5a" stroke-linecap="round" stroke-linejoin="round" stroke-width="1.88784" d="M-5 16.883228v2.233546" class="cls-3"/>
      <text xml:space="preserve" x="10.469101" y="9.831316" fill="#000080" stroke-width=".318944" font-family="sans-serif" font-size="6.67822" font-weight="700" letter-spacing="0" style="line-height:1.25;-inkscape-font-specification:&quot;sans-serif, Bold&quot;;font-variant-ligatures:normal;font-variant-caps:normal;font-variant-numeric:normal;font-variant-east-asian:normal" transform="scale(0.99258805,1.0074673)" word-spacing="0"><tspan x="10.469101" y="9.831316">U1</tspan></text>
      <text xml:space="preserve" x="10.563692" y="42.355698" fill="#800080" stroke-width=".314052" font-family="sans-serif" font-size="6.57579" font-weight="700" letter-spacing="0" style="line-height:1.25;-inkscape-font-specification:&quot;sans-serif, Bold&quot;;font-variant-ligatures:normal;font-variant-caps:normal;font-variant-numeric:normal;font-variant-east-asian:normal" transform="scale(0.98501623,1.0152117)" word-spacing="0"><tspan x="10.563692" y="42.355698">LM747</tspan></text>
      <path fill="#0f0" stroke="#0f0" stroke-linecap="round" stroke-linejoin="round" stroke-width="2" d="M1.7937145 19h4.8300953m-7.45390509 0H4m31.169903 5H40m-.330097 0H44.5m-.830097 0H48.5" class="cls-2"/>
      <path fill="#00f" stroke="#00f" stroke-linecap="round" stroke-linejoin="round" stroke-width="2" d="M7 19h4.830095m19.339812 5H36" class="cls-2"/>
      <path fill="#999" stroke="#f00" stroke-linejoin="round" stroke-width=".6771727" d="M7.344971 18.783691.30548882 22.78495l.0545495-8.097z" transform="matrix(2.7608391,0,0,2.7769149,10.944421,-28.034746)"/>
      <path fill="#f60" stroke="#f60" stroke-linejoin="round" stroke-width=".16572825" d="M14.1764925 28.9320165c-.11479125-.0343575-.30123525-.1678515-.41432025-.29664825-.1679025-.19123125-.20556375-.2914995-.20536125-.546753.0002955-.373251.174783-.69345525.45756675-.83968875.29913975-.15469125 3.62879475-.1514595 3.95606325.003825.6208245.29460075.64957125 1.203951.0504825 1.59690375-.162594.1066485-.369489.12097725-1.909038.13221525-.94967475.0069-1.820601-.01551-1.93539225-.0498675z"/>
      <path fill="#f60" stroke="#f60" stroke-linecap="round" stroke-linejoin="round" stroke-width="1.88784" d="M16.05608 18.822533v2.233547" class="cls-3"/>
      <path fill="#f60" stroke="#f60" stroke-linejoin="round" stroke-width=".16572825" d="M17.00370825 20.45085375V19.522776h.36789375c.62793075 0 1.0232085.310626 1.07279925.84305025.0546975.58728375-.404277 1.0127985-1.09266375 1.0130025l-.34802925.00010275zm-2.95212075.7956465c-.33147675-.16408275-.49509975-.4305855-.4947765-.80587425.00050625-.58927425.400251-.91785 1.11665475-.91785h.4008075l.02007.928185.02007.928185-.3977475-.000159c-.26374725-.00010575-.48780825-.0447375-.66507225-.132486zm1.564092 1.60229025c-.324861-.17422575-.4684905-.48367725-.46636275-1.0047855l.0018-.431928.114246.18438525c.062835.101412.24096825.24574125.39585075.320733.380793.1843725.73272075.12441375 1.0552695-.1797885.13173375-.12424125.2544015-.2258925.27259575-.2258925.07308 0-.0443475.788007-.14702025.9865515-.225051.43520175-.77536425.592587-1.226343.35072475z"/>
    </g>
  </g>
</svg>
