<svg xmlns="http://www.w3.org/2000/svg" data-name="Слой 1" viewBox="0 0 48 48">
  <defs>
    <clipPath id="a" clipPathUnits="userSpaceOnUse">
      <rect width="48" height="48" fill="#e5d7c7" stroke-linejoin="round" stroke-width="2" rx="7.8340001"/>
    </clipPath>
  </defs>
  <g clip-path="url(#clipPath909)">
    <g clip-path="url(#a)">
      <rect width="48" height="48" fill="#d0c5ac" rx="7.8340001"/>
      <text xml:space="preserve" x="4.914176" y="17.522224" fill="#000080" stroke-width=".318944" font-family="sans-serif" font-size="6.67822" font-weight="700" letter-spacing="0" style="line-height:1.25;-inkscape-font-specification:&quot;sans-serif, Bold&quot;;font-variant-ligatures:normal;font-variant-caps:normal;font-variant-numeric:normal;font-variant-east-asian:normal" transform="scale(.99259 1.00747)" word-spacing="0"><tspan x="4.914176" y="17.522224">J1</tspan></text>
      <path fill="#0f0" stroke="#0f0" stroke-linecap="round" stroke-linejoin="round" stroke-width="2" d="M32.669903 15H37.5m-4.830097 2H37.5" class="cls-2"/>
      <path fill="#0ff" stroke="#0ff" stroke-linecap="round" stroke-linejoin="round" stroke-width="1.87453" d="M35.121536 33.5h-4.243072m7.301872.062737h-4.243073m-13.256925-1.5h-4.243073m4.243073 1.680358h-4.243073m.571747 0H12.76594m3.570831-1.680358h-4.243072m1.469036 0H9.3196621m4.2068909 1.680358H9.2834806" class="cls-2"/>
      <path fill="#0f0" stroke="#0f0" stroke-linecap="round" stroke-linejoin="round" stroke-width="2" d="M44.5 38h4.830097" class="cls-2"/>
      <ellipse cx="43.173222" cy="38.157173" fill="#ff0" stroke="#f00" stroke-linejoin="round" stroke-width="2.00034" rx="2.3429556" ry="2.3429561"/>
      <g fill="none" stroke="#ff0" stroke-linejoin="round" transform="translate(-1.9999996 1.0000004)">
        <circle cx="28.171719" cy="32.671719" r="5.828156" stroke-width="2.00025"/>
        <circle cx="28.171719" cy="32.671719" r="4.1210923" stroke-width="1.41438"/>
      </g>
      <path fill="#f60" stroke="#f60" stroke-linejoin="round" stroke-width=".165728" d="M32.141477 7.8803006c-.114791-.03436-.301235-.167852-.41432-.296648-.167902-.191232-.205564-.2915-.205361-.546753.000295-.373251.174783-.693456.457567-.839689.299139-.154691 3.628794-.15146 3.956063.0038.620824.294601.649571 1.203951.05048 1.596904-.162594.106648-.369489.120977-1.909038.132215-.949674.0069-1.820601-.01551-1.935392-.04987z"/>
      <path fill="#f60" stroke="#f60" stroke-linejoin="round" stroke-width=".165728" d="M30.141477 7.8803006c-.114791-.03436-.301235-.167852-.41432-.296648-.167902-.191232-.205564-.2915-.205361-.546753.000295-.373251.174783-.693456.457567-.839689.299139-.154691 3.628794-.15146 3.956063.0038.620824.294601.649571 1.203951.05048 1.596904-.162594.106648-.369489.120977-1.909038.132215-.949674.0069-1.820601-.01551-1.935392-.04987zM24.263615 43.380301c-.114791-.03436-.301235-.167852-.41432-.296648-.167902-.191232-.205564-.2915-.205361-.546753.000295-.373251.174783-.693456.457567-.839689.299139-.154691 3.628794-.15146 3.956063.0038.620824.294601.649571 1.203951.05048 1.596904-.162594.106648-.369489.120977-1.909038.132215-.949674.0069-1.820601-.01551-1.935392-.04987z"/>
      <path fill="#f60" stroke="#f60" stroke-linejoin="round" stroke-width=".165728" d="M27.202546 43.380301c-.114791-.03436-.301235-.167852-.41432-.296648-.167902-.191232-.205564-.2915-.205361-.546753.000295-.373251.174783-.693456.457567-.839689.299139-.154691 3.628794-.15146 3.956063.0038.620824.294601.649571 1.203951.05048 1.596904-.162594.106648-.369489.120977-1.909038.132215-.949674.0069-1.820601-.01551-1.935392-.04987zm-5.938931 0c-.114791-.03436-.301235-.167852-.41432-.296648-.167902-.191232-.205564-.2915-.205361-.546753.000295-.373251.174783-.693456.457567-.839689.299139-.154691 3.628794-.15146 3.956063.0038.620824.294601.649571 1.203951.05048 1.596904-.162594.106648-.369489.120977-1.909038.132215-.949674.0069-1.820601-.01551-1.935392-.04987z"/>
      <path fill="#f60" stroke="#f60" stroke-linejoin="round" stroke-width=".165728" d="M19.202546 43.380301c-.114791-.03436-.301235-.167852-.41432-.296648-.167902-.191232-.205564-.2915-.205361-.546753.000295-.373251.174783-.693456.457567-.839689.299139-.154691 3.628794-.15146 3.956063.0038.620824.294601.649571 1.203951.05048 1.596904-.162594.106648-.369489.120977-1.909038.132215-.949674.0069-1.820601-.01551-1.935392-.04987z"/>
      <path fill="#f60" stroke="#f60" stroke-linejoin="round" stroke-width=".165728" d="M17.202546 43.366058c-.114791-.03436-.301235-.167852-.41432-.296648-.167902-.191232-.205564-.2915-.205361-.546753.000295-.373251.174783-.693456.457567-.839689.299139-.154691 3.628794-.15146 3.956063.0038.620824.294601.649571 1.203951.05048 1.596904-.162594.106648-.369489.120977-1.909038.132215-.949674.0069-1.820601-.01551-1.935392-.04987zm13 .014243c-.114791-.03436-.301235-.167852-.41432-.296648-.167902-.191232-.205564-.2915-.205361-.546753.000295-.373251.174783-.693456.457567-.839689.299139-.154691 3.628794-.15146 3.956063.0038.620824.294601.649571 1.203951.05048 1.596904-.162594.106648-.369489.120977-1.909038.132215-.949674.0069-1.820601-.01551-1.935392-.04987z"/>
      <path fill="#f60" stroke="#f60" stroke-linejoin="round" stroke-width=".165728" d="M32.202546 43.380301c-.114791-.03436-.301235-.167852-.41432-.296648-.167902-.191232-.205564-.2915-.205361-.546753.000295-.373251.174783-.693456.457567-.839689.299139-.154691 3.628794-.15146 3.956063.0038.620824.294601.649571 1.203951.05048 1.596904-.162594.106648-.369489.120977-1.909038.132215-.949674.0069-1.820601-.01551-1.935392-.04987zm-16-36.514243c-.114791-.03436-.301235-.167852-.41432-.296648-.167902-.191232-.205564-.2915-.205361-.546753.000295-.373251.174783-.693456.457567-.839689.299139-.154691 3.628794-.15146 3.956063.0038.620824.294601.649571 1.203951.05048 1.596904-.162594.106648-.369489.120977-1.909038.132215-.949674.0069-1.820601-.01551-1.935392-.04987z"/>
      <path fill="#f60" stroke="#f60" stroke-linejoin="round" stroke-width=".165728" d="M18.357056 6.866058c-.114791-.03436-.301235-.167852-.41432-.296648-.167902-.191232-.205564-.2915-.205361-.546753.000295-.373251.174783-.693456.457567-.839689.299139-.154691 3.628794-.15146 3.956063.0038.620824.294601.649571 1.203951.05048 1.596904-.162594.106648-.369489.120977-1.909038.132215-.949674.0069-1.820601-.01551-1.935392-.04987z"/>
      <path fill="#f60" stroke="#f60" stroke-linejoin="round" stroke-width=".165728" d="M19.141477 6.866058c-.114791-.03436-.301235-.167852-.41432-.296648-.167902-.191232-.205564-.2915-.205361-.546753.000295-.373251.174783-.693456.457567-.839689.299139-.154691 3.628794-.15146 3.956063.0038.620824.294601.649571 1.203951.05048 1.596904-.162594.106648-.369489.120977-1.909038.132215-.949674.0069-1.820601-.01551-1.935392-.04987zm15.492465.3364876c.03436-.114791.167852-.301235.296648-.41432.191232-.167902.2915-.205564.546753-.205361.373251.000295.693456.174783.839689.457567.154691.299139.15146 3.6287944-.0038 3.9560634-.294601.620824-1.203951.649571-1.596904.05048-.106648-.162594-.120977-.369489-.132215-1.9090384-.0069-.949674.01551-1.820601.04987-1.935392z"/>
      <path fill="#f60" stroke="#f60" stroke-linejoin="round" stroke-width=".165728" d="M34.633942 6.6414763c.03436-.114791.167852-.301235.296648-.41432.191232-.167902.2915-.205564.546753-.205361.373251.000295.693456.174783.839689.457567.154691.299139.15146 3.6287947-.0038 3.9560637-.294601.620824-1.203951.649571-1.596904.05048-.106648-.162594-.120977-.369489-.132215-1.9090387-.0069-.949674.01551-1.820601.04987-1.935392z"/>
      <path fill="#f60" stroke="#f60" stroke-linejoin="round" stroke-width=".165728" d="M34.633942 10.141476c.03436-.114791.167852-.3012347.296648-.4143197.191232-.167902.2915-.205564.546753-.205361.373251.000295.693456.174783.839689.457567.154691.2991387.15146 3.6287947-.0038 3.9560637-.294601.620824-1.203951.649571-1.596904.05048-.106648-.162594-.120977-.369489-.132215-1.909038-.0069-.949675.01551-1.820602.04987-1.935393z"/>
      <g fill="none" stroke="#ff0" stroke-linejoin="round" transform="translate(-1.4999996 -16.843438)">
        <circle cx="28.171719" cy="32.671719" r="5.828156" stroke-width="2.00025"/>
        <circle cx="28.171719" cy="32.671719" r="4.1210923" stroke-width="1.41438"/>
      </g>
      <path fill="#808000" stroke="#808000" stroke-linejoin="round" stroke-width="1.85969" d="M20.429848 20.312382h12.140307v1.4143344H20.429848zm-.000002-10.3825371h12.140307v1.4143344H20.429846z"/>
      <path fill="#808000" stroke="#808000" stroke-linejoin="round" stroke-width="1.84433" d="M31.148136 21.734398V9.922162h1.4296978v11.812236z"/>
      <path fill="none" stroke="#ff0" stroke-linejoin="round" stroke-width="1.84433" d="M20.422167 21.734396V9.92216h1.4296978v11.812236z"/>
      <path fill="#0f0" stroke="#0f0" stroke-linecap="round" stroke-linejoin="round" stroke-width="2" d="M34.669903 15H39.5m-3.830097 2H40.5m-.415394-2L43.5 18.415394m-4.415394-1.830788L42.5 20m-.415394-.415394L45.5 23m-1.415394-1.415394L47.5 25m-.915394-.915394L50 27.5m-3.415394-5.415394L50 25.5M44.084606 19 47.5 22.415394" class="cls-2"/>
      <path fill="#f60" stroke="#f60" stroke-linejoin="round" stroke-width=".165728" d="M34.633942 11.702546c.03436-.114791.167852-.301235.296648-.41432.191232-.167902.2915-.205564.546753-.205361.373251.000295.693456.174783.839689.457567.154691.299139.15146 3.628794-.0038 3.956063-.294601.620824-1.203951.649571-1.596904.05048-.106648-.162594-.120977-.369489-.132215-1.909038-.0069-.949674.01551-1.820601.04987-1.935392z"/>
      <path fill="#f60" stroke="#f60" stroke-linejoin="round" stroke-width=".165728" d="M34.633942 14.641477c.03436-.114791.167852-.301235.296648-.41432.191232-.167902.2915-.205564.546753-.205361.373251.000295.693456.174783.839689.457567.154691.299139.15146 3.628794-.0038 3.956063-.294601.620824-1.203951.649571-1.596904.05048-.106648-.162594-.120977-.369489-.132215-1.909038-.0069-.949674.01551-1.820601.04987-1.935392z"/>
      <path fill="#f60" stroke="#f60" stroke-linejoin="round" stroke-width=".165728" d="M34.619699 17.641477c.03436-.114791.167852-.301235.296648-.41432.191232-.167902.2915-.205564.546753-.205361.373251.000295.693456.174783.839689.457567.154691.299139.15146 3.628794-.0038 3.956063-.294601.620824-1.203951.649571-1.596904.05048-.106648-.162594-.120977-.369489-.132215-1.909038-.0069-.949674.01551-1.820601.04987-1.935392z"/>
      <path fill="#f60" stroke="#f60" stroke-linejoin="round" stroke-width=".165728" d="M34.619699 20.641477c.03436-.114791.167852-.301235.296648-.41432.191232-.167902.2915-.205564.546753-.205361.373251.000295.693456.174783.839689.457567.154691.299139.15146 3.628794-.0038 3.956063-.294601.620824-1.203951.649571-1.596904.05048-.106648-.162594-.120977-.369489-.132215-1.909038-.0069-.949674.01551-1.820601.04987-1.935392z"/>
      <path fill="#f60" stroke="#f60" stroke-linejoin="round" stroke-width=".165728" d="M34.619699 23.641477c.03436-.114791.167852-.301235.296648-.41432.191232-.167902.2915-.205564.546753-.205361.373251.000295.693456.174783.839689.457567.154691.299139.15146 3.628794-.0038 3.956063-.294601.620824-1.203951.649571-1.596904.05048-.106648-.162594-.120977-.369489-.132215-1.909038-.0069-.949674.01551-1.820601.04987-1.935392z"/>
      <path fill="#f60" stroke="#f60" stroke-linejoin="round" stroke-width=".165728" d="M34.633942 26.141477c.03436-.114791.167852-.301235.296648-.41432.191232-.167902.2915-.205564.546753-.205361.373251.000295.693456.174783.839689.457567.154691.299139.15146 3.628794-.0038 3.956063-.294601.620824-1.203951.649571-1.596904.05048-.106648-.162594-.120977-.369489-.132215-1.909038-.0069-.949674.01551-1.820601.04987-1.935392z"/>
      <path fill="#f60" stroke="#f60" stroke-linejoin="round" stroke-width=".165728" d="M34.619699 29.141477c.03436-.114791.167852-.301235.296648-.41432.191232-.167902.2915-.205564.546753-.205361.373251.000295.693456.174783.839689.457567.154691.299139.15146 3.628794-.0038 3.956063-.294601.620824-1.203951.649571-1.596904.05048-.106648-.162594-.120977-.369489-.132215-1.909038-.0069-.949674.01551-1.820601.04987-1.935392z"/>
      <path fill="#f60" stroke="#f60" stroke-linejoin="round" stroke-width=".165728" d="M34.619699 32.141477c.03436-.114791.167852-.301235.296648-.41432.191232-.167902.2915-.205564.546753-.205361.373251.000295.693456.174783.839689.457567.154691.299139.15146 3.628794-.0038 3.956063-.294601.620824-1.203951.649571-1.596904.05048-.106648-.162594-.120977-.369489-.132215-1.909038-.0069-.949674.01551-1.820601.04987-1.935392z"/>
      <path fill="#f60" stroke="#f60" stroke-linejoin="round" stroke-width=".165728" d="M34.619699 35.141477c.03436-.114791.167852-.301235.296648-.41432.191232-.167902.2915-.205564.546753-.205361.373251.000295.693456.174783.839689.457567.154691.299139.15146 3.628794-.0038 3.956063-.294601.620824-1.203951.649571-1.596904.05048-.106648-.162594-.120977-.369489-.132215-1.909038-.0069-.949674.01551-1.820601.04987-1.935392z"/>
      <path fill="#f60" stroke="#f60" stroke-linejoin="round" stroke-width=".165728" d="M34.633942 37.702546c.03436-.114791.167852-.301235.296648-.41432.191232-.167902.2915-.205564.546753-.205361.373251.000295.693456.174783.839689.457567.154691.299139.15146 3.628794-.0038 3.956063-.294601.620824-1.203951.649571-1.596904.05048-.106648-.162594-.120977-.369489-.132215-1.909038-.0069-.949674.01551-1.820601.04987-1.935392z"/>
      <path fill="#f60" stroke="#f60" stroke-linejoin="round" stroke-width=".165728" d="M34.680769 39.15572c.03436-.114791.167852-.301235.296648-.41432.191232-.167902.2915-.205564.546753-.205361.373251.000295.693456.174783.839689.457567.154691.299139.15146 3.628794-.0038 3.956063-.294601.620824-1.203951.649571-1.596904.05048-.106648-.162594-.120977-.369489-.132215-1.909038-.0069-.949674.01551-1.820601.04987-1.935392zm-18.046827-7.014243c.03436-.114791.167852-.301235.296648-.41432.191232-.167902.2915-.205564.546753-.205361.373251.000295.693456.174783.839689.457567.154691.299139.15146 3.628794-.0038 3.956063-.294601.620824-1.203951.649571-1.596904.05048-.106648-.162594-.120977-.369489-.132215-1.909038-.0069-.949674.01551-1.820601.04987-1.935392z"/>
      <path fill="#f60" stroke="#f60" stroke-linejoin="round" stroke-width=".165728" d="M16.633942 35.141477c.03436-.114791.167852-.301235.296648-.41432.191232-.167902.2915-.205564.546753-.205361.373251.000295.693456.174783.839689.457567.154691.299139.15146 3.628794-.0038 3.956063-.294601.620824-1.203951.649571-1.596904.05048-.106648-.162594-.120977-.369489-.132215-1.909038-.0069-.949674.01551-1.820601.04987-1.935392z"/>
      <path fill="#f60" stroke="#f60" stroke-linejoin="round" stroke-width=".165728" d="M16.633942 37.702546c.03436-.114791.167852-.301235.296648-.41432.191232-.167902.2915-.205564.546753-.205361.373251.000295.693456.174783.839689.457567.154691.299139.15146 3.628794-.0038 3.956063-.294601.620824-1.203951.649571-1.596904.05048-.106648-.162594-.120977-.369489-.132215-1.909038-.0069-.949674.01551-1.820601.04987-1.935392z"/>
      <path fill="#f60" stroke="#f60" stroke-linejoin="round" stroke-width=".165728" d="M16.633942 38.702546c.03436-.114791.167852-.301235.296648-.41432.191232-.167902.2915-.205564.546753-.205361.373251.000295.693456.174783.839689.457567.154691.299139.15146 3.628794-.0038 3.956063-.294601.620824-1.203951.649571-1.596904.05048-.106648-.162594-.120977-.369489-.132215-1.909038-.0069-.949674.01551-1.820601.04987-1.935392zm-.014243-9.561069c.03436-.114791.167852-.301235.296648-.41432.191232-.167902.2915-.205564.546753-.205361.373251.000295.693456.174783.839689.457567.154691.299139.15146 3.628794-.0038 3.956063-.294601.620824-1.203951.649571-1.596904.05048-.106648-.162594-.120977-.369489-.132215-1.909038-.0069-.949674.01551-1.820601.04987-1.935392z"/>
      <path fill="#f60" stroke="#f60" stroke-linejoin="round" stroke-width=".165728" d="M16.619699 26.141477c.03436-.114791.167852-.301235.296648-.41432.191232-.167902.2915-.205564.546753-.205361.373251.000295.693456.174783.839689.457567.154691.299139.15146 3.628794-.0038 3.956063-.294601.620824-1.203951.649571-1.596904.05048-.106648-.162594-.120977-.369489-.132215-1.909038-.0069-.949674.01551-1.820601.04987-1.935392z"/>
      <path fill="#f60" stroke="#f60" stroke-linejoin="round" stroke-width=".165728" d="M16.619699 23.141477c.03436-.114791.167852-.301235.296648-.41432.191232-.167902.2915-.205564.546753-.205361.373251.000295.693456.174783.839689.457567.154691.299139.15146 3.628794-.0038 3.956063-.294601.620824-1.203951.649571-1.596904.05048-.106648-.162594-.120977-.369489-.132215-1.909038-.0069-.949674.01551-1.820601.04987-1.935392z"/>
      <path fill="#f60" stroke="#f60" stroke-linejoin="round" stroke-width=".165728" d="M16.619699 19.641477c.03436-.114791.167852-.301235.296648-.41432.191232-.167902.2915-.205564.546753-.205361.373251.000295.693456.174783.839689.457567.154691.299139.15146 3.628794-.0038 3.956063-.294601.620824-1.203951.649571-1.596904.05048-.106648-.162594-.120977-.369489-.132215-1.909038-.0069-.949674.01551-1.820601.04987-1.935392zm-1-13.8778621c.03436-.114791.167852-.301235.296648-.41432.191232-.167902.2915-.205564.546753-.205361.373251.000295.693456.174783.839689.457567.154691.299139.15146 3.628794-.0038 3.956063-.294601.6208241-1.203951.6495711-1.596904.05048-.106648-.1625968-.120977-.3694918-.132215-1.9090408-.0069-.949674.01551-1.820601.04987-1.935392z"/>
      <path fill="#f60" stroke="#f60" stroke-linejoin="round" stroke-width=".165728" d="M15.619699 8.2025456c.03436-.114791.167852-.301235.296648-.41432.191232-.167902.2915-.205564.546753-.205361.373251.000295.693456.174783.839689.457567.154691.299139.15146 3.6287934-.0038 3.9560624-.294601.620825-1.203951.649572-1.596904.05048-.106648-.162597-.120977-.369492-.132215-1.909041-.0069-.9496732.01551-1.8206002.04987-1.9353912z"/>
      <path fill="#f0f" stroke="#f0f" stroke-linejoin="round" stroke-width="1.00942" d="M14.455153 3.9764991h24.04014v.01879249h-24.04014z"/>
      <path fill="#f0f" stroke="#f0f" stroke-linejoin="round" stroke-width="1.00938" d="M14.50469 45.476479h23.99062v.01882989H14.50469z"/>
      <path fill="#f0f" stroke="#f0f" stroke-linejoin="round" stroke-width="1.01715" d="M38.508575 45.491425V4.008576h.01105816v41.482849zm-24.049556-.072339V3.936237h.01105816v41.482849z"/>
      <path fill="#808000" stroke="#808000" stroke-linejoin="round" stroke-width=".125016" d="M20.1856665 22.61136075c-.24724575-.0661275-.44430825-.23136375-.56517225-.47390625l-.1204935-.2417985.00026175-6.02595225c.00017325-4.0005135.0165375-6.0845475.048675-6.2002785.0624225-.224766.244074-.43866825.47071575-.55429275.17526825-.089415.311739-.0916905 5.490198-.0915195 5.24817675.00017325 5.30873775.0012 5.16354675.08975925-.20697.126204-.378594.36837975-.435219.61413075-.0268125.1163595-.0489.78320925-.04953 1.495512l-.001125 1.285515-.12890625-.113469-.12890625-.11346975.12890625.14301975.12890625.14301975v6.55224l-.12890625.14301975-.12890625.14301975.12890625-.11346975.12890625-.113469v1.288725c0 1.5229905.0236025 1.6546845.350574 1.9560765l.20983125.19341525-1.7216085.00345c-.9468855.001875-3.29597325.007905-5.22019575.01338-1.9242225.005475-3.55341825-.004725-3.620436-.022635zm2.94185025-3.533235c-.14804025-.16757775-.279642-.3046875-.29244825-.3046875-.0246375 0 .096462.1439175.364848.43359375.267804.28905.217146.1988535-.0723975-.12890625zm4.59904725.008025c.53619-.17559975.9298635-.4222755 1.3593675-.8517795.42795375-.42795375.67442625-.82041075.85371675-1.3593675.110385-.33182175.1250895-.4505625.127707-1.03125.0033-.732396-.067245-1.0462155-.36012075-1.60196175-.35798175-.67928625-.84192075-1.1423535-1.5587955-1.49156925-1.68482625-.82073775-3.72391125-.117816-4.55235975 1.569309-.27161775.5531445-.32295675.797925-.31968225 1.524222.002625.5806875.017325.69942825.127707 1.03125.3765825 1.13202825 1.29409575 1.98745575 2.44746 2.281845.496542.1267395 1.3730445.09369075 1.875-.070695zm-4.54687575-6.5470845c.1530735-.1546875.26776875-.28125.25487775-.28125-.0128925 0-.14867925.1265625-.30175275.28125-.15307275.1546875-.267768.28125-.25487775.28125.0128925 0 .14868-.1265625.30175275-.28125zm2.25000075 27.908319c-1.25102925-.190038-2.12270925-.51262725-3.07031325-1.1362545-.5800305-.3817245-1.45864425-1.269282-1.848429-1.8672465-.48998925-.75168525-.823758-1.5326265-.98728875-2.310027-.0996915-.47391675-.09917625-2.4368685.00075-2.91196875.15894225-.7555875.549519-1.68406125.9741075-2.315637 1.01370075-1.50788175 2.534511-2.52807975 4.34522175-2.9148855.5672685-.1211805 2.10460575-.1211805 2.671875 0 1.31204325.28028025 2.411499.8653065 3.37428 1.79547375.73847475.7134585 1.2269535 1.43233425 1.588791 2.33816175.3529305.88352925.48303375 1.5796695.481833 2.578125-.001275 1.0593675-.2006805 1.95451125-.63936525 2.8701315-.9427515 1.96770525-2.7428595 3.37039575-4.86103425 3.7878435-.3774945.0744-1.73026725.131883-2.030442.08628375zm1.01953125-1.9742775c-.161133-.00915-.42480525-.00915-.5859375 0-.161133.0091575-.029295.0166425.29296875.0166425.32226525 0 .454101-.0075.29296875-.0166425zm-.984375-.043215c-.0322275-.013005-.0849615-.013005-.1171875 0-.0322275.013005-.00585.02364.0585975.02364.064455 0 .09081975-.0106425.0585975-.02364zm1.54776675.00028125c-.0317325-.01284-.09501675-.01362-.140625-.001725-.0456075.0118875-.0196425.0223875.057705.0233475.07734375.000975.1146585-.0087675.082923-.0216075zm-1.80655575-.044445c-.0155775-.0155775-.0560025-.0172425-.089844-.003675-.037395.0149625-.0262875.02607.02832.02832.0494175.002025.0771-.009045.0615225-.0246225zm2.040039-.0027c-.0322275-.013005-.0849615-.013005-.1171875 0-.0322275.013005-.00585.02364.0585975.02364.064455 0 .09081975-.0106425.0585975-.02364zm-2.227539-.0441525c-.0155775-.0155775-.0560025-.0172425-.089844-.003675-.037395.0149625-.0262875.02607.02832.02832.0494175.002025.0771-.009045.0615225-.0246225zm2.4375 0c-.0155775-.0155775-.0560025-.0172425-.089844-.003675-.037395.0149625-.0262875.02607.02832.02832.0494175.002025.07709925-.009045.0615225-.0246225zm-2.68261725-.065415c-.12886425-.0553725-.20287425-.0553725-.11718825 0 .03867.02499.1019535.04428.14062575.0428625.046365-.001725.0383775-.0162975-.0234375-.0428625zm-.39843825-.140625c-.03867-.02499-.09140625-.0454425-.1171875-.0454425-.0257775 0-.0152325.020445.0234375.0454425.03867.02499.09140625.0454425.1171875.0454425.025785 0 .0152325-.020445-.0234375-.0454425zm3.84375075-.0703125c.064455-.0368475.09609375-.06699.0703125-.06699-.025785 0-.09960975.0301425-.1640625.06699-.064455.0368475-.09609375.06699-.0703125.06699.0257775 0 .099609-.0301425.1640625-.06699zm.421875-.2367825c0-.0128925-.063285.009285-.140625.0492825-.07734375.0399975-.140625.08326725-.140625.0961575 0 .0128925.063285-.009285.140625-.0492825.07734375-.0399975.140625-.0832665.140625-.0961575zm-4.82812575.0509325c0-.011985-.04746-.04479-.10546875-.0729-.10127925-.04908-.1018545-.0482175-.014475.0217875.095637.0766215.11994675.08697975.11994675.0511125zm5.21844825-.30258825c.0302475-.036615-.0346575-.007425-.14422875.0648225-.1095705.0722625-.19921875.1403235-.19921875.15124575 0 .03381.28529025-.1456695.3434475-.21606825zm-5.78262225-.06501c-.037755-.03369-.22860975-.207717-.42413025-.38671875l-.3554925-.32545725.3927375.38671875c.21600525.2126955.40686375.38671875.42413025.38671875.017265 0 .00050625-.02757-.037245-.06126zm6.00167475-.102801c.0605475-.064455.09954525-.1171875.08665425-.1171875-.0128925 0-.072975.0527325-.13352925.1171875-.060555.064455-.09954525.1171875-.086655.1171875.0128925 0 .072975-.0527325.13353-.1171875zm.5715705-.55078125c.28892775-.3437265.1864545-.26322375-.1491705.1171875-.1649085.18691425-.24091875.28710975-.16891125.22265625.0720075-.064455.21514425-.217383.31808175-.33984375zm-2.9722695.1715325c.71935125-.14858625 1.3297575-.4909365 1.83131925-1.027107 1.538955-1.6451475 1.072029-4.3223385-.93606375-5.367063-1.455441-.75720375-3.30349725-.35008875-4.281954.94328775-.48287925.638295-.70118925 1.28442-.70282575 2.080131-.001275.63143325.096318 1.05005475.36668325 1.5724845.71524575 1.38207675 2.21965125 2.10875925 3.722841 1.79826675zm-4.516542-.46450125c-.0688275-.090234-.13576275-.1640625-.1487505-.1640625-.023175 0 .0339675.08328975.16882125.24609375.12311625.1486305.1076505.08541975-.02007-.08203125zm7.76697-.0585975c.058305-.0743475.0566475-.07600425-.0177-.0177-.04512.035385-.08203125.0723-.08203125.08203125 0 .03858.03849.0137475.099729-.064335zm.228396-.33984375c.0275925-.0515625.0396225-.09375.0267375-.09375-.0128925 0-.0460125.0421875-.0736125.09375-.0275925.0515625-.03963.09375-.0267375.09375.0128925 0 .0460125-.0421875.0736125-.09375zm-8.32031325-.09375c-.0399975-.07734375-.0832665-.140625-.0961575-.140625-.0128925 0 .009285.063285.0492825.140625.0399975.07734375.08326725.140625.0961575.140625.0128925 0-.009285-.063285-.0492825-.140625zm8.48662875-.191856c.041235-.07973925.0666525-.153303.0564825-.16347375-.01017-.01017-.0535725.0550725-.0964485.144981-.096402.202158-.063.2176125.0399675.018495zm-8.76233325-.35480025c-.03966-.0731775-.0729525-.1182225-.07398-.1000995-.00315.0557175.105879.27335475.12659325.25264125.0107175-.0107175-.0129525-.07936425-.0526125-.15254175zm8.9695815-.13305075c0-.025785-.020445-.0152325-.045435.0234375s-.0454425.09140625-.0454425.1171875c0 .0257775.020445.0152325.0454425-.0234375.02499-.03867.045435-.09140625.045435-.1171875zm.12720675-.45410175c-.0149625-.037395-.02607-.0262875-.02832.02832-.002025.0494175.009045.07709925.0246225.0615225.0155775-.0155775.0172425-.0560025.003675-.089844zm-9.328125-.09375c-.0149625-.037395-.02607-.0262875-.02832.02832-.002025.0494175.009045.07709925.0246225.0615225.0155775-.0155775.0172425-.0560025.003675-.089844zm9.375-.09375c-.0149625-.037395-.02607-.0262875-.02832.02832-.002025.0494175.009045.07709925.0246225.0615225.0155775-.0155775.0172425-.0560025.003675-.089844zm-9.4228515-.1435545c-.013005-.0322275-.02364-.00585-.02364.0585975 0 .064455.0106425.0908205.02364.0585975.013005-.0322275.013005-.08496075 0-.1171875zm9.46875-.09375c-.013005-.0322275-.02364-.00585-.02364.0585975 0 .064455.0106425.0908205.02364.0585975.013005-.0322275.013005-.08496075 0-.1171875zm-9.5143575-.2109375c-.01179-.04512-.021435-.008205-.021435.08203125 0 .09023475.009645.12714825.021435.08203125.01179-.04512.01179-.1189455 0-.1640625zm9.5632695-.1640625c-.011175-.058005-.0203175-.010545-.0203175.10546875 0 .116016.0091425.16347675.0203175.10546875.011175-.058005.011175-.1529295 0-.2109375zm-9.6078165-.7265625c-.0093-.148242-.0169125-.026955-.0169125.26953125 0 .29648475.0076125.41777325.0169125.26953125.0093-.148242.0093-.3908205 0-.5390625zm9.65575725.09375c-.01011-.0966795-.01839-.01758-.01839.17578125 0 .19335975.0082725.27246075.01839.17578125.01011-.0966795.01011-.254883 0-.3515625zm-.047865-.49164075c-.0112125-.0583125-.0208125-.0216375-.02133.0814845-.0005205.103125.008655.15083175.020385.1060155.01173-.04482.0121575-.129192.000975-.1875zm-9.56316975-.1168425c-.0118875-.0456075-.0223875-.0196425-.0233475.057705-.000975.07734375.0087675.11465925.0216075.082923.01284-.0317325.01362-.09501675.001725-.140625zm9.50657925-.2469855c-.0180075-.10659975-.041895-.184665-.053085-.1734795-.0111825.01119-.0063.10823625.0108975.215667.017175.10743075.0410625.185496.053085.1734795.012015-.012015.007125-.109068-.0108975-.215667zm-9.4611435-.0117225c-.013005-.0322275-.02364-.00585-.02364.0585975 0 .064455.0106425.0908205.02364.0585975.013005-.0322275.013005-.08496075 0-.1171875zm.04785-.1845705c-.0149625-.037395-.02607-.0262875-.02832.02832-.002025.0494175.009045.07709925.0246225.0615225.0155775-.0155775.0172425-.0560025.003675-.089844zm.1481055-.43652325c-.00013125-.025785-.02922.01641-.064635.09375-.035415.07734375-.063735.17226525-.06294.2109375.000825.03867.02988-.003525.064635-.09375.0347475-.09023475.063075-.18515625.06294-.2109375zm9.100902.0837975c-.051075-.0796545-.052395-.07955175-.0267525.0021.014835.0472275.0286425.11050725.030675.140625.0027.039525.0101175.0389475.0267525-.0021.0126825-.0312525-.001125-.09453675-.030675-.140625zm-9.00121425-.3181725c0-.025785-.020445-.0152325-.0454425.0234375-.02499.03867-.0454425.09140625-.0454425.1171875 0 .0257775.020445.0152325.0454425-.0234375.02499-.03867.0454425-.09140625.0454425-.1171875zm8.76945525-.2530695c-.0794025-.157296-.15441525-.285993-.1666935-.285993-.0122775 0 .044955.13643175.1271805.3031815.08222775.1667505.1572405.29544675.16669425.28599375.00945-.0094575-.047775-.1458855-.12718125-.30318225zm-8.63220375-.0399c.0552525-.1095705.0899175-.19921875.07702725-.19921875-.0266475 0-.21284325.3537585-.21284325.40438275 0 .05133.02715.0103125.135816-.205164zm.307056-.5095035c.0961935-.14487825.26203725-.361089.368541-.48046875.15292125-.1714095.160893-.187482.037905-.0764295-.1807815.16323825-.66211425.8203125-.60091125.8203125.0107625 0 .098271-.11853675.19446525-.26341425zm8.05587075.0723525c-.046575-.07930425-.1429905-.21114-.2142555-.2929695-.07347-.08435925-.0442275-.02193.067545.144189.2080845.30927225.28939725.39173025.14671425.1487805zm-.5784705-.726684c-.140916-.14382375-.34058625-.3274815-.44371125-.40812975-.103125-.0806475.002325.036075.234375.25938075.4763655.458454.59623575.54363075.20933625.148749zm-6.678087-.25412775c.1006995-.103125.172542-.1875.15965175-.1875-.0128925 0-.10582725.084375-.20652675.1875-.10069875.103125-.172542.1875-.159651.1875.0128925 0 .10582725-.084375.206526-.1875zm.31066725-.26953125c.058305-.0743475.0566475-.07600425-.0177-.0177-.04512.035385-.08203125.0723-.08203125.08203125 0 .03858.03849.0137475.09972975-.064335zm5.6752395-.0703125c-.026955-.0322275-.119187-.0987885-.2049585-.147915-.18385275-.1053045-.15321-.061305.0645225.092646.17720175.12529425.2097135.1380885.140439.0552675zm-4.93121925-.3886245c0-.0128925-.084375.019605-.1875.0722175s-.1875.10620225-.1875.1190925c0 .0128925.084375-.019605.1875-.0722175s.1875-.10620225.1875-.1190925zm4.54687575.1433205c0-.028425-.452532-.25939125-.5023485-.25639125-.02019.0012.07930125.0635025.2210985.138414.287751.152019.28125.14929125.28125.11797725zm-4.31250075-.23516475c.064455-.0368475.09609375-.06699.0703125-.06699-.0257775 0-.099609.0301425-.1640625.06699-.064455.0368475-.09609375.06699-.0703125.06699.025785 0 .09960975-.0301425.1640625-.06699zm3.70312575-.0703125c-.03867-.02499-.09140625-.0454425-.1171875-.0454425-.025785 0-.0152325.020445.0234375.0454425.03867.02499.09140625.0454425.1171875.0454425.0257775 0 .0152325-.020445-.0234375-.0454425zm-3.32812575-.0703125c.09023475-.0347475.13242225-.0638325.09375-.064635-.03867-.000825-.13359375.027525-.2109375.06294-.1810335.08289375-.0968295.08411025.1171875.001725zm2.8466805-.09863325c-.0155775-.0155775-.0560025-.0172425-.089844-.003675-.037395.0149625-.0262875.02607.02832.02832.0494175.002025.07709925-.009045.0615225-.0246225zm-2.34375-.046875c-.0155775-.0155775-.0560025-.0172425-.089844-.003675-.037395.0149625-.0262875.02607.02832.02832.0494175.002025.0771-.009045.0615225-.0246225zm2.15625 0c-.0155775-.0155775-.0560025-.0172425-.089844-.003675-.037395.0149625-.0262875.02607.02832.02832.0494175.002025.07709925-.009045.0615225-.0246225zm-1.944336-.0495975c-.0322275-.013005-.0849615-.013005-.1171875 0-.0322275.013005-.00585.02364.0585975.02364.064455 0 .09081975-.010635.0585975-.02364zm1.734375 0c-.0322275-.013005-.0849615-.013005-.1171875 0-.0322275.013005-.00585.02364.0585975.02364.064455 0 .09081975-.010635.0585975-.02364zm-1.3353915-.0480375c-.0448125-.01173-.12919125-.0121575-.1875-.000975-.058305.0112125-.0216375.0208125.08148525.02133.103125.0005205.15083175-.008655.10601475-.020385zm1.03125 0c-.0448125-.01173-.12919125-.0121575-.1875-.000975-.058305.0112125-.0216375.0208125.08148525.02133.103125.0005205.15083175-.008655.10601475-.020385zm-.53871675-.0454125c-.0317325-.01284-.09501675-.01362-.140625-.001725-.0456075.0118875-.0196425.0223875.057705.0233475.07734375.000975.1146585-.0087675.082923-.0216075z"/>
    </g>
  </g>
</svg>
