ISO-10303-21;
HEADER;
/* Generated by software containing ST-Developer
 * from STEP Tools, Inc. (www.steptools.com) 
 */
/* OPTION: using custom renumber hook */

FILE_DESCRIPTION(
/* description */ ('STEP AP242',
'CAx-IF Rec.Pracs.---Representation and Presentation of Product Manufa
cturing Information (PMI)---4.0---2014-10-13',
'CAx-IF Rec.Pracs.---3D Tessellated Geometry---0.4---2014-09-14','2;1'),

/* implementation_level */ '2;1');

FILE_NAME(
/* name */ '68dd2b93382a570af2f29363',
/* time_stamp */ '2025-10-01T13:24:37Z',
/* author */ (''),
/* organization */ (''),
/* preprocessor_version */ 'ST-DEVELOPER v20',
/* originating_system */ 'ONSHAPE BY PTC INC, 1.204',
/* authorisation */ '  ');

FILE_SCHEMA (('AP242_MANAGED_MODEL_BASED_3D_ENGINEERING_MIM_LF { 1 0 10303 442 1 1 4 }'));
ENDSEC;

DATA;
#10=SHAPE_REPRESENTATION_RELATIONSHIP('','',#736,#12);
#11=SHAPE_REPRESENTATION_RELATIONSHIP('','',#737,#13);
#12=ADVANCED_BREP_SHAPE_REPRESENTATION('',(#732),#1274);
#13=ADVANCED_BREP_SHAPE_REPRESENTATION('',(#733),#1275);
#14=SPHERICAL_SURFACE('',#764,0.002);
#15=SPHERICAL_SURFACE('',#767,0.002);
#16=SPHERICAL_SURFACE('',#770,0.002);
#17=SPHERICAL_SURFACE('',#773,0.002);
#18=SPHERICAL_SURFACE('',#807,0.0005);
#19=SPHERICAL_SURFACE('',#818,0.0005);
#20=SPHERICAL_SURFACE('',#820,0.0005);
#21=SPHERICAL_SURFACE('',#826,0.0005);
#22=CYLINDRICAL_SURFACE('',#750,0.002);
#23=CYLINDRICAL_SURFACE('',#753,0.002);
#24=CYLINDRICAL_SURFACE('',#756,0.002);
#25=CYLINDRICAL_SURFACE('',#759,0.002);
#26=CYLINDRICAL_SURFACE('',#762,0.002);
#27=CYLINDRICAL_SURFACE('',#765,0.002);
#28=CYLINDRICAL_SURFACE('',#768,0.002);
#29=CYLINDRICAL_SURFACE('',#771,0.002);
#30=CYLINDRICAL_SURFACE('',#774,0.00175);
#31=CYLINDRICAL_SURFACE('',#801,0.002);
#32=CYLINDRICAL_SURFACE('',#802,0.002);
#33=CYLINDRICAL_SURFACE('',#803,0.002);
#34=CYLINDRICAL_SURFACE('',#804,0.002);
#35=CYLINDRICAL_SURFACE('',#805,0.0005);
#36=CYLINDRICAL_SURFACE('',#810,0.0005);
#37=CYLINDRICAL_SURFACE('',#812,0.0005);
#38=CYLINDRICAL_SURFACE('',#814,0.0005);
#39=CYLINDRICAL_SURFACE('',#816,0.0005);
#40=CYLINDRICAL_SURFACE('',#822,0.0005);
#41=CYLINDRICAL_SURFACE('',#824,0.0005);
#42=CYLINDRICAL_SURFACE('',#828,0.0005);
#43=LINE('',#1071,#99);
#44=LINE('',#1074,#100);
#45=LINE('',#1076,#101);
#46=LINE('',#1078,#102);
#47=LINE('',#1080,#103);
#48=LINE('',#1083,#104);
#49=LINE('',#1085,#105);
#50=LINE('',#1087,#106);
#51=LINE('',#1089,#107);
#52=LINE('',#1092,#108);
#53=LINE('',#1094,#109);
#54=LINE('',#1096,#110);
#55=LINE('',#1098,#111);
#56=LINE('',#1101,#112);
#57=LINE('',#1103,#113);
#58=LINE('',#1105,#114);
#59=LINE('',#1107,#115);
#60=LINE('',#1110,#116);
#61=LINE('',#1112,#117);
#62=LINE('',#1114,#118);
#63=LINE('',#1150,#119);
#64=LINE('',#1153,#120);
#65=LINE('',#1155,#121);
#66=LINE('',#1157,#122);
#67=LINE('',#1159,#123);
#68=LINE('',#1162,#124);
#69=LINE('',#1164,#125);
#70=LINE('',#1166,#126);
#71=LINE('',#1168,#127);
#72=LINE('',#1171,#128);
#73=LINE('',#1173,#129);
#74=LINE('',#1175,#130);
#75=LINE('',#1177,#131);
#76=LINE('',#1180,#132);
#77=LINE('',#1182,#133);
#78=LINE('',#1184,#134);
#79=LINE('',#1186,#135);
#80=LINE('',#1189,#136);
#81=LINE('',#1191,#137);
#82=LINE('',#1193,#138);
#83=LINE('',#1195,#139);
#84=LINE('',#1200,#140);
#85=LINE('',#1205,#141);
#86=LINE('',#1209,#142);
#87=LINE('',#1212,#143);
#88=LINE('',#1213,#144);
#89=LINE('',#1215,#145);
#90=LINE('',#1218,#146);
#91=LINE('',#1220,#147);
#92=LINE('',#1222,#148);
#93=LINE('',#1228,#149);
#94=LINE('',#1230,#150);
#95=LINE('',#1232,#151);
#96=LINE('',#1234,#152);
#97=LINE('',#1237,#153);
#98=LINE('',#1238,#154);
#99=VECTOR('',#835,1.);
#100=VECTOR('',#836,1.);
#101=VECTOR('',#837,1.);
#102=VECTOR('',#838,1.);
#103=VECTOR('',#841,1.);
#104=VECTOR('',#842,1.);
#105=VECTOR('',#843,1.);
#106=VECTOR('',#844,1.);
#107=VECTOR('',#847,1.);
#108=VECTOR('',#848,1.);
#109=VECTOR('',#849,1.);
#110=VECTOR('',#850,1.);
#111=VECTOR('',#853,1.);
#112=VECTOR('',#854,1.);
#113=VECTOR('',#855,1.);
#114=VECTOR('',#856,1.);
#115=VECTOR('',#859,1.);
#116=VECTOR('',#860,1.);
#117=VECTOR('',#861,1.);
#118=VECTOR('',#862,1.);
#119=VECTOR('',#931,1.);
#120=VECTOR('',#932,1.);
#121=VECTOR('',#933,1.);
#122=VECTOR('',#934,1.);
#123=VECTOR('',#937,1.);
#124=VECTOR('',#938,1.);
#125=VECTOR('',#939,1.);
#126=VECTOR('',#940,1.);
#127=VECTOR('',#943,1.);
#128=VECTOR('',#944,1.);
#129=VECTOR('',#945,1.);
#130=VECTOR('',#946,1.);
#131=VECTOR('',#949,1.);
#132=VECTOR('',#950,1.);
#133=VECTOR('',#951,1.);
#134=VECTOR('',#952,1.);
#135=VECTOR('',#955,1.);
#136=VECTOR('',#956,1.);
#137=VECTOR('',#957,1.);
#138=VECTOR('',#958,1.);
#139=VECTOR('',#961,1.);
#140=VECTOR('',#964,1.);
#141=VECTOR('',#969,1.);
#142=VECTOR('',#974,1.);
#143=VECTOR('',#975,1.);
#144=VECTOR('',#976,1.);
#145=VECTOR('',#979,1.);
#146=VECTOR('',#980,1.);
#147=VECTOR('',#981,1.);
#148=VECTOR('',#982,1.);
#149=VECTOR('',#993,1.);
#150=VECTOR('',#994,1.);
#151=VECTOR('',#995,1.);
#152=VECTOR('',#998,1.);
#153=VECTOR('',#999,1.);
#154=VECTOR('',#1000,1.);
#155=ORIENTED_EDGE('',*,*,#351,.F.);
#156=ORIENTED_EDGE('',*,*,#352,.T.);
#157=ORIENTED_EDGE('',*,*,#353,.T.);
#158=ORIENTED_EDGE('',*,*,#354,.T.);
#159=ORIENTED_EDGE('',*,*,#355,.T.);
#160=ORIENTED_EDGE('',*,*,#356,.T.);
#161=ORIENTED_EDGE('',*,*,#357,.T.);
#162=ORIENTED_EDGE('',*,*,#358,.F.);
#163=ORIENTED_EDGE('',*,*,#359,.T.);
#164=ORIENTED_EDGE('',*,*,#360,.T.);
#165=ORIENTED_EDGE('',*,*,#361,.T.);
#166=ORIENTED_EDGE('',*,*,#362,.T.);
#167=ORIENTED_EDGE('',*,*,#363,.T.);
#168=ORIENTED_EDGE('',*,*,#364,.T.);
#169=ORIENTED_EDGE('',*,*,#365,.T.);
#170=ORIENTED_EDGE('',*,*,#366,.T.);
#171=ORIENTED_EDGE('',*,*,#367,.T.);
#172=ORIENTED_EDGE('',*,*,#368,.T.);
#173=ORIENTED_EDGE('',*,*,#369,.T.);
#174=ORIENTED_EDGE('',*,*,#370,.T.);
#175=ORIENTED_EDGE('',*,*,#371,.T.);
#176=ORIENTED_EDGE('',*,*,#362,.F.);
#177=ORIENTED_EDGE('',*,*,#372,.T.);
#178=ORIENTED_EDGE('',*,*,#368,.F.);
#179=ORIENTED_EDGE('',*,*,#373,.T.);
#180=ORIENTED_EDGE('',*,*,#358,.T.);
#181=ORIENTED_EDGE('',*,*,#374,.T.);
#182=ORIENTED_EDGE('',*,*,#366,.F.);
#183=ORIENTED_EDGE('',*,*,#375,.T.);
#184=ORIENTED_EDGE('',*,*,#370,.F.);
#185=ORIENTED_EDGE('',*,*,#376,.T.);
#186=ORIENTED_EDGE('',*,*,#352,.F.);
#187=ORIENTED_EDGE('',*,*,#377,.T.);
#188=ORIENTED_EDGE('',*,*,#355,.F.);
#189=ORIENTED_EDGE('',*,*,#378,.T.);
#190=ORIENTED_EDGE('',*,*,#356,.F.);
#191=ORIENTED_EDGE('',*,*,#379,.T.);
#192=ORIENTED_EDGE('',*,*,#353,.F.);
#193=ORIENTED_EDGE('',*,*,#380,.T.);
#194=ORIENTED_EDGE('',*,*,#360,.F.);
#195=ORIENTED_EDGE('',*,*,#381,.T.);
#196=ORIENTED_EDGE('',*,*,#354,.F.);
#197=ORIENTED_EDGE('',*,*,#382,.T.);
#198=ORIENTED_EDGE('',*,*,#364,.F.);
#199=ORIENTED_EDGE('',*,*,#383,.T.);
#200=ORIENTED_EDGE('',*,*,#372,.F.);
#201=ORIENTED_EDGE('',*,*,#361,.F.);
#202=ORIENTED_EDGE('',*,*,#384,.F.);
#203=ORIENTED_EDGE('',*,*,#369,.F.);
#204=ORIENTED_EDGE('',*,*,#380,.F.);
#205=ORIENTED_EDGE('',*,*,#376,.F.);
#206=ORIENTED_EDGE('',*,*,#384,.T.);
#207=ORIENTED_EDGE('',*,*,#375,.F.);
#208=ORIENTED_EDGE('',*,*,#365,.F.);
#209=ORIENTED_EDGE('',*,*,#385,.F.);
#210=ORIENTED_EDGE('',*,*,#363,.F.);
#211=ORIENTED_EDGE('',*,*,#382,.F.);
#212=ORIENTED_EDGE('',*,*,#381,.F.);
#213=ORIENTED_EDGE('',*,*,#385,.T.);
#214=ORIENTED_EDGE('',*,*,#374,.F.);
#215=ORIENTED_EDGE('',*,*,#357,.F.);
#216=ORIENTED_EDGE('',*,*,#386,.F.);
#217=ORIENTED_EDGE('',*,*,#367,.F.);
#218=ORIENTED_EDGE('',*,*,#386,.T.);
#219=ORIENTED_EDGE('',*,*,#378,.F.);
#220=ORIENTED_EDGE('',*,*,#383,.F.);
#221=ORIENTED_EDGE('',*,*,#373,.F.);
#222=ORIENTED_EDGE('',*,*,#371,.F.);
#223=ORIENTED_EDGE('',*,*,#387,.F.);
#224=ORIENTED_EDGE('',*,*,#359,.F.);
#225=ORIENTED_EDGE('',*,*,#387,.T.);
#226=ORIENTED_EDGE('',*,*,#377,.F.);
#227=ORIENTED_EDGE('',*,*,#379,.F.);
#228=ORIENTED_EDGE('',*,*,#388,.F.);
#229=ORIENTED_EDGE('',*,*,#351,.T.);
#230=ORIENTED_EDGE('',*,*,#388,.T.);
#231=ORIENTED_EDGE('',*,*,#389,.T.);
#232=ORIENTED_EDGE('',*,*,#390,.T.);
#233=ORIENTED_EDGE('',*,*,#391,.F.);
#234=ORIENTED_EDGE('',*,*,#392,.T.);
#235=ORIENTED_EDGE('',*,*,#393,.F.);
#236=ORIENTED_EDGE('',*,*,#394,.T.);
#237=ORIENTED_EDGE('',*,*,#395,.F.);
#238=ORIENTED_EDGE('',*,*,#396,.T.);
#239=ORIENTED_EDGE('',*,*,#397,.F.);
#240=ORIENTED_EDGE('',*,*,#398,.T.);
#241=ORIENTED_EDGE('',*,*,#399,.F.);
#242=ORIENTED_EDGE('',*,*,#400,.T.);
#243=ORIENTED_EDGE('',*,*,#401,.T.);
#244=ORIENTED_EDGE('',*,*,#402,.T.);
#245=ORIENTED_EDGE('',*,*,#403,.T.);
#246=ORIENTED_EDGE('',*,*,#404,.T.);
#247=ORIENTED_EDGE('',*,*,#405,.F.);
#248=ORIENTED_EDGE('',*,*,#406,.T.);
#249=ORIENTED_EDGE('',*,*,#407,.T.);
#250=ORIENTED_EDGE('',*,*,#408,.T.);
#251=ORIENTED_EDGE('',*,*,#409,.F.);
#252=ORIENTED_EDGE('',*,*,#410,.T.);
#253=ORIENTED_EDGE('',*,*,#411,.F.);
#254=ORIENTED_EDGE('',*,*,#412,.T.);
#255=ORIENTED_EDGE('',*,*,#405,.T.);
#256=ORIENTED_EDGE('',*,*,#413,.T.);
#257=ORIENTED_EDGE('',*,*,#414,.T.);
#258=ORIENTED_EDGE('',*,*,#415,.T.);
#259=ORIENTED_EDGE('',*,*,#416,.T.);
#260=ORIENTED_EDGE('',*,*,#417,.T.);
#261=ORIENTED_EDGE('',*,*,#409,.T.);
#262=ORIENTED_EDGE('',*,*,#418,.T.);
#263=ORIENTED_EDGE('',*,*,#419,.T.);
#264=ORIENTED_EDGE('',*,*,#420,.T.);
#265=ORIENTED_EDGE('',*,*,#421,.T.);
#266=ORIENTED_EDGE('',*,*,#422,.T.);
#267=ORIENTED_EDGE('',*,*,#389,.F.);
#268=ORIENTED_EDGE('',*,*,#423,.T.);
#269=ORIENTED_EDGE('',*,*,#403,.F.);
#270=ORIENTED_EDGE('',*,*,#424,.T.);
#271=ORIENTED_EDGE('',*,*,#395,.T.);
#272=ORIENTED_EDGE('',*,*,#425,.T.);
#273=ORIENTED_EDGE('',*,*,#399,.T.);
#274=ORIENTED_EDGE('',*,*,#426,.T.);
#275=ORIENTED_EDGE('',*,*,#411,.T.);
#276=ORIENTED_EDGE('',*,*,#427,.T.);
#277=ORIENTED_EDGE('',*,*,#428,.T.);
#278=ORIENTED_EDGE('',*,*,#429,.T.);
#279=ORIENTED_EDGE('',*,*,#430,.T.);
#280=ORIENTED_EDGE('',*,*,#431,.T.);
#281=ORIENTED_EDGE('',*,*,#414,.F.);
#282=ORIENTED_EDGE('',*,*,#432,.T.);
#283=ORIENTED_EDGE('',*,*,#391,.T.);
#284=ORIENTED_EDGE('',*,*,#433,.T.);
#285=ORIENTED_EDGE('',*,*,#397,.T.);
#286=ORIENTED_EDGE('',*,*,#434,.T.);
#287=ORIENTED_EDGE('',*,*,#393,.T.);
#288=ORIENTED_EDGE('',*,*,#435,.T.);
#289=ORIENTED_EDGE('',*,*,#401,.F.);
#290=ORIENTED_EDGE('',*,*,#436,.T.);
#291=ORIENTED_EDGE('',*,*,#433,.F.);
#292=ORIENTED_EDGE('',*,*,#390,.F.);
#293=ORIENTED_EDGE('',*,*,#426,.F.);
#294=ORIENTED_EDGE('',*,*,#398,.F.);
#295=ORIENTED_EDGE('',*,*,#434,.F.);
#296=ORIENTED_EDGE('',*,*,#400,.F.);
#297=ORIENTED_EDGE('',*,*,#425,.F.);
#298=ORIENTED_EDGE('',*,*,#394,.F.);
#299=ORIENTED_EDGE('',*,*,#435,.F.);
#300=ORIENTED_EDGE('',*,*,#396,.F.);
#301=ORIENTED_EDGE('',*,*,#424,.F.);
#302=ORIENTED_EDGE('',*,*,#402,.F.);
#303=ORIENTED_EDGE('',*,*,#436,.F.);
#304=ORIENTED_EDGE('',*,*,#404,.F.);
#305=ORIENTED_EDGE('',*,*,#423,.F.);
#306=ORIENTED_EDGE('',*,*,#392,.F.);
#307=ORIENTED_EDGE('',*,*,#437,.F.);
#308=ORIENTED_EDGE('',*,*,#432,.F.);
#309=ORIENTED_EDGE('',*,*,#413,.F.);
#310=ORIENTED_EDGE('',*,*,#408,.F.);
#311=ORIENTED_EDGE('',*,*,#438,.F.);
#312=ORIENTED_EDGE('',*,*,#437,.T.);
#313=ORIENTED_EDGE('',*,*,#439,.F.);
#314=ORIENTED_EDGE('',*,*,#412,.F.);
#315=ORIENTED_EDGE('',*,*,#429,.F.);
#316=ORIENTED_EDGE('',*,*,#440,.F.);
#317=ORIENTED_EDGE('',*,*,#406,.F.);
#318=ORIENTED_EDGE('',*,*,#439,.T.);
#319=ORIENTED_EDGE('',*,*,#407,.F.);
#320=ORIENTED_EDGE('',*,*,#441,.F.);
#321=ORIENTED_EDGE('',*,*,#422,.F.);
#322=ORIENTED_EDGE('',*,*,#438,.T.);
#323=ORIENTED_EDGE('',*,*,#421,.F.);
#324=ORIENTED_EDGE('',*,*,#442,.F.);
#325=ORIENTED_EDGE('',*,*,#430,.F.);
#326=ORIENTED_EDGE('',*,*,#415,.F.);
#327=ORIENTED_EDGE('',*,*,#431,.F.);
#328=ORIENTED_EDGE('',*,*,#443,.F.);
#329=ORIENTED_EDGE('',*,*,#418,.F.);
#330=ORIENTED_EDGE('',*,*,#441,.T.);
#331=ORIENTED_EDGE('',*,*,#440,.T.);
#332=ORIENTED_EDGE('',*,*,#444,.F.);
#333=ORIENTED_EDGE('',*,*,#443,.T.);
#334=ORIENTED_EDGE('',*,*,#442,.T.);
#335=ORIENTED_EDGE('',*,*,#445,.F.);
#336=ORIENTED_EDGE('',*,*,#444,.T.);
#337=ORIENTED_EDGE('',*,*,#428,.F.);
#338=ORIENTED_EDGE('',*,*,#446,.F.);
#339=ORIENTED_EDGE('',*,*,#419,.F.);
#340=ORIENTED_EDGE('',*,*,#445,.T.);
#341=ORIENTED_EDGE('',*,*,#420,.F.);
#342=ORIENTED_EDGE('',*,*,#447,.F.);
#343=ORIENTED_EDGE('',*,*,#416,.F.);
#344=ORIENTED_EDGE('',*,*,#447,.T.);
#345=ORIENTED_EDGE('',*,*,#446,.T.);
#346=ORIENTED_EDGE('',*,*,#448,.F.);
#347=ORIENTED_EDGE('',*,*,#410,.F.);
#348=ORIENTED_EDGE('',*,*,#417,.F.);
#349=ORIENTED_EDGE('',*,*,#448,.T.);
#350=ORIENTED_EDGE('',*,*,#427,.F.);
#351=EDGE_CURVE('',#449,#449,#507,.T.);
#352=EDGE_CURVE('',#450,#451,#43,.T.);
#353=EDGE_CURVE('',#451,#452,#44,.F.);
#354=EDGE_CURVE('',#452,#453,#45,.F.);
#355=EDGE_CURVE('',#453,#450,#46,.T.);
#356=EDGE_CURVE('',#454,#455,#47,.F.);
#357=EDGE_CURVE('',#455,#456,#48,.T.);
#358=EDGE_CURVE('',#457,#456,#49,.T.);
#359=EDGE_CURVE('',#457,#454,#50,.F.);
#360=EDGE_CURVE('',#458,#459,#51,.T.);
#361=EDGE_CURVE('',#459,#460,#52,.T.);
#362=EDGE_CURVE('',#460,#461,#53,.T.);
#363=EDGE_CURVE('',#461,#458,#54,.F.);
#364=EDGE_CURVE('',#462,#463,#55,.T.);
#365=EDGE_CURVE('',#463,#464,#56,.T.);
#366=EDGE_CURVE('',#464,#465,#57,.T.);
#367=EDGE_CURVE('',#465,#462,#58,.F.);
#368=EDGE_CURVE('',#466,#467,#59,.T.);
#369=EDGE_CURVE('',#467,#468,#60,.F.);
#370=EDGE_CURVE('',#468,#469,#61,.F.);
#371=EDGE_CURVE('',#469,#466,#62,.T.);
#372=EDGE_CURVE('',#460,#467,#508,.F.);
#373=EDGE_CURVE('',#466,#457,#509,.F.);
#374=EDGE_CURVE('',#456,#465,#510,.F.);
#375=EDGE_CURVE('',#464,#461,#511,.F.);
#376=EDGE_CURVE('',#468,#451,#512,.F.);
#377=EDGE_CURVE('',#450,#469,#513,.T.);
#378=EDGE_CURVE('',#453,#455,#514,.F.);
#379=EDGE_CURVE('',#454,#450,#515,.T.);
#380=EDGE_CURVE('',#451,#459,#516,.F.);
#381=EDGE_CURVE('',#458,#452,#517,.T.);
#382=EDGE_CURVE('',#452,#463,#518,.F.);
#383=EDGE_CURVE('',#462,#453,#519,.T.);
#384=EDGE_CURVE('',#468,#459,#520,.T.);
#385=EDGE_CURVE('',#458,#463,#521,.T.);
#386=EDGE_CURVE('',#462,#455,#522,.T.);
#387=EDGE_CURVE('',#454,#469,#523,.T.);
#388=EDGE_CURVE('',#470,#470,#524,.T.);
#389=EDGE_CURVE('',#471,#472,#63,.T.);
#390=EDGE_CURVE('',#472,#473,#64,.F.);
#391=EDGE_CURVE('',#474,#473,#65,.T.);
#392=EDGE_CURVE('',#474,#471,#66,.T.);
#393=EDGE_CURVE('',#475,#476,#67,.T.);
#394=EDGE_CURVE('',#475,#477,#68,.T.);
#395=EDGE_CURVE('',#478,#477,#69,.T.);
#396=EDGE_CURVE('',#478,#476,#70,.F.);
#397=EDGE_CURVE('',#479,#480,#71,.T.);
#398=EDGE_CURVE('',#479,#481,#72,.T.);
#399=EDGE_CURVE('',#482,#481,#73,.T.);
#400=EDGE_CURVE('',#482,#480,#74,.F.);
#401=EDGE_CURVE('',#483,#484,#75,.T.);
#402=EDGE_CURVE('',#484,#485,#76,.T.);
#403=EDGE_CURVE('',#485,#486,#77,.T.);
#404=EDGE_CURVE('',#486,#483,#78,.F.);
#405=EDGE_CURVE('',#487,#488,#79,.T.);
#406=EDGE_CURVE('',#487,#489,#80,.F.);
#407=EDGE_CURVE('',#489,#490,#81,.T.);
#408=EDGE_CURVE('',#490,#488,#82,.T.);
#409=EDGE_CURVE('',#491,#492,#83,.T.);
#410=EDGE_CURVE('',#491,#493,#525,.F.);
#411=EDGE_CURVE('',#494,#493,#84,.T.);
#412=EDGE_CURVE('',#494,#487,#526,.F.);
#413=EDGE_CURVE('',#488,#495,#527,.F.);
#414=EDGE_CURVE('',#495,#496,#85,.T.);
#415=EDGE_CURVE('',#496,#492,#528,.F.);
#416=EDGE_CURVE('',#497,#498,#86,.F.);
#417=EDGE_CURVE('',#498,#491,#87,.F.);
#418=EDGE_CURVE('',#492,#497,#88,.T.);
#419=EDGE_CURVE('',#499,#500,#89,.F.);
#420=EDGE_CURVE('',#500,#501,#90,.T.);
#421=EDGE_CURVE('',#501,#502,#91,.T.);
#422=EDGE_CURVE('',#502,#499,#92,.F.);
#423=EDGE_CURVE('',#471,#486,#529,.T.);
#424=EDGE_CURVE('',#485,#478,#530,.T.);
#425=EDGE_CURVE('',#477,#482,#531,.T.);
#426=EDGE_CURVE('',#481,#472,#532,.T.);
#427=EDGE_CURVE('',#493,#503,#93,.T.);
#428=EDGE_CURVE('',#503,#504,#94,.T.);
#429=EDGE_CURVE('',#504,#494,#95,.T.);
#430=EDGE_CURVE('',#505,#506,#96,.F.);
#431=EDGE_CURVE('',#506,#496,#97,.F.);
#432=EDGE_CURVE('',#495,#505,#98,.F.);
#433=EDGE_CURVE('',#473,#479,#533,.T.);
#434=EDGE_CURVE('',#480,#475,#534,.T.);
#435=EDGE_CURVE('',#476,#484,#535,.T.);
#436=EDGE_CURVE('',#483,#474,#536,.T.);
#437=EDGE_CURVE('',#505,#490,#537,.T.);
#438=EDGE_CURVE('',#505,#502,#538,.F.);
#439=EDGE_CURVE('',#502,#490,#539,.F.);
#440=EDGE_CURVE('',#489,#504,#540,.T.);
#441=EDGE_CURVE('',#499,#489,#541,.T.);
#442=EDGE_CURVE('',#506,#501,#542,.T.);
#443=EDGE_CURVE('',#497,#506,#543,.T.);
#444=EDGE_CURVE('',#499,#504,#544,.F.);
#445=EDGE_CURVE('',#497,#501,#545,.F.);
#446=EDGE_CURVE('',#500,#503,#546,.T.);
#447=EDGE_CURVE('',#498,#500,#547,.T.);
#448=EDGE_CURVE('',#498,#503,#548,.F.);
#449=VERTEX_POINT('',#1070);
#450=VERTEX_POINT('',#1072);
#451=VERTEX_POINT('',#1073);
#452=VERTEX_POINT('',#1075);
#453=VERTEX_POINT('',#1077);
#454=VERTEX_POINT('',#1081);
#455=VERTEX_POINT('',#1082);
#456=VERTEX_POINT('',#1084);
#457=VERTEX_POINT('',#1086);
#458=VERTEX_POINT('',#1090);
#459=VERTEX_POINT('',#1091);
#460=VERTEX_POINT('',#1093);
#461=VERTEX_POINT('',#1095);
#462=VERTEX_POINT('',#1099);
#463=VERTEX_POINT('',#1100);
#464=VERTEX_POINT('',#1102);
#465=VERTEX_POINT('',#1104);
#466=VERTEX_POINT('',#1108);
#467=VERTEX_POINT('',#1109);
#468=VERTEX_POINT('',#1111);
#469=VERTEX_POINT('',#1113);
#470=VERTEX_POINT('',#1146);
#471=VERTEX_POINT('',#1151);
#472=VERTEX_POINT('',#1152);
#473=VERTEX_POINT('',#1154);
#474=VERTEX_POINT('',#1156);
#475=VERTEX_POINT('',#1160);
#476=VERTEX_POINT('',#1161);
#477=VERTEX_POINT('',#1163);
#478=VERTEX_POINT('',#1165);
#479=VERTEX_POINT('',#1169);
#480=VERTEX_POINT('',#1170);
#481=VERTEX_POINT('',#1172);
#482=VERTEX_POINT('',#1174);
#483=VERTEX_POINT('',#1178);
#484=VERTEX_POINT('',#1179);
#485=VERTEX_POINT('',#1181);
#486=VERTEX_POINT('',#1183);
#487=VERTEX_POINT('',#1187);
#488=VERTEX_POINT('',#1188);
#489=VERTEX_POINT('',#1190);
#490=VERTEX_POINT('',#1192);
#491=VERTEX_POINT('',#1196);
#492=VERTEX_POINT('',#1197);
#493=VERTEX_POINT('',#1199);
#494=VERTEX_POINT('',#1201);
#495=VERTEX_POINT('',#1204);
#496=VERTEX_POINT('',#1206);
#497=VERTEX_POINT('',#1210);
#498=VERTEX_POINT('',#1211);
#499=VERTEX_POINT('',#1216);
#500=VERTEX_POINT('',#1217);
#501=VERTEX_POINT('',#1219);
#502=VERTEX_POINT('',#1221);
#503=VERTEX_POINT('',#1229);
#504=VERTEX_POINT('',#1231);
#505=VERTEX_POINT('',#1235);
#506=VERTEX_POINT('',#1236);
#507=CIRCLE('',#740,0.00175);
#508=CIRCLE('',#746,0.002);
#509=CIRCLE('',#747,0.002);
#510=CIRCLE('',#748,0.002);
#511=CIRCLE('',#749,0.002);
#512=CIRCLE('',#751,0.002);
#513=CIRCLE('',#752,0.002);
#514=CIRCLE('',#754,0.002);
#515=CIRCLE('',#755,0.002);
#516=CIRCLE('',#757,0.002);
#517=CIRCLE('',#758,0.002);
#518=CIRCLE('',#760,0.002);
#519=CIRCLE('',#761,0.002);
#520=CIRCLE('',#763,0.002);
#521=CIRCLE('',#766,0.002);
#522=CIRCLE('',#769,0.002);
#523=CIRCLE('',#772,0.002);
#524=CIRCLE('',#775,0.00175);
#525=CIRCLE('',#784,0.0005);
#526=CIRCLE('',#785,0.0005);
#527=CIRCLE('',#786,0.0005);
#528=CIRCLE('',#787,0.0005);
#529=CIRCLE('',#790,0.002);
#530=CIRCLE('',#791,0.002);
#531=CIRCLE('',#792,0.002);
#532=CIRCLE('',#793,0.002);
#533=CIRCLE('',#797,0.002);
#534=CIRCLE('',#798,0.002);
#535=CIRCLE('',#799,0.002);
#536=CIRCLE('',#800,0.002);
#537=CIRCLE('',#806,0.0005);
#538=CIRCLE('',#808,0.0005);
#539=CIRCLE('',#809,0.0005);
#540=CIRCLE('',#811,0.0005);
#541=CIRCLE('',#813,0.0005);
#542=CIRCLE('',#815,0.0005);
#543=CIRCLE('',#817,0.0005);
#544=CIRCLE('',#819,0.0005);
#545=CIRCLE('',#821,0.0005);
#546=CIRCLE('',#823,0.0005);
#547=CIRCLE('',#825,0.0005);
#548=CIRCLE('',#827,0.0005);
#549=EDGE_LOOP('',(#155));
#550=EDGE_LOOP('',(#156,#157,#158,#159));
#551=EDGE_LOOP('',(#160,#161,#162,#163));
#552=EDGE_LOOP('',(#164,#165,#166,#167));
#553=EDGE_LOOP('',(#168,#169,#170,#171));
#554=EDGE_LOOP('',(#172,#173,#174,#175));
#555=EDGE_LOOP('',(#176,#177,#178,#179,#180,#181,#182,#183));
#556=EDGE_LOOP('',(#184,#185,#186,#187));
#557=EDGE_LOOP('',(#188,#189,#190,#191));
#558=EDGE_LOOP('',(#192,#193,#194,#195));
#559=EDGE_LOOP('',(#196,#197,#198,#199));
#560=EDGE_LOOP('',(#200,#201,#202,#203));
#561=EDGE_LOOP('',(#204,#205,#206));
#562=EDGE_LOOP('',(#207,#208,#209,#210));
#563=EDGE_LOOP('',(#211,#212,#213));
#564=EDGE_LOOP('',(#214,#215,#216,#217));
#565=EDGE_LOOP('',(#218,#219,#220));
#566=EDGE_LOOP('',(#221,#222,#223,#224));
#567=EDGE_LOOP('',(#225,#226,#227));
#568=EDGE_LOOP('',(#228));
#569=EDGE_LOOP('',(#229));
#570=EDGE_LOOP('',(#230));
#571=EDGE_LOOP('',(#231,#232,#233,#234));
#572=EDGE_LOOP('',(#235,#236,#237,#238));
#573=EDGE_LOOP('',(#239,#240,#241,#242));
#574=EDGE_LOOP('',(#243,#244,#245,#246));
#575=EDGE_LOOP('',(#247,#248,#249,#250));
#576=EDGE_LOOP('',(#251,#252,#253,#254,#255,#256,#257,#258));
#577=EDGE_LOOP('',(#259,#260,#261,#262));
#578=EDGE_LOOP('',(#263,#264,#265,#266));
#579=EDGE_LOOP('',(#267,#268,#269,#270,#271,#272,#273,#274));
#580=EDGE_LOOP('',(#275,#276,#277,#278));
#581=EDGE_LOOP('',(#279,#280,#281,#282));
#582=EDGE_LOOP('',(#283,#284,#285,#286,#287,#288,#289,#290));
#583=EDGE_LOOP('',(#291,#292,#293,#294));
#584=EDGE_LOOP('',(#295,#296,#297,#298));
#585=EDGE_LOOP('',(#299,#300,#301,#302));
#586=EDGE_LOOP('',(#303,#304,#305,#306));
#587=EDGE_LOOP('',(#307,#308,#309,#310));
#588=EDGE_LOOP('',(#311,#312,#313));
#589=EDGE_LOOP('',(#314,#315,#316,#317));
#590=EDGE_LOOP('',(#318,#319,#320,#321));
#591=EDGE_LOOP('',(#322,#323,#324,#325));
#592=EDGE_LOOP('',(#326,#327,#328,#329));
#593=EDGE_LOOP('',(#330,#331,#332));
#594=EDGE_LOOP('',(#333,#334,#335));
#595=EDGE_LOOP('',(#336,#337,#338,#339));
#596=EDGE_LOOP('',(#340,#341,#342,#343));
#597=EDGE_LOOP('',(#344,#345,#346));
#598=EDGE_LOOP('',(#347,#348,#349,#350));
#599=FACE_BOUND('',#549,.T.);
#600=FACE_BOUND('',#550,.T.);
#601=FACE_BOUND('',#551,.T.);
#602=FACE_BOUND('',#552,.T.);
#603=FACE_BOUND('',#553,.T.);
#604=FACE_BOUND('',#554,.T.);
#605=FACE_BOUND('',#555,.T.);
#606=FACE_BOUND('',#556,.T.);
#607=FACE_BOUND('',#557,.T.);
#608=FACE_BOUND('',#558,.T.);
#609=FACE_BOUND('',#559,.T.);
#610=FACE_BOUND('',#560,.T.);
#611=FACE_BOUND('',#561,.T.);
#612=FACE_BOUND('',#562,.T.);
#613=FACE_BOUND('',#563,.T.);
#614=FACE_BOUND('',#564,.T.);
#615=FACE_BOUND('',#565,.T.);
#616=FACE_BOUND('',#566,.T.);
#617=FACE_BOUND('',#567,.T.);
#618=FACE_BOUND('',#568,.T.);
#619=FACE_BOUND('',#569,.T.);
#620=FACE_BOUND('',#570,.T.);
#621=FACE_BOUND('',#571,.T.);
#622=FACE_BOUND('',#572,.T.);
#623=FACE_BOUND('',#573,.T.);
#624=FACE_BOUND('',#574,.T.);
#625=FACE_BOUND('',#575,.T.);
#626=FACE_BOUND('',#576,.T.);
#627=FACE_BOUND('',#577,.T.);
#628=FACE_BOUND('',#578,.T.);
#629=FACE_BOUND('',#579,.T.);
#630=FACE_BOUND('',#580,.T.);
#631=FACE_BOUND('',#581,.T.);
#632=FACE_BOUND('',#582,.T.);
#633=FACE_BOUND('',#583,.T.);
#634=FACE_BOUND('',#584,.T.);
#635=FACE_BOUND('',#585,.T.);
#636=FACE_BOUND('',#586,.T.);
#637=FACE_BOUND('',#587,.T.);
#638=FACE_BOUND('',#588,.T.);
#639=FACE_BOUND('',#589,.T.);
#640=FACE_BOUND('',#590,.T.);
#641=FACE_BOUND('',#591,.T.);
#642=FACE_BOUND('',#592,.T.);
#643=FACE_BOUND('',#593,.T.);
#644=FACE_BOUND('',#594,.T.);
#645=FACE_BOUND('',#595,.T.);
#646=FACE_BOUND('',#596,.T.);
#647=FACE_BOUND('',#597,.T.);
#648=FACE_BOUND('',#598,.T.);
#649=PLANE('',#739);
#650=PLANE('',#741);
#651=PLANE('',#742);
#652=PLANE('',#743);
#653=PLANE('',#744);
#654=PLANE('',#745);
#655=PLANE('',#776);
#656=PLANE('',#778);
#657=PLANE('',#779);
#658=PLANE('',#780);
#659=PLANE('',#781);
#660=PLANE('',#782);
#661=PLANE('',#783);
#662=PLANE('',#788);
#663=PLANE('',#789);
#664=PLANE('',#794);
#665=PLANE('',#795);
#666=PLANE('',#796);
#667=ADVANCED_FACE('',(#599,#600),#649,.F.);
#668=ADVANCED_FACE('',(#601),#650,.T.);
#669=ADVANCED_FACE('',(#602),#651,.F.);
#670=ADVANCED_FACE('',(#603),#652,.F.);
#671=ADVANCED_FACE('',(#604),#653,.F.);
#672=ADVANCED_FACE('',(#605),#654,.F.);
#673=ADVANCED_FACE('',(#606),#22,.T.);
#674=ADVANCED_FACE('',(#607),#23,.T.);
#675=ADVANCED_FACE('',(#608),#24,.T.);
#676=ADVANCED_FACE('',(#609),#25,.T.);
#677=ADVANCED_FACE('',(#610),#26,.T.);
#678=ADVANCED_FACE('',(#611),#14,.T.);
#679=ADVANCED_FACE('',(#612),#27,.T.);
#680=ADVANCED_FACE('',(#613),#15,.T.);
#681=ADVANCED_FACE('',(#614),#28,.T.);
#682=ADVANCED_FACE('',(#615),#16,.T.);
#683=ADVANCED_FACE('',(#616),#29,.T.);
#684=ADVANCED_FACE('',(#617),#17,.T.);
#685=ADVANCED_FACE('',(#618,#619),#30,.F.);
#686=ADVANCED_FACE('',(#620),#655,.T.);
#687=ADVANCED_FACE('',(#621),#656,.F.);
#688=ADVANCED_FACE('',(#622),#657,.F.);
#689=ADVANCED_FACE('',(#623),#658,.F.);
#690=ADVANCED_FACE('',(#624),#659,.T.);
#691=ADVANCED_FACE('',(#625),#660,.F.);
#692=ADVANCED_FACE('',(#626),#661,.F.);
#693=ADVANCED_FACE('',(#627),#662,.F.);
#694=ADVANCED_FACE('',(#628,#629),#663,.F.);
#695=ADVANCED_FACE('',(#630),#664,.T.);
#696=ADVANCED_FACE('',(#631),#665,.F.);
#697=ADVANCED_FACE('',(#632),#666,.T.);
#698=ADVANCED_FACE('',(#633),#31,.T.);
#699=ADVANCED_FACE('',(#634),#32,.T.);
#700=ADVANCED_FACE('',(#635),#33,.T.);
#701=ADVANCED_FACE('',(#636),#34,.T.);
#702=ADVANCED_FACE('',(#637),#35,.T.);
#703=ADVANCED_FACE('',(#638),#18,.T.);
#704=ADVANCED_FACE('',(#639),#36,.T.);
#705=ADVANCED_FACE('',(#640),#37,.T.);
#706=ADVANCED_FACE('',(#641),#38,.T.);
#707=ADVANCED_FACE('',(#642),#39,.T.);
#708=ADVANCED_FACE('',(#643),#19,.T.);
#709=ADVANCED_FACE('',(#644),#20,.T.);
#710=ADVANCED_FACE('',(#645),#40,.T.);
#711=ADVANCED_FACE('',(#646),#41,.T.);
#712=ADVANCED_FACE('',(#647),#21,.T.);
#713=ADVANCED_FACE('',(#648),#42,.T.);
#714=CLOSED_SHELL('',(#667,#668,#669,#670,#671,#672,#673,#674,#675,#676,
#677,#678,#679,#680,#681,#682,#683,#684,#685,#686));
#715=CLOSED_SHELL('',(#687,#688,#689,#690,#691,#692,#693,#694,#695,#696,
#697,#698,#699,#700,#701,#702,#703,#704,#705,#706,#707,#708,#709,#710,#711,
#712,#713));
#716=STYLED_ITEM('',(#718),#732);
#717=STYLED_ITEM('',(#719),#733);
#718=PRESENTATION_STYLE_ASSIGNMENT((#720));
#719=PRESENTATION_STYLE_ASSIGNMENT((#721));
#720=SURFACE_STYLE_USAGE(.BOTH.,#722);
#721=SURFACE_STYLE_USAGE(.BOTH.,#723);
#722=SURFACE_SIDE_STYLE('',(#724));
#723=SURFACE_SIDE_STYLE('',(#725));
#724=SURFACE_STYLE_FILL_AREA(#726);
#725=SURFACE_STYLE_FILL_AREA(#727);
#726=FILL_AREA_STYLE('',(#728));
#727=FILL_AREA_STYLE('',(#729));
#728=FILL_AREA_STYLE_COLOUR('',#730);
#729=FILL_AREA_STYLE_COLOUR('',#731);
#730=COLOUR_RGB('',0.713725490196078,0.76078431372549,0.8);
#731=COLOUR_RGB('',0.262745098039216,0.282352941176471,0.301960784313725);
#732=MANIFOLD_SOLID_BREP('Part 2',#714);
#733=MANIFOLD_SOLID_BREP('Part 1',#715);
#734=SHAPE_DEFINITION_REPRESENTATION(#1284,#736);
#735=SHAPE_DEFINITION_REPRESENTATION(#1285,#737);
#736=SHAPE_REPRESENTATION('Part 2',(#738),#1274);
#737=SHAPE_REPRESENTATION('Part 1',(#777),#1275);
#738=AXIS2_PLACEMENT_3D('',#1067,#829,#830);
#739=AXIS2_PLACEMENT_3D('',#1068,#831,#832);
#740=AXIS2_PLACEMENT_3D('',#1069,#833,#834);
#741=AXIS2_PLACEMENT_3D('',#1079,#839,#840);
#742=AXIS2_PLACEMENT_3D('',#1088,#845,#846);
#743=AXIS2_PLACEMENT_3D('',#1097,#851,#852);
#744=AXIS2_PLACEMENT_3D('',#1106,#857,#858);
#745=AXIS2_PLACEMENT_3D('',#1115,#863,#864);
#746=AXIS2_PLACEMENT_3D('',#1116,#865,#866);
#747=AXIS2_PLACEMENT_3D('',#1117,#867,#868);
#748=AXIS2_PLACEMENT_3D('',#1118,#869,#870);
#749=AXIS2_PLACEMENT_3D('',#1119,#871,#872);
#750=AXIS2_PLACEMENT_3D('',#1120,#873,#874);
#751=AXIS2_PLACEMENT_3D('',#1121,#875,#876);
#752=AXIS2_PLACEMENT_3D('',#1122,#877,#878);
#753=AXIS2_PLACEMENT_3D('',#1123,#879,#880);
#754=AXIS2_PLACEMENT_3D('',#1124,#881,#882);
#755=AXIS2_PLACEMENT_3D('',#1125,#883,#884);
#756=AXIS2_PLACEMENT_3D('',#1126,#885,#886);
#757=AXIS2_PLACEMENT_3D('',#1127,#887,#888);
#758=AXIS2_PLACEMENT_3D('',#1128,#889,#890);
#759=AXIS2_PLACEMENT_3D('',#1129,#891,#892);
#760=AXIS2_PLACEMENT_3D('',#1130,#893,#894);
#761=AXIS2_PLACEMENT_3D('',#1131,#895,#896);
#762=AXIS2_PLACEMENT_3D('',#1132,#897,#898);
#763=AXIS2_PLACEMENT_3D('',#1133,#899,#900);
#764=AXIS2_PLACEMENT_3D('',#1134,#901,#902);
#765=AXIS2_PLACEMENT_3D('',#1135,#903,#904);
#766=AXIS2_PLACEMENT_3D('',#1136,#905,#906);
#767=AXIS2_PLACEMENT_3D('',#1137,#907,#908);
#768=AXIS2_PLACEMENT_3D('',#1138,#909,#910);
#769=AXIS2_PLACEMENT_3D('',#1139,#911,#912);
#770=AXIS2_PLACEMENT_3D('',#1140,#913,#914);
#771=AXIS2_PLACEMENT_3D('',#1141,#915,#916);
#772=AXIS2_PLACEMENT_3D('',#1142,#917,#918);
#773=AXIS2_PLACEMENT_3D('',#1143,#919,#920);
#774=AXIS2_PLACEMENT_3D('',#1144,#921,#922);
#775=AXIS2_PLACEMENT_3D('',#1145,#923,#924);
#776=AXIS2_PLACEMENT_3D('',#1147,#925,#926);
#777=AXIS2_PLACEMENT_3D('',#1148,#927,#928);
#778=AXIS2_PLACEMENT_3D('',#1149,#929,#930);
#779=AXIS2_PLACEMENT_3D('',#1158,#935,#936);
#780=AXIS2_PLACEMENT_3D('',#1167,#941,#942);
#781=AXIS2_PLACEMENT_3D('',#1176,#947,#948);
#782=AXIS2_PLACEMENT_3D('',#1185,#953,#954);
#783=AXIS2_PLACEMENT_3D('',#1194,#959,#960);
#784=AXIS2_PLACEMENT_3D('',#1198,#962,#963);
#785=AXIS2_PLACEMENT_3D('',#1202,#965,#966);
#786=AXIS2_PLACEMENT_3D('',#1203,#967,#968);
#787=AXIS2_PLACEMENT_3D('',#1207,#970,#971);
#788=AXIS2_PLACEMENT_3D('',#1208,#972,#973);
#789=AXIS2_PLACEMENT_3D('',#1214,#977,#978);
#790=AXIS2_PLACEMENT_3D('',#1223,#983,#984);
#791=AXIS2_PLACEMENT_3D('',#1224,#985,#986);
#792=AXIS2_PLACEMENT_3D('',#1225,#987,#988);
#793=AXIS2_PLACEMENT_3D('',#1226,#989,#990);
#794=AXIS2_PLACEMENT_3D('',#1227,#991,#992);
#795=AXIS2_PLACEMENT_3D('',#1233,#996,#997);
#796=AXIS2_PLACEMENT_3D('',#1239,#1001,#1002);
#797=AXIS2_PLACEMENT_3D('',#1240,#1003,#1004);
#798=AXIS2_PLACEMENT_3D('',#1241,#1005,#1006);
#799=AXIS2_PLACEMENT_3D('',#1242,#1007,#1008);
#800=AXIS2_PLACEMENT_3D('',#1243,#1009,#1010);
#801=AXIS2_PLACEMENT_3D('',#1244,#1011,#1012);
#802=AXIS2_PLACEMENT_3D('',#1245,#1013,#1014);
#803=AXIS2_PLACEMENT_3D('',#1246,#1015,#1016);
#804=AXIS2_PLACEMENT_3D('',#1247,#1017,#1018);
#805=AXIS2_PLACEMENT_3D('',#1248,#1019,#1020);
#806=AXIS2_PLACEMENT_3D('',#1249,#1021,#1022);
#807=AXIS2_PLACEMENT_3D('',#1250,#1023,#1024);
#808=AXIS2_PLACEMENT_3D('',#1251,#1025,#1026);
#809=AXIS2_PLACEMENT_3D('',#1252,#1027,#1028);
#810=AXIS2_PLACEMENT_3D('',#1253,#1029,#1030);
#811=AXIS2_PLACEMENT_3D('',#1254,#1031,#1032);
#812=AXIS2_PLACEMENT_3D('',#1255,#1033,#1034);
#813=AXIS2_PLACEMENT_3D('',#1256,#1035,#1036);
#814=AXIS2_PLACEMENT_3D('',#1257,#1037,#1038);
#815=AXIS2_PLACEMENT_3D('',#1258,#1039,#1040);
#816=AXIS2_PLACEMENT_3D('',#1259,#1041,#1042);
#817=AXIS2_PLACEMENT_3D('',#1260,#1043,#1044);
#818=AXIS2_PLACEMENT_3D('',#1261,#1045,#1046);
#819=AXIS2_PLACEMENT_3D('',#1262,#1047,#1048);
#820=AXIS2_PLACEMENT_3D('',#1263,#1049,#1050);
#821=AXIS2_PLACEMENT_3D('',#1264,#1051,#1052);
#822=AXIS2_PLACEMENT_3D('',#1265,#1053,#1054);
#823=AXIS2_PLACEMENT_3D('',#1266,#1055,#1056);
#824=AXIS2_PLACEMENT_3D('',#1267,#1057,#1058);
#825=AXIS2_PLACEMENT_3D('',#1268,#1059,#1060);
#826=AXIS2_PLACEMENT_3D('',#1269,#1061,#1062);
#827=AXIS2_PLACEMENT_3D('',#1270,#1063,#1064);
#828=AXIS2_PLACEMENT_3D('',#1271,#1065,#1066);
#829=DIRECTION('',(0.,0.,1.));
#830=DIRECTION('',(1.,0.,0.));
#831=DIRECTION('',(1.020425574104E-16,0.,-1.));
#832=DIRECTION('',(-1.,0.,-1.020425574104E-16));
#833=DIRECTION('',(-1.020425574104E-16,0.,1.));
#834=DIRECTION('',(1.,0.,1.020425574104E-16));
#835=DIRECTION('',(0.,1.,0.));
#836=DIRECTION('',(1.,0.,1.020425574104E-16));
#837=DIRECTION('',(0.,1.,0.));
#838=DIRECTION('',(1.,0.,1.020425574104E-16));
#839=DIRECTION('',(0.,-1.,0.));
#840=DIRECTION('',(0.,0.,-1.));
#841=DIRECTION('',(1.,0.,1.020425574104E-16));
#842=DIRECTION('',(0.,0.,-1.));
#843=DIRECTION('',(-1.,0.,0.));
#844=DIRECTION('',(0.,0.,-1.));
#845=DIRECTION('',(0.,-1.,0.));
#846=DIRECTION('',(0.,0.,-1.));
#847=DIRECTION('',(1.,0.,1.020425574104E-16));
#848=DIRECTION('',(0.,0.,-1.));
#849=DIRECTION('',(-1.,0.,0.));
#850=DIRECTION('',(0.,0.,-1.));
#851=DIRECTION('',(1.,0.,0.));
#852=DIRECTION('',(0.,0.,-1.));
#853=DIRECTION('',(0.,1.,0.));
#854=DIRECTION('',(0.,0.,-1.));
#855=DIRECTION('',(0.,-1.,0.));
#856=DIRECTION('',(0.,0.,-1.));
#857=DIRECTION('',(-1.,0.,0.));
#858=DIRECTION('',(0.,0.,1.));
#859=DIRECTION('',(0.,1.,0.));
#860=DIRECTION('',(0.,0.,-1.));
#861=DIRECTION('',(0.,1.,0.));
#862=DIRECTION('',(0.,0.,-1.));
#863=DIRECTION('',(0.,0.,1.));
#864=DIRECTION('',(1.,0.,0.));
#865=DIRECTION('',(0.,0.,1.));
#866=DIRECTION('',(1.,0.,0.));
#867=DIRECTION('',(0.,0.,1.));
#868=DIRECTION('',(1.,0.,0.));
#869=DIRECTION('',(0.,0.,1.));
#870=DIRECTION('',(1.,0.,0.));
#871=DIRECTION('',(0.,0.,1.));
#872=DIRECTION('',(1.,0.,0.));
#873=DIRECTION('',(0.,1.,0.));
#874=DIRECTION('',(0.,0.,1.));
#875=DIRECTION('',(0.,1.,0.));
#876=DIRECTION('',(0.,0.,1.));
#877=DIRECTION('',(0.,1.,0.));
#878=DIRECTION('',(0.,0.,1.));
#879=DIRECTION('',(-1.,0.,-1.020425574104E-16));
#880=DIRECTION('',(-1.020425574104E-16,0.,1.));
#881=DIRECTION('',(-1.,0.,-1.020425574104E-16));
#882=DIRECTION('',(-1.020425574104E-16,0.,1.));
#883=DIRECTION('',(-1.,0.,-1.020425574104E-16));
#884=DIRECTION('',(-1.020425574104E-16,0.,1.));
#885=DIRECTION('',(1.,0.,1.020425574104E-16));
#886=DIRECTION('',(1.020425574104E-16,0.,-1.));
#887=DIRECTION('',(1.,0.,1.020425574104E-16));
#888=DIRECTION('',(1.020425574104E-16,0.,-1.));
#889=DIRECTION('',(1.,0.,1.020425574104E-16));
#890=DIRECTION('',(1.020425574104E-16,0.,-1.));
#891=DIRECTION('',(0.,1.,0.));
#892=DIRECTION('',(0.,0.,1.));
#893=DIRECTION('',(0.,1.,0.));
#894=DIRECTION('',(0.,0.,1.));
#895=DIRECTION('',(0.,1.,0.));
#896=DIRECTION('',(0.,0.,1.));
#897=DIRECTION('',(0.,0.,-1.));
#898=DIRECTION('',(-1.,0.,0.));
#899=DIRECTION('',(0.,0.,1.));
#900=DIRECTION('',(1.,0.,0.));
#901=DIRECTION('',(0.,0.,1.));
#902=DIRECTION('',(1.,0.,0.));
#903=DIRECTION('',(0.,0.,-1.));
#904=DIRECTION('',(-1.,0.,0.));
#905=DIRECTION('',(0.,0.,1.));
#906=DIRECTION('',(1.,0.,0.));
#907=DIRECTION('',(0.,0.,1.));
#908=DIRECTION('',(1.,0.,0.));
#909=DIRECTION('',(0.,0.,1.));
#910=DIRECTION('',(1.,0.,0.));
#911=DIRECTION('',(0.,0.,1.));
#912=DIRECTION('',(1.,0.,0.));
#913=DIRECTION('',(0.,0.,1.));
#914=DIRECTION('',(1.,0.,0.));
#915=DIRECTION('',(0.,0.,1.));
#916=DIRECTION('',(1.,0.,0.));
#917=DIRECTION('',(0.,0.,1.));
#918=DIRECTION('',(1.,0.,0.));
#919=DIRECTION('',(0.,0.,1.));
#920=DIRECTION('',(1.,0.,0.));
#921=DIRECTION('',(-1.020425574104E-16,0.,1.));
#922=DIRECTION('',(1.,0.,1.020425574104E-16));
#923=DIRECTION('',(-1.020425574104E-16,0.,1.));
#924=DIRECTION('',(1.,0.,1.020425574104E-16));
#925=DIRECTION('',(-1.020425574104E-16,0.,1.));
#926=DIRECTION('',(1.,0.,1.020425574104E-16));
#927=DIRECTION('',(0.,0.,1.));
#928=DIRECTION('',(1.,0.,0.));
#929=DIRECTION('',(-1.,0.,0.));
#930=DIRECTION('',(0.,0.,1.));
#931=DIRECTION('',(0.,1.,0.));
#932=DIRECTION('',(0.,0.,-1.));
#933=DIRECTION('',(0.,1.,0.));
#934=DIRECTION('',(0.,0.,-1.));
#935=DIRECTION('',(1.,0.,0.));
#936=DIRECTION('',(0.,0.,-1.));
#937=DIRECTION('',(0.,-1.,0.));
#938=DIRECTION('',(0.,0.,-1.));
#939=DIRECTION('',(0.,1.,0.));
#940=DIRECTION('',(0.,0.,-1.));
#941=DIRECTION('',(0.,-1.,0.));
#942=DIRECTION('',(0.,0.,-1.));
#943=DIRECTION('',(-1.,0.,0.));
#944=DIRECTION('',(0.,0.,-1.));
#945=DIRECTION('',(1.,0.,0.));
#946=DIRECTION('',(0.,0.,-1.));
#947=DIRECTION('',(0.,-1.,0.));
#948=DIRECTION('',(0.,0.,-1.));
#949=DIRECTION('',(-1.,0.,0.));
#950=DIRECTION('',(0.,0.,-1.));
#951=DIRECTION('',(1.,0.,0.));
#952=DIRECTION('',(0.,0.,-1.));
#953=DIRECTION('',(1.,0.,0.));
#954=DIRECTION('',(0.,0.,-1.));
#955=DIRECTION('',(0.,1.,0.));
#956=DIRECTION('',(0.,0.,-1.));
#957=DIRECTION('',(0.,1.,0.));
#958=DIRECTION('',(0.,0.,-1.));
#959=DIRECTION('',(0.,0.,1.));
#960=DIRECTION('',(1.,0.,0.));
#961=DIRECTION('',(0.,1.,0.));
#962=DIRECTION('',(0.,0.,1.));
#963=DIRECTION('',(1.,0.,0.));
#964=DIRECTION('',(1.,0.,0.));
#965=DIRECTION('',(0.,0.,1.));
#966=DIRECTION('',(1.,0.,0.));
#967=DIRECTION('',(0.,0.,1.));
#968=DIRECTION('',(1.,0.,0.));
#969=DIRECTION('',(1.,0.,0.));
#970=DIRECTION('',(0.,0.,1.));
#971=DIRECTION('',(1.,0.,0.));
#972=DIRECTION('',(-1.,0.,0.));
#973=DIRECTION('',(0.,0.,1.));
#974=DIRECTION('',(0.,1.,0.));
#975=DIRECTION('',(0.,0.,1.));
#976=DIRECTION('',(0.,0.,1.));
#977=DIRECTION('',(0.,0.,-1.));
#978=DIRECTION('',(-1.,0.,0.));
#979=DIRECTION('',(-1.,0.,0.));
#980=DIRECTION('',(0.,1.,0.));
#981=DIRECTION('',(-1.,0.,0.));
#982=DIRECTION('',(0.,1.,0.));
#983=DIRECTION('',(0.,0.,-1.));
#984=DIRECTION('',(-1.,0.,0.));
#985=DIRECTION('',(0.,0.,-1.));
#986=DIRECTION('',(-1.,0.,0.));
#987=DIRECTION('',(0.,0.,-1.));
#988=DIRECTION('',(-1.,0.,0.));
#989=DIRECTION('',(0.,0.,-1.));
#990=DIRECTION('',(-1.,0.,0.));
#991=DIRECTION('',(0.,-1.,0.));
#992=DIRECTION('',(1.,0.,0.));
#993=DIRECTION('',(0.,0.,1.));
#994=DIRECTION('',(-1.,0.,0.));
#995=DIRECTION('',(0.,0.,-1.));
#996=DIRECTION('',(0.,-1.,0.));
#997=DIRECTION('',(1.,0.,0.));
#998=DIRECTION('',(-1.,0.,0.));
#999=DIRECTION('',(0.,0.,1.));
#1000=DIRECTION('',(0.,0.,-1.));
#1001=DIRECTION('',(0.,0.,1.));
#1002=DIRECTION('',(1.,0.,0.));
#1003=DIRECTION('',(0.,0.,1.));
#1004=DIRECTION('',(1.,0.,0.));
#1005=DIRECTION('',(0.,0.,1.));
#1006=DIRECTION('',(1.,0.,0.));
#1007=DIRECTION('',(0.,0.,1.));
#1008=DIRECTION('',(1.,0.,0.));
#1009=DIRECTION('',(0.,0.,1.));
#1010=DIRECTION('',(1.,0.,0.));
#1011=DIRECTION('',(0.,0.,-1.));
#1012=DIRECTION('',(-1.,0.,0.));
#1013=DIRECTION('',(0.,0.,-1.));
#1014=DIRECTION('',(-1.,0.,0.));
#1015=DIRECTION('',(0.,0.,1.));
#1016=DIRECTION('',(1.,0.,0.));
#1017=DIRECTION('',(0.,0.,1.));
#1018=DIRECTION('',(1.,0.,0.));
#1019=DIRECTION('',(0.,0.,-1.));
#1020=DIRECTION('',(-1.,0.,0.));
#1021=DIRECTION('',(0.,0.,1.));
#1022=DIRECTION('',(1.,0.,0.));
#1023=DIRECTION('',(-1.,0.,0.));
#1024=DIRECTION('',(0.,0.,1.));
#1025=DIRECTION('',(-1.,0.,0.));
#1026=DIRECTION('',(0.,0.,1.));
#1027=DIRECTION('',(0.,1.,0.));
#1028=DIRECTION('',(0.,0.,1.));
#1029=DIRECTION('',(0.,0.,1.));
#1030=DIRECTION('',(1.,0.,0.));
#1031=DIRECTION('',(0.,0.,1.));
#1032=DIRECTION('',(1.,0.,0.));
#1033=DIRECTION('',(0.,1.,0.));
#1034=DIRECTION('',(0.,0.,1.));
#1035=DIRECTION('',(0.,-1.,0.));
#1036=DIRECTION('',(0.,0.,-1.));
#1037=DIRECTION('',(-1.,0.,0.));
#1038=DIRECTION('',(0.,0.,1.));
#1039=DIRECTION('',(1.,0.,1.38777878078144E-14));
#1040=DIRECTION('',(1.38777878078144E-14,0.,-1.));
#1041=DIRECTION('',(0.,0.,1.));
#1042=DIRECTION('',(1.,0.,0.));
#1043=DIRECTION('',(0.,0.,1.));
#1044=DIRECTION('',(1.,0.,0.));
#1045=DIRECTION('',(-1.,0.,0.));
#1046=DIRECTION('',(0.,0.,1.));
#1047=DIRECTION('',(-1.,0.,0.));
#1048=DIRECTION('',(0.,0.,1.));
#1049=DIRECTION('',(0.,1.,0.));
#1050=DIRECTION('',(0.,0.,1.));
#1051=DIRECTION('',(0.,1.,0.));
#1052=DIRECTION('',(0.,0.,1.));
#1053=DIRECTION('',(1.,0.,0.));
#1054=DIRECTION('',(0.,0.,-1.));
#1055=DIRECTION('',(1.,1.38777878078144E-14,0.));
#1056=DIRECTION('',(-1.38777878078144E-14,1.,0.));
#1057=DIRECTION('',(0.,1.,0.));
#1058=DIRECTION('',(0.,0.,1.));
#1059=DIRECTION('',(0.,-1.,0.));
#1060=DIRECTION('',(0.,0.,-1.));
#1061=DIRECTION('',(-1.38777878078144E-14,0.,1.));
#1062=DIRECTION('',(1.,0.,1.38777878078144E-14));
#1063=DIRECTION('',(0.,0.,1.));
#1064=DIRECTION('',(1.,0.,0.));
#1065=DIRECTION('',(0.,0.,-1.));
#1066=DIRECTION('',(-1.,0.,0.));
#1067=CARTESIAN_POINT('',(0.,0.,0.));
#1068=CARTESIAN_POINT('',(0.,-0.055,0.022));
#1069=CARTESIAN_POINT('',(0.0265,0.045,0.022));
#1070=CARTESIAN_POINT('',(0.02825,0.045,0.022));
#1071=CARTESIAN_POINT('',(0.032,-0.055,0.022));
#1072=CARTESIAN_POINT('',(0.032,-0.0505,0.022));
#1073=CARTESIAN_POINT('',(0.032,0.0505,0.022));
#1074=CARTESIAN_POINT('',(0.,0.0505,0.022));
#1075=CARTESIAN_POINT('',(-0.032,0.0505,0.022));
#1076=CARTESIAN_POINT('',(-0.032,-0.055,0.022));
#1077=CARTESIAN_POINT('',(-0.032,-0.0505,0.022));
#1078=CARTESIAN_POINT('',(0.034,-0.0505,0.022));
#1079=CARTESIAN_POINT('',(-0.036,-0.0525,0.015));
#1080=CARTESIAN_POINT('',(-0.034,-0.0525,0.02));
#1081=CARTESIAN_POINT('',(0.032,-0.0525,0.02));
#1082=CARTESIAN_POINT('',(-0.032,-0.0525,0.02));
#1083=CARTESIAN_POINT('',(-0.032,-0.0525,0.00801));
#1084=CARTESIAN_POINT('',(-0.032,-0.0525,0.00801));
#1085=CARTESIAN_POINT('',(-0.036,-0.0525,0.00801));
#1086=CARTESIAN_POINT('',(0.032,-0.0525,0.00801));
#1087=CARTESIAN_POINT('',(0.032,-0.0525,0.02));
#1088=CARTESIAN_POINT('',(-0.036,0.0525,0.015));
#1089=CARTESIAN_POINT('',(-0.036,0.0525,0.02));
#1090=CARTESIAN_POINT('',(-0.032,0.0525,0.02));
#1091=CARTESIAN_POINT('',(0.032,0.0525,0.02));
#1092=CARTESIAN_POINT('',(0.032,0.0525,0.015));
#1093=CARTESIAN_POINT('',(0.032,0.0525,0.00801));
#1094=CARTESIAN_POINT('',(-0.036,0.0525,0.00801));
#1095=CARTESIAN_POINT('',(-0.032,0.0525,0.00801));
#1096=CARTESIAN_POINT('',(-0.032,0.0525,0.015));
#1097=CARTESIAN_POINT('',(-0.034,-0.055,0.015));
#1098=CARTESIAN_POINT('',(-0.034,-0.055,0.02));
#1099=CARTESIAN_POINT('',(-0.034,-0.0505,0.02));
#1100=CARTESIAN_POINT('',(-0.034,0.0505,0.02));
#1101=CARTESIAN_POINT('',(-0.034,0.0505,0.015));
#1102=CARTESIAN_POINT('',(-0.034,0.0505,0.00801));
#1103=CARTESIAN_POINT('',(-0.034,-0.055,0.00801));
#1104=CARTESIAN_POINT('',(-0.034,-0.0505,0.00801));
#1105=CARTESIAN_POINT('',(-0.034,-0.0505,0.02));
#1106=CARTESIAN_POINT('',(0.034,-0.055,0.015));
#1107=CARTESIAN_POINT('',(0.034,-0.055,0.00801));
#1108=CARTESIAN_POINT('',(0.034,-0.0505,0.00801));
#1109=CARTESIAN_POINT('',(0.034,0.0505,0.00801));
#1110=CARTESIAN_POINT('',(0.034,0.0505,0.015));
#1111=CARTESIAN_POINT('',(0.034,0.0505,0.02));
#1112=CARTESIAN_POINT('',(0.034,-0.055,0.02));
#1113=CARTESIAN_POINT('',(0.034,-0.0505,0.02));
#1114=CARTESIAN_POINT('',(0.034,-0.0505,0.00801));
#1115=CARTESIAN_POINT('',(0.,0.,0.00801));
#1116=CARTESIAN_POINT('',(0.032,0.0505,0.00801));
#1117=CARTESIAN_POINT('',(0.032,-0.0505,0.00801));
#1118=CARTESIAN_POINT('',(-0.032,-0.0505,0.00801));
#1119=CARTESIAN_POINT('',(-0.032,0.0505,0.00801));
#1120=CARTESIAN_POINT('',(0.032,-0.055,0.02));
#1121=CARTESIAN_POINT('',(0.032,0.0505,0.02));
#1122=CARTESIAN_POINT('',(0.032,-0.0505,0.02));
#1123=CARTESIAN_POINT('',(2.04085114820801E-19,-0.0505,0.02));
#1124=CARTESIAN_POINT('',(-0.032,-0.0505,0.02));
#1125=CARTESIAN_POINT('',(0.032,-0.0505,0.02));
#1126=CARTESIAN_POINT('',(-0.036,0.0505,0.02));
#1127=CARTESIAN_POINT('',(0.032,0.0505,0.02));
#1128=CARTESIAN_POINT('',(-0.032,0.0505,0.02));
#1129=CARTESIAN_POINT('',(-0.032,-0.055,0.02));
#1130=CARTESIAN_POINT('',(-0.032,0.0505,0.02));
#1131=CARTESIAN_POINT('',(-0.032,-0.0505,0.02));
#1132=CARTESIAN_POINT('',(0.032,0.0505,0.015));
#1133=CARTESIAN_POINT('',(0.032,0.0505,0.02));
#1134=CARTESIAN_POINT('',(0.032,0.0505,0.02));
#1135=CARTESIAN_POINT('',(-0.032,0.0505,0.015));
#1136=CARTESIAN_POINT('',(-0.032,0.0505,0.02));
#1137=CARTESIAN_POINT('',(-0.032,0.0505,0.02));
#1138=CARTESIAN_POINT('',(-0.032,-0.0505,0.015));
#1139=CARTESIAN_POINT('',(-0.032,-0.0505,0.02));
#1140=CARTESIAN_POINT('',(-0.032,-0.0505,0.02));
#1141=CARTESIAN_POINT('',(0.032,-0.0505,0.015));
#1142=CARTESIAN_POINT('',(0.032,-0.0505,0.02));
#1143=CARTESIAN_POINT('',(0.032,-0.0505,0.02));
#1144=CARTESIAN_POINT('',(0.0265,0.045,0.015));
#1145=CARTESIAN_POINT('',(0.0265,0.045,0.015));
#1146=CARTESIAN_POINT('',(0.02825,0.045,0.015));
#1147=CARTESIAN_POINT('',(-1.530638361156E-18,0.,0.015));
#1148=CARTESIAN_POINT('',(0.,0.,0.));
#1149=CARTESIAN_POINT('',(0.034,-0.055,0.015));
#1150=CARTESIAN_POINT('',(0.034,-0.055,0.008));
#1151=CARTESIAN_POINT('',(0.034,-0.0505,0.008));
#1152=CARTESIAN_POINT('',(0.034,0.0505,0.008));
#1153=CARTESIAN_POINT('',(0.034,0.0505,0.015));
#1154=CARTESIAN_POINT('',(0.034,0.0505,0.00801));
#1155=CARTESIAN_POINT('',(0.034,-0.055,0.00801));
#1156=CARTESIAN_POINT('',(0.034,-0.0505,0.00801));
#1157=CARTESIAN_POINT('',(0.034,-0.0505,0.008));
#1158=CARTESIAN_POINT('',(-0.034,-0.055,0.015));
#1159=CARTESIAN_POINT('',(-0.034,-0.055,0.00801));
#1160=CARTESIAN_POINT('',(-0.034,0.0505,0.00801));
#1161=CARTESIAN_POINT('',(-0.034,-0.0505,0.00801));
#1162=CARTESIAN_POINT('',(-0.034,0.0505,0.015));
#1163=CARTESIAN_POINT('',(-0.034,0.0505,0.008));
#1164=CARTESIAN_POINT('',(-0.034,-0.055,0.008));
#1165=CARTESIAN_POINT('',(-0.034,-0.0505,0.008));
#1166=CARTESIAN_POINT('',(-0.034,-0.0505,0.00801));
#1167=CARTESIAN_POINT('',(-0.036,0.0525,0.015));
#1168=CARTESIAN_POINT('',(-0.036,0.0525,0.00801));
#1169=CARTESIAN_POINT('',(0.032,0.0525,0.00801));
#1170=CARTESIAN_POINT('',(-0.032,0.0525,0.00801));
#1171=CARTESIAN_POINT('',(0.032,0.0525,0.015));
#1172=CARTESIAN_POINT('',(0.032,0.0525,0.008));
#1173=CARTESIAN_POINT('',(-0.036,0.0525,0.008));
#1174=CARTESIAN_POINT('',(-0.032,0.0525,0.008));
#1175=CARTESIAN_POINT('',(-0.032,0.0525,0.015));
#1176=CARTESIAN_POINT('',(-0.036,-0.0525,0.015));
#1177=CARTESIAN_POINT('',(-0.036,-0.0525,0.00801));
#1178=CARTESIAN_POINT('',(0.032,-0.0525,0.00801));
#1179=CARTESIAN_POINT('',(-0.032,-0.0525,0.00801));
#1180=CARTESIAN_POINT('',(-0.032,-0.0525,0.008));
#1181=CARTESIAN_POINT('',(-0.032,-0.0525,0.008));
#1182=CARTESIAN_POINT('',(-0.036,-0.0525,0.008));
#1183=CARTESIAN_POINT('',(0.032,-0.0525,0.008));
#1184=CARTESIAN_POINT('',(0.032,-0.0525,0.00801));
#1185=CARTESIAN_POINT('',(-0.04,-0.055,0.004));
#1186=CARTESIAN_POINT('',(-0.04,-0.055,0.));
#1187=CARTESIAN_POINT('',(-0.04,-0.0545,0.));
#1188=CARTESIAN_POINT('',(-0.04,0.0545,0.));
#1189=CARTESIAN_POINT('',(-0.04,-0.0545,0.008));
#1190=CARTESIAN_POINT('',(-0.04,-0.0545,0.0075));
#1191=CARTESIAN_POINT('',(-0.04,-0.055,0.0075));
#1192=CARTESIAN_POINT('',(-0.04,0.0545,0.0075));
#1193=CARTESIAN_POINT('',(-0.04,0.0545,0.004));
#1194=CARTESIAN_POINT('',(0.,-0.055,0.));
#1195=CARTESIAN_POINT('',(0.04,-0.055,0.));
#1196=CARTESIAN_POINT('',(0.04,-0.0545,0.));
#1197=CARTESIAN_POINT('',(0.04,0.0545,0.));
#1198=CARTESIAN_POINT('',(0.0395,-0.0545,0.));
#1199=CARTESIAN_POINT('',(0.0395,-0.055,0.));
#1200=CARTESIAN_POINT('',(0.,-0.055,0.));
#1201=CARTESIAN_POINT('',(-0.0395,-0.055,0.));
#1202=CARTESIAN_POINT('',(-0.0395,-0.0545,0.));
#1203=CARTESIAN_POINT('',(-0.0395,0.0545,0.));
#1204=CARTESIAN_POINT('',(-0.0395,0.055,0.));
#1205=CARTESIAN_POINT('',(0.,0.055,0.));
#1206=CARTESIAN_POINT('',(0.0395,0.055,0.));
#1207=CARTESIAN_POINT('',(0.0395,0.0545,0.));
#1208=CARTESIAN_POINT('',(0.04,-0.055,0.004));
#1209=CARTESIAN_POINT('',(0.04,-0.055,0.0075));
#1210=CARTESIAN_POINT('',(0.04,0.0545,0.0075));
#1211=CARTESIAN_POINT('',(0.04,-0.0545,0.0075));
#1212=CARTESIAN_POINT('',(0.04,-0.0545,0.));
#1213=CARTESIAN_POINT('',(0.04,0.0545,0.004));
#1214=CARTESIAN_POINT('',(-0.037,-0.055,0.008));
#1215=CARTESIAN_POINT('',(0.04,-0.0545,0.008));
#1216=CARTESIAN_POINT('',(-0.0395,-0.0545,0.008));
#1217=CARTESIAN_POINT('',(0.0395,-0.0545,0.008));
#1218=CARTESIAN_POINT('',(0.0395,-0.055,0.008));
#1219=CARTESIAN_POINT('',(0.0395,0.0545,0.008));
#1220=CARTESIAN_POINT('',(-0.037,0.0545,0.008));
#1221=CARTESIAN_POINT('',(-0.0395,0.0545,0.008));
#1222=CARTESIAN_POINT('',(-0.0395,-0.055,0.008));
#1223=CARTESIAN_POINT('',(0.032,-0.0505,0.008));
#1224=CARTESIAN_POINT('',(-0.032,-0.0505,0.008));
#1225=CARTESIAN_POINT('',(-0.032,0.0505,0.008));
#1226=CARTESIAN_POINT('',(0.032,0.0505,0.008));
#1227=CARTESIAN_POINT('',(0.,-0.055,0.011));
#1228=CARTESIAN_POINT('',(0.0395,-0.055,0.008));
#1229=CARTESIAN_POINT('',(0.0395,-0.055,0.0075));
#1230=CARTESIAN_POINT('',(-0.04,-0.055,0.0075));
#1231=CARTESIAN_POINT('',(-0.0395,-0.055,0.0075));
#1232=CARTESIAN_POINT('',(-0.0395,-0.055,0.));
#1233=CARTESIAN_POINT('',(0.,0.055,0.011));
#1234=CARTESIAN_POINT('',(0.,0.055,0.0075));
#1235=CARTESIAN_POINT('',(-0.0395,0.055,0.0075));
#1236=CARTESIAN_POINT('',(0.0395,0.055,0.0075));
#1237=CARTESIAN_POINT('',(0.0395,0.055,0.011));
#1238=CARTESIAN_POINT('',(-0.0395,0.055,0.011));
#1239=CARTESIAN_POINT('',(0.,0.,0.00801));
#1240=CARTESIAN_POINT('',(0.032,0.0505,0.00801));
#1241=CARTESIAN_POINT('',(-0.032,0.0505,0.00801));
#1242=CARTESIAN_POINT('',(-0.032,-0.0505,0.00801));
#1243=CARTESIAN_POINT('',(0.032,-0.0505,0.00801));
#1244=CARTESIAN_POINT('',(0.032,0.0505,0.015));
#1245=CARTESIAN_POINT('',(-0.032,0.0505,0.015));
#1246=CARTESIAN_POINT('',(-0.032,-0.0505,0.015));
#1247=CARTESIAN_POINT('',(0.032,-0.0505,0.015));
#1248=CARTESIAN_POINT('',(-0.0395,0.0545,0.004));
#1249=CARTESIAN_POINT('',(-0.0395,0.0545,0.0075));
#1250=CARTESIAN_POINT('',(-0.0395,0.0545,0.0075));
#1251=CARTESIAN_POINT('',(-0.0395,0.0545,0.0075));
#1252=CARTESIAN_POINT('',(-0.0395,0.0545,0.0075));
#1253=CARTESIAN_POINT('',(-0.0395,-0.0545,0.011));
#1254=CARTESIAN_POINT('',(-0.0395,-0.0545,0.0075));
#1255=CARTESIAN_POINT('',(-0.0395,-0.055,0.0075));
#1256=CARTESIAN_POINT('',(-0.0395,-0.0545,0.0075));
#1257=CARTESIAN_POINT('',(-0.037,0.0545,0.0075));
#1258=CARTESIAN_POINT('',(0.0395,0.0545,0.0075));
#1259=CARTESIAN_POINT('',(0.0395,0.0545,0.004));
#1260=CARTESIAN_POINT('',(0.0395,0.0545,0.0075));
#1261=CARTESIAN_POINT('',(-0.0395,-0.0545,0.0075));
#1262=CARTESIAN_POINT('',(-0.0395,-0.0545,0.0075));
#1263=CARTESIAN_POINT('',(0.0395,0.0545,0.0075));
#1264=CARTESIAN_POINT('',(0.0395,0.0545,0.0075));
#1265=CARTESIAN_POINT('',(0.,-0.0545,0.0075));
#1266=CARTESIAN_POINT('',(0.0395,-0.0545,0.0075));
#1267=CARTESIAN_POINT('',(0.0395,-0.055,0.0075));
#1268=CARTESIAN_POINT('',(0.0395,-0.0545,0.0075));
#1269=CARTESIAN_POINT('',(0.0395,-0.0545,0.0075));
#1270=CARTESIAN_POINT('',(0.0395,-0.0545,0.0075));
#1271=CARTESIAN_POINT('',(0.0395,-0.0545,0.011));
#1272=MECHANICAL_DESIGN_GEOMETRIC_PRESENTATION_REPRESENTATION('',(#716),
#1274);
#1273=MECHANICAL_DESIGN_GEOMETRIC_PRESENTATION_REPRESENTATION('',(#717),
#1275);
#1274=(
GEOMETRIC_REPRESENTATION_CONTEXT(3)
GLOBAL_UNCERTAINTY_ASSIGNED_CONTEXT((#1276))
GLOBAL_UNIT_ASSIGNED_CONTEXT((#1282,#1280,#1278))
REPRESENTATION_CONTEXT('Part 2','TOP_LEVEL_ASSEMBLY_PART')
);
#1275=(
GEOMETRIC_REPRESENTATION_CONTEXT(3)
GLOBAL_UNCERTAINTY_ASSIGNED_CONTEXT((#1277))
GLOBAL_UNIT_ASSIGNED_CONTEXT((#1283,#1281,#1279))
REPRESENTATION_CONTEXT('Part 1','TOP_LEVEL_ASSEMBLY_PART')
);
#1276=UNCERTAINTY_MEASURE_WITH_UNIT(LENGTH_MEASURE(1.E-8),#1282,
'DISTANCE_ACCURACY_VALUE','Maximum Tolerance applied to model');
#1277=UNCERTAINTY_MEASURE_WITH_UNIT(LENGTH_MEASURE(1.E-8),#1283,
'DISTANCE_ACCURACY_VALUE','Maximum Tolerance applied to model');
#1278=(
NAMED_UNIT(*)
SI_UNIT($,.STERADIAN.)
SOLID_ANGLE_UNIT()
);
#1279=(
NAMED_UNIT(*)
SI_UNIT($,.STERADIAN.)
SOLID_ANGLE_UNIT()
);
#1280=(
NAMED_UNIT(*)
PLANE_ANGLE_UNIT()
SI_UNIT($,.RADIAN.)
);
#1281=(
NAMED_UNIT(*)
PLANE_ANGLE_UNIT()
SI_UNIT($,.RADIAN.)
);
#1282=(
LENGTH_UNIT()
NAMED_UNIT(*)
SI_UNIT($,.METRE.)
);
#1283=(
LENGTH_UNIT()
NAMED_UNIT(*)
SI_UNIT($,.METRE.)
);
#1284=PRODUCT_DEFINITION_SHAPE('','',#1286);
#1285=PRODUCT_DEFINITION_SHAPE('','',#1287);
#1286=PRODUCT_DEFINITION('','',#1290,#1288);
#1287=PRODUCT_DEFINITION('','',#1291,#1289);
#1288=PRODUCT_DEFINITION_CONTEXT('',#1302,'design');
#1289=PRODUCT_DEFINITION_CONTEXT('',#1303,'design');
#1290=PRODUCT_DEFINITION_FORMATION_WITH_SPECIFIED_SOURCE('','',#1294,
 .NOT_KNOWN.);
#1291=PRODUCT_DEFINITION_FORMATION_WITH_SPECIFIED_SOURCE('','',#1295,
 .NOT_KNOWN.);
#1292=PRODUCT_RELATED_PRODUCT_CATEGORY('','',(#1294));
#1293=PRODUCT_RELATED_PRODUCT_CATEGORY('','',(#1295));
#1294=PRODUCT('Part 2','Part 2','Part 2',(#1298));
#1295=PRODUCT('Part 1','Part 1','Part 1',(#1299));
#1296=PRODUCT_CATEGORY('','');
#1297=PRODUCT_CATEGORY('','');
#1298=PRODUCT_CONTEXT('',#1302,'mechanical');
#1299=PRODUCT_CONTEXT('',#1303,'mechanical');
#1300=APPLICATION_PROTOCOL_DEFINITION('international standard',
'ap242_managed_model_based_3d_engineering',2011,#1302);
#1301=APPLICATION_PROTOCOL_DEFINITION('international standard',
'ap242_managed_model_based_3d_engineering',2011,#1303);
#1302=APPLICATION_CONTEXT('managed model based 3d engineering');
#1303=APPLICATION_CONTEXT('managed model based 3d engineering');
ENDSEC;
END-ISO-10303-21;
