ISO-10303-21;
HEADER;
FILE_DESCRIPTION(('CATIA V5 STEP Exchange'),'2;1');

FILE_NAME('D:\\Users\\Mohamed\\Project Picoballoon\\Probe enclosure\\EXPORTS\\Battery_Holder_MYOUNG MY-AAA-20-J.stp','2025-10-01T15:10:58+00:00',('none'),('none'),'CATIA Version 5 Release 21 GA (IN-10)','CATIA V5 STEP AP203','none');

FILE_SCHEMA(('CONFIG_CONTROL_DESIGN'));

ENDSEC;
/* file written by CATIA V5R21 */
DATA;
#5=PRODUCT('Battery_Holder_MYOUNG MY-AAA-20-J','','',(#2)) ;
#1=APPLICATION_CONTEXT('configuration controlled 3D design of mechanical parts and assemblies') ;
#14=PRODUCT_DEFINITION('',' ',#6,#3) ;
#16=SECURITY_CLASSIFICATION(' ',' ',#15) ;
#15=SECURITY_CLASSIFICATION_LEVEL('unclassified') ;
#47=CARTESIAN_POINT(' ',(0.,0.,0.)) ;
#52=CARTESIAN_POINT('Axis2P3D Location',(1.42,0.,-2.)) ;
#57=CARTESIAN_POINT('Line Origine',(1.64241165191,-0.87758256189,-1.5205744614)) ;
#61=CARTESIAN_POINT('Vertex',(1.02,-0.87758256189,-1.5205744614)) ;
#63=CARTESIAN_POINT('Vertex',(1.52,-0.87758256189,-1.5205744614)) ;
#66=CARTESIAN_POINT('Axis2P3D Location',(1.02,0.,-2.)) ;
#70=CARTESIAN_POINT('Vertex',(1.02,0.87758256189,-2.4794255386)) ;
#73=CARTESIAN_POINT('Line Origine',(1.64241165191,0.87758256189,-2.4794255386)) ;
#77=CARTESIAN_POINT('Vertex',(1.52,0.87758256189,-2.4794255386)) ;
#80=CARTESIAN_POINT('Axis2P3D Location',(1.52,0.,-2.)) ;
#92=CARTESIAN_POINT('Axis2P3D Location',(1.52,3.,0.)) ;
#97=CARTESIAN_POINT('Line Origine',(1.52,2.65,0.)) ;
#101=CARTESIAN_POINT('Vertex',(1.52,2.5,0.)) ;
#103=CARTESIAN_POINT('Vertex',(1.52,2.8,0.)) ;
#106=CARTESIAN_POINT('Line Origine',(1.52,2.5,0.5)) ;
#110=CARTESIAN_POINT('Vertex',(1.52,2.5,1.)) ;
#113=CARTESIAN_POINT('Line Origine',(1.52,0.,1.)) ;
#117=CARTESIAN_POINT('Vertex',(1.52,-2.5,1.)) ;
#120=CARTESIAN_POINT('Line Origine',(1.52,-2.5,0.5)) ;
#124=CARTESIAN_POINT('Vertex',(1.52,-2.5,0.)) ;
#127=CARTESIAN_POINT('Line Origine',(1.52,-2.65,0.)) ;
#131=CARTESIAN_POINT('Vertex',(1.52,-2.8,0.)) ;
#134=CARTESIAN_POINT('Line Origine',(1.52,-2.8,-2.)) ;
#138=CARTESIAN_POINT('Vertex',(1.52,-2.8,-4.)) ;
#141=CARTESIAN_POINT('Line Origine',(1.52,-2.65,-4.)) ;
#145=CARTESIAN_POINT('Vertex',(1.52,-2.5,-4.)) ;
#148=CARTESIAN_POINT('Line Origine',(1.52,-2.5,-5.93609753098)) ;
#152=CARTESIAN_POINT('Vertex',(1.52,-2.5,-7.87219506196)) ;
#155=CARTESIAN_POINT('Line Origine',(1.52,0.,-7.87219506196)) ;
#159=CARTESIAN_POINT('Vertex',(1.52,2.5,-7.87219506196)) ;
#162=CARTESIAN_POINT('Line Origine',(1.52,2.5,-5.93609753098)) ;
#166=CARTESIAN_POINT('Vertex',(1.52,2.5,-4.)) ;
#169=CARTESIAN_POINT('Line Origine',(1.52,2.65,-4.)) ;
#173=CARTESIAN_POINT('Vertex',(1.52,2.8,-4.)) ;
#176=CARTESIAN_POINT('Line Origine',(1.52,2.8,-2.)) ;
#195=CARTESIAN_POINT('Axis2P3D Location',(1.52,0.,-2.)) ;
#205=CARTESIAN_POINT('Axis2P3D Location',(1.02,0.,-2.)) ;
#217=CARTESIAN_POINT('Axis2P3D Location',(1.02,-3.,0.)) ;
#222=CARTESIAN_POINT('Line Origine',(1.02,-3.,-2.)) ;
#226=CARTESIAN_POINT('Vertex',(1.02,-3.,0.)) ;
#228=CARTESIAN_POINT('Vertex',(1.02,-3.,-4.)) ;
#231=CARTESIAN_POINT('Line Origine',(1.02,-2.75,0.)) ;
#235=CARTESIAN_POINT('Vertex',(1.02,-2.5,0.)) ;
#238=CARTESIAN_POINT('Line Origine',(1.02,-2.5,0.5)) ;
#242=CARTESIAN_POINT('Vertex',(1.02,-2.5,1.)) ;
#245=CARTESIAN_POINT('Line Origine',(1.02,0.,1.)) ;
#249=CARTESIAN_POINT('Vertex',(1.02,2.5,1.)) ;
#252=CARTESIAN_POINT('Line Origine',(1.02,2.5,0.5)) ;
#256=CARTESIAN_POINT('Vertex',(1.02,2.5,0.)) ;
#259=CARTESIAN_POINT('Line Origine',(1.02,2.75,0.)) ;
#263=CARTESIAN_POINT('Vertex',(1.02,3.,0.)) ;
#266=CARTESIAN_POINT('Line Origine',(1.02,3.,-2.)) ;
#270=CARTESIAN_POINT('Vertex',(1.02,3.,-4.)) ;
#273=CARTESIAN_POINT('Line Origine',(1.02,2.75,-4.)) ;
#277=CARTESIAN_POINT('Vertex',(1.02,2.5,-4.)) ;
#280=CARTESIAN_POINT('Line Origine',(1.02,2.5,-5.93609753098)) ;
#284=CARTESIAN_POINT('Vertex',(1.02,2.5,-7.87219506196)) ;
#287=CARTESIAN_POINT('Line Origine',(1.02,0.,-7.87219506196)) ;
#291=CARTESIAN_POINT('Vertex',(1.02,-2.5,-7.87219506196)) ;
#294=CARTESIAN_POINT('Line Origine',(1.02,-2.5,-5.93609753098)) ;
#298=CARTESIAN_POINT('Vertex',(1.02,-2.5,-4.)) ;
#301=CARTESIAN_POINT('Line Origine',(1.02,-2.75,-4.)) ;
#325=CARTESIAN_POINT('Axis2P3D Location',(0.,0.,-4.)) ;
#330=CARTESIAN_POINT('Axis2P3D Location',(1.72,-2.8,-4.)) ;
#334=CARTESIAN_POINT('Vertex',(1.72,-3.,-4.)) ;
#337=CARTESIAN_POINT('Line Origine',(1.7489320225,-3.,-4.)) ;
#341=CARTESIAN_POINT('Vertex',(1.777864045,-3.,-4.)) ;
#344=CARTESIAN_POINT('Axis2P3D Location',(1.777864045,-4.,-4.)) ;
#348=CARTESIAN_POINT('Vertex',(2.5232200375,-3.33333333333,-4.)) ;
#351=CARTESIAN_POINT('Axis2P3D Location',(6.25,0.,-4.)) ;
#355=CARTESIAN_POINT('Vertex',(9.91079737497,-3.40566624604,-4.)) ;
#358=CARTESIAN_POINT('Axis2P3D Location',(10.64295685,-4.08679949524,-4.)) ;
#362=CARTESIAN_POINT('Vertex',(10.9849769933,-3.14710687446,-4.)) ;
#365=CARTESIAN_POINT('Line Origine',(11.2199001485,-3.23261191029,-4.)) ;
#369=CARTESIAN_POINT('Vertex',(11.4548233037,-3.31811694612,-4.)) ;
#372=CARTESIAN_POINT('Line Origine',(11.3693182679,-3.55304010132,-4.)) ;
#376=CARTESIAN_POINT('Vertex',(11.283813232,-3.78796325651,-4.)) ;
#379=CARTESIAN_POINT('Line Origine',(11.0488900768,-3.70245822068,-4.)) ;
#383=CARTESIAN_POINT('Vertex',(10.8139669216,-3.61695318485,-4.)) ;
#386=CARTESIAN_POINT('Axis2P3D Location',(10.64295685,-4.08679949524,-4.)) ;
#390=CARTESIAN_POINT('Vertex',(10.2768771125,-3.74623287064,-4.)) ;
#393=CARTESIAN_POINT('Axis2P3D Location',(6.25,0.,-4.)) ;
#397=CARTESIAN_POINT('Vertex',(2.15054204125,-3.66666666667,-4.)) ;
#400=CARTESIAN_POINT('Axis2P3D Location',(1.777864045,-4.,-4.)) ;
#404=CARTESIAN_POINT('Vertex',(1.777864045,-3.5,-4.)) ;
#407=CARTESIAN_POINT('Line Origine',(1.6489320225,-3.5,-4.)) ;
#411=CARTESIAN_POINT('Vertex',(1.52,-3.5,-4.)) ;
#414=CARTESIAN_POINT('Axis2P3D Location',(1.52,-3.,-4.)) ;
#419=CARTESIAN_POINT('Line Origine',(1.27,-2.5,-4.)) ;
#443=CARTESIAN_POINT('Axis2P3D Location',(0.,-2.5,-4.)) ;
#448=CARTESIAN_POINT('Axis2P3D Location',(2.02,-2.5,-7.87219506196)) ;
#452=CARTESIAN_POINT('Vertex',(2.41987296163,-2.5,-8.78876563456)) ;
#455=CARTESIAN_POINT('Line Origine',(4.27991501644,-2.5,-7.97728363038)) ;
#459=CARTESIAN_POINT('Vertex',(6.13995707124,-2.5,-7.16580162621)) ;
#462=CARTESIAN_POINT('Axis2P3D Location',(6.53983003288,-2.5,-8.08237219881)) ;
#466=CARTESIAN_POINT('Vertex',(6.90586111899,-2.5,-7.1517695747)) ;
#469=CARTESIAN_POINT('Line Origine',(8.39762924744,-2.5,-7.73852217365)) ;
#473=CARTESIAN_POINT('Vertex',(9.88939737589,-2.5,-8.3252747726)) ;
#476=CARTESIAN_POINT('Line Origine',(9.98090514742,-2.5,-8.09262411657)) ;
#480=CARTESIAN_POINT('Vertex',(10.0724129189,-2.5,-7.85997346055)) ;
#483=CARTESIAN_POINT('Line Origine',(8.5806447905,-2.5,-7.27322086159)) ;
#487=CARTESIAN_POINT('Vertex',(7.08887666205,-2.5,-6.68646826264)) ;
#490=CARTESIAN_POINT('Axis2P3D Location',(6.53983003288,-2.5,-8.08237219881)) ;
#494=CARTESIAN_POINT('Vertex',(5.94002059042,-2.5,-6.70751633991)) ;
#497=CARTESIAN_POINT('Line Origine',(4.07997853562,-2.5,-7.51899834408)) ;
#501=CARTESIAN_POINT('Vertex',(2.21993648082,-2.5,-8.33048034826)) ;
#504=CARTESIAN_POINT('Axis2P3D Location',(2.02,-2.5,-7.87219506196)) ;
#524=CARTESIAN_POINT('Axis2P3D Location',(1.72,2.8,-4.)) ;
#528=CARTESIAN_POINT('Vertex',(1.72,3.,-4.)) ;
#531=CARTESIAN_POINT('Line Origine',(1.27,2.5,-4.)) ;
#536=CARTESIAN_POINT('Axis2P3D Location',(1.52,3.,-4.)) ;
#540=CARTESIAN_POINT('Vertex',(1.52,3.5,-4.)) ;
#543=CARTESIAN_POINT('Line Origine',(1.6489320225,3.5,-4.)) ;
#547=CARTESIAN_POINT('Vertex',(1.777864045,3.5,-4.)) ;
#550=CARTESIAN_POINT('Axis2P3D Location',(1.777864045,4.,-4.)) ;
#554=CARTESIAN_POINT('Vertex',(2.15054204125,3.66666666667,-4.)) ;
#557=CARTESIAN_POINT('Axis2P3D Location',(6.25,0.,-4.)) ;
#561=CARTESIAN_POINT('Vertex',(10.2768771125,3.74623287064,-4.)) ;
#564=CARTESIAN_POINT('Axis2P3D Location',(10.64295685,4.08679949524,-4.)) ;
#568=CARTESIAN_POINT('Vertex',(10.8139669216,3.61695318485,-4.)) ;
#571=CARTESIAN_POINT('Line Origine',(11.0488900768,3.70245822068,-4.)) ;
#575=CARTESIAN_POINT('Vertex',(11.283813232,3.78796325651,-4.)) ;
#578=CARTESIAN_POINT('Line Origine',(11.3693182679,3.55304010132,-4.)) ;
#582=CARTESIAN_POINT('Vertex',(11.4548233037,3.31811694612,-4.)) ;
#585=CARTESIAN_POINT('Line Origine',(11.2199001485,3.23261191029,-4.)) ;
#589=CARTESIAN_POINT('Vertex',(10.9849769933,3.14710687446,-4.)) ;
#592=CARTESIAN_POINT('Axis2P3D Location',(10.64295685,4.08679949524,-4.)) ;
#596=CARTESIAN_POINT('Vertex',(9.91079737497,3.40566624604,-4.)) ;
#599=CARTESIAN_POINT('Axis2P3D Location',(6.25,0.,-4.)) ;
#603=CARTESIAN_POINT('Vertex',(2.5232200375,3.33333333333,-4.)) ;
#606=CARTESIAN_POINT('Axis2P3D Location',(1.777864045,4.,-4.)) ;
#610=CARTESIAN_POINT('Vertex',(1.777864045,3.,-4.)) ;
#613=CARTESIAN_POINT('Line Origine',(1.7489320225,3.,-4.)) ;
#637=CARTESIAN_POINT('Axis2P3D Location',(1.72,2.8,-3.93609753098)) ;
#642=CARTESIAN_POINT('Line Origine',(1.72,3.,-3.93609753098)) ;
#646=CARTESIAN_POINT('Vertex',(1.72,3.,0.)) ;
#649=CARTESIAN_POINT('Axis2P3D Location',(1.72,2.8,-4.4408920985E-016)) ;
#661=CARTESIAN_POINT('Axis2P3D Location',(1.52,3.,-2.)) ;
#666=CARTESIAN_POINT('Axis2P3D Location',(1.52,3.,0.)) ;
#670=CARTESIAN_POINT('Vertex',(1.52,3.5,0.)) ;
#673=CARTESIAN_POINT('Line Origine',(1.52,3.5,-2.)) ;
#685=CARTESIAN_POINT('Axis2P3D Location',(2.02,0.,-7.87219506196)) ;
#690=CARTESIAN_POINT('Axis2P3D Location',(2.02,2.5,-7.87219506196)) ;
#694=CARTESIAN_POINT('Vertex',(2.41987296163,2.5,-8.78876563456)) ;
#697=CARTESIAN_POINT('Line Origine',(2.41987296163,0.,-8.78876563456)) ;
#709=CARTESIAN_POINT('Axis2P3D Location',(1.777864045,-4.,-2.)) ;
#714=CARTESIAN_POINT('Line Origine',(1.777864045,-3.,-2.)) ;
#718=CARTESIAN_POINT('Vertex',(1.777864045,-3.,0.)) ;
#721=CARTESIAN_POINT('Axis2P3D Location',(1.777864045,-4.,0.)) ;
#725=CARTESIAN_POINT('Vertex',(2.5232200375,-3.33333333333,0.)) ;
#728=CARTESIAN_POINT('Line Origine',(2.5232200375,-3.33333333333,-2.)) ;
#740=CARTESIAN_POINT('Axis2P3D Location',(10.64295685,-4.08679949524,-2.)) ;
#745=CARTESIAN_POINT('Line Origine',(9.91079737497,-3.40566624604,-2.)) ;
#749=CARTESIAN_POINT('Vertex',(9.91079737497,-3.40566624604,0.)) ;
#752=CARTESIAN_POINT('Axis2P3D Location',(10.64295685,-4.08679949524,0.)) ;
#756=CARTESIAN_POINT('Vertex',(10.9849769933,-3.14710687446,0.)) ;
#759=CARTESIAN_POINT('Line Origine',(10.9849769933,-3.14710687446,-2.)) ;
#771=CARTESIAN_POINT('Axis2P3D Location',(10.9849769933,-3.14710687446,0.)) ;
#776=CARTESIAN_POINT('Line Origine',(11.2199001485,-3.23261191029,0.)) ;
#780=CARTESIAN_POINT('Vertex',(11.4548233037,-3.31811694612,0.)) ;
#783=CARTESIAN_POINT('Line Origine',(11.4548233037,-3.31811694612,-2.)) ;
#795=CARTESIAN_POINT('Axis2P3D Location',(11.4548233037,-3.31811694612,0.)) ;
#800=CARTESIAN_POINT('Line Origine',(11.3693182679,-3.55304010132,0.)) ;
#804=CARTESIAN_POINT('Vertex',(11.283813232,-3.78796325651,0.)) ;
#807=CARTESIAN_POINT('Line Origine',(11.283813232,-3.78796325651,-2.)) ;
#819=CARTESIAN_POINT('Axis2P3D Location',(6.25,0.,-2.)) ;
#824=CARTESIAN_POINT('Line Origine',(10.2768771125,-3.74623287064,-2.)) ;
#828=CARTESIAN_POINT('Vertex',(10.2768771125,-3.74623287064,0.)) ;
#831=CARTESIAN_POINT('Axis2P3D Location',(6.25,0.,0.)) ;
#835=CARTESIAN_POINT('Vertex',(2.15054204125,-3.66666666667,0.)) ;
#838=CARTESIAN_POINT('Line Origine',(2.15054204125,-3.66666666667,-2.)) ;
#850=CARTESIAN_POINT('Axis2P3D Location',(1.777864045,-3.5,0.)) ;
#855=CARTESIAN_POINT('Line Origine',(1.777864045,-3.5,-2.)) ;
#859=CARTESIAN_POINT('Vertex',(1.777864045,-3.5,0.)) ;
#862=CARTESIAN_POINT('Line Origine',(1.6489320225,-3.5,0.)) ;
#866=CARTESIAN_POINT('Vertex',(1.52,-3.5,0.)) ;
#869=CARTESIAN_POINT('Line Origine',(1.52,-3.5,-2.)) ;
#881=CARTESIAN_POINT('Axis2P3D Location',(2.41987296163,0.,-8.78876563456)) ;
#886=CARTESIAN_POINT('Line Origine',(4.27991501644,2.5,-7.97728363038)) ;
#890=CARTESIAN_POINT('Vertex',(6.13995707124,2.5,-7.16580162621)) ;
#893=CARTESIAN_POINT('Line Origine',(6.13995707124,0.,-7.16580162621)) ;
#905=CARTESIAN_POINT('Axis2P3D Location',(6.90586111899,0.,-7.1517695747)) ;
#910=CARTESIAN_POINT('Axis2P3D Location',(9.88939737589,1.5,-8.3252747726)) ;
#914=CARTESIAN_POINT('Vertex',(10.82,1.5,-8.69130585871)) ;
#916=CARTESIAN_POINT('Vertex',(9.88939737589,2.5,-8.3252747726)) ;
#919=CARTESIAN_POINT('Line Origine',(10.82,0.,-8.69130585871)) ;
#923=CARTESIAN_POINT('Vertex',(10.82,-1.5,-8.69130585871)) ;
#926=CARTESIAN_POINT('Axis2P3D Location',(9.88939737589,-1.5,-8.3252747726)) ;
#931=CARTESIAN_POINT('Line Origine',(6.90586111899,0.,-7.1517695747)) ;
#935=CARTESIAN_POINT('Vertex',(6.90586111899,2.5,-7.1517695747)) ;
#938=CARTESIAN_POINT('Line Origine',(8.39762924744,2.5,-7.73852217365)) ;
#952=CARTESIAN_POINT('Axis2P3D Location',(10.6324616868,-1.5,-6.43609753098)) ;
#957=CARTESIAN_POINT('Line Origine',(11.5630643109,-1.5,-6.80212861709)) ;
#961=CARTESIAN_POINT('Vertex',(11.0030155431,-1.5,-8.22600454666)) ;
#964=CARTESIAN_POINT('Axis2P3D Location',(10.0724129189,-1.5,-7.85997346055)) ;
#976=CARTESIAN_POINT('Axis2P3D Location',(6.53983003288,0.,-8.08237219881)) ;
#981=CARTESIAN_POINT('Line Origine',(7.08887666205,0.,-6.68646826264)) ;
#985=CARTESIAN_POINT('Vertex',(7.08887666205,2.5,-6.68646826264)) ;
#988=CARTESIAN_POINT('Axis2P3D Location',(6.53983003288,2.5,-8.08237219881)) ;
#992=CARTESIAN_POINT('Vertex',(5.94002059042,2.5,-6.70751633991)) ;
#995=CARTESIAN_POINT('Line Origine',(5.94002059042,0.,-6.70751633991)) ;
#1007=CARTESIAN_POINT('Axis2P3D Location',(6.25,0.,-2.)) ;
#1012=CARTESIAN_POINT('Line Origine',(2.15054204125,3.66666666667,-2.)) ;
#1016=CARTESIAN_POINT('Vertex',(2.15054204125,3.66666666667,0.)) ;
#1019=CARTESIAN_POINT('Axis2P3D Location',(6.25,0.,0.)) ;
#1023=CARTESIAN_POINT('Vertex',(10.2768771125,3.74623287064,0.)) ;
#1026=CARTESIAN_POINT('Line Origine',(10.2768771125,3.74623287064,-2.)) ;
#1038=CARTESIAN_POINT('Axis2P3D Location',(10.8139669216,3.61695318485,0.)) ;
#1043=CARTESIAN_POINT('Line Origine',(10.8139669216,3.61695318485,-2.)) ;
#1047=CARTESIAN_POINT('Vertex',(10.8139669216,3.61695318485,0.)) ;
#1050=CARTESIAN_POINT('Line Origine',(11.0488900768,3.70245822068,0.)) ;
#1054=CARTESIAN_POINT('Vertex',(11.283813232,3.78796325651,0.)) ;
#1057=CARTESIAN_POINT('Line Origine',(11.283813232,3.78796325651,-2.)) ;
#1069=CARTESIAN_POINT('Axis2P3D Location',(11.283813232,3.78796325651,0.)) ;
#1074=CARTESIAN_POINT('Line Origine',(11.3693182679,3.55304010132,0.)) ;
#1078=CARTESIAN_POINT('Vertex',(11.4548233037,3.31811694612,0.)) ;
#1081=CARTESIAN_POINT('Line Origine',(11.4548233037,3.31811694612,-2.)) ;
#1093=CARTESIAN_POINT('Axis2P3D Location',(10.64295685,4.08679949524,-2.)) ;
#1098=CARTESIAN_POINT('Line Origine',(10.9849769933,3.14710687446,-2.)) ;
#1102=CARTESIAN_POINT('Vertex',(10.9849769933,3.14710687446,0.)) ;
#1105=CARTESIAN_POINT('Axis2P3D Location',(10.64295685,4.08679949524,0.)) ;
#1109=CARTESIAN_POINT('Vertex',(9.91079737497,3.40566624604,0.)) ;
#1112=CARTESIAN_POINT('Line Origine',(9.91079737497,3.40566624604,-2.)) ;
#1124=CARTESIAN_POINT('Axis2P3D Location',(1.777864045,4.,-2.)) ;
#1129=CARTESIAN_POINT('Line Origine',(2.5232200375,3.33333333333,-2.)) ;
#1133=CARTESIAN_POINT('Vertex',(2.5232200375,3.33333333333,0.)) ;
#1136=CARTESIAN_POINT('Axis2P3D Location',(1.777864045,4.,0.)) ;
#1140=CARTESIAN_POINT('Vertex',(1.777864045,3.,0.)) ;
#1143=CARTESIAN_POINT('Line Origine',(1.777864045,3.,-2.)) ;
#1155=CARTESIAN_POINT('Axis2P3D Location',(1.777864045,3.,0.)) ;
#1160=CARTESIAN_POINT('Line Origine',(1.7489320225,3.,0.)) ;
#1172=CARTESIAN_POINT('Axis2P3D Location',(10.82,0.,-8.69130585871)) ;
#1177=CARTESIAN_POINT('Line Origine',(10.9115077715,1.5,-8.45865520269)) ;
#1181=CARTESIAN_POINT('Vertex',(11.0030155431,1.5,-8.22600454666)) ;
#1184=CARTESIAN_POINT('Line Origine',(11.0030155431,0.,-8.22600454666)) ;
#1196=CARTESIAN_POINT('Axis2P3D Location',(10.6324616868,1.5,-6.43609753098)) ;
#1201=CARTESIAN_POINT('Line Origine',(10.6324616868,2.5,-6.43609753098)) ;
#1205=CARTESIAN_POINT('Vertex',(10.0724129189,2.5,-7.85997346055)) ;
#1208=CARTESIAN_POINT('Axis2P3D Location',(10.0724129189,1.5,-7.85997346055)) ;
#1220=CARTESIAN_POINT('Axis2P3D Location',(6.25,0.,-2.)) ;
#1225=CARTESIAN_POINT('Axis2P3D Location',(6.25,0.,0.)) ;
#1237=CARTESIAN_POINT('Axis2P3D Location',(10.9849769933,3.14710687446,0.)) ;
#1242=CARTESIAN_POINT('Line Origine',(11.2199001485,3.23261191029,0.)) ;
#1254=CARTESIAN_POINT('Axis2P3D Location',(10.64295685,4.08679949524,-2.)) ;
#1259=CARTESIAN_POINT('Axis2P3D Location',(10.64295685,4.08679949524,0.)) ;
#1271=CARTESIAN_POINT('Axis2P3D Location',(1.777864045,4.,-2.)) ;
#1276=CARTESIAN_POINT('Line Origine',(1.777864045,3.5,-2.)) ;
#1280=CARTESIAN_POINT('Vertex',(1.777864045,3.5,0.)) ;
#1283=CARTESIAN_POINT('Axis2P3D Location',(1.777864045,4.,0.)) ;
#1295=CARTESIAN_POINT('Axis2P3D Location',(1.777864045,3.5,0.)) ;
#1300=CARTESIAN_POINT('Line Origine',(1.6489320225,3.5,0.)) ;
#1312=CARTESIAN_POINT('Axis2P3D Location',(2.21993648082,0.,-8.33048034826)) ;
#1317=CARTESIAN_POINT('Line Origine',(4.07997853562,2.5,-7.51899834408)) ;
#1321=CARTESIAN_POINT('Vertex',(2.21993648082,2.5,-8.33048034826)) ;
#1324=CARTESIAN_POINT('Line Origine',(2.21993648082,0.,-8.33048034826)) ;
#1336=CARTESIAN_POINT('Axis2P3D Location',(7.08887666205,0.,-6.68646826264)) ;
#1341=CARTESIAN_POINT('Line Origine',(8.5806447905,2.5,-7.27322086159)) ;
#1355=CARTESIAN_POINT('Axis2P3D Location',(6.53983003288,0.,-8.08237219881)) ;
#1360=CARTESIAN_POINT('Axis2P3D Location',(6.53983003288,2.5,-8.08237219881)) ;
#1372=CARTESIAN_POINT('Axis2P3D Location',(1.777864045,-4.,-2.)) ;
#1377=CARTESIAN_POINT('Axis2P3D Location',(1.777864045,-4.,0.)) ;
#1389=CARTESIAN_POINT('Axis2P3D Location',(10.64295685,-4.08679949524,-2.)) ;
#1394=CARTESIAN_POINT('Line Origine',(10.8139669216,-3.61695318485,-2.)) ;
#1398=CARTESIAN_POINT('Vertex',(10.8139669216,-3.61695318485,0.)) ;
#1401=CARTESIAN_POINT('Axis2P3D Location',(10.64295685,-4.08679949524,0.)) ;
#1413=CARTESIAN_POINT('Axis2P3D Location',(10.8139669216,-3.61695318485,0.)) ;
#1418=CARTESIAN_POINT('Line Origine',(11.0488900768,-3.70245822068,0.)) ;
#1430=CARTESIAN_POINT('Axis2P3D Location',(6.25,0.,-2.)) ;
#1435=CARTESIAN_POINT('Axis2P3D Location',(6.25,0.,0.)) ;
#1447=CARTESIAN_POINT('Axis2P3D Location',(1.777864045,-3.,0.)) ;
#1452=CARTESIAN_POINT('Line Origine',(1.72,-3.,-2.)) ;
#1456=CARTESIAN_POINT('Vertex',(1.72,-3.,0.)) ;
#1459=CARTESIAN_POINT('Line Origine',(1.7489320225,-3.,0.)) ;
#1471=CARTESIAN_POINT('Axis2P3D Location',(1.52,-3.,-2.)) ;
#1476=CARTESIAN_POINT('Axis2P3D Location',(1.52,-3.,0.)) ;
#1488=CARTESIAN_POINT('Axis2P3D Location',(0.,2.5,-4.)) ;
#1493=CARTESIAN_POINT('Axis2P3D Location',(2.02,2.5,-7.87219506196)) ;
#1513=CARTESIAN_POINT('Axis2P3D Location',(2.02,0.,-7.87219506196)) ;
#1525=CARTESIAN_POINT('Axis2P3D Location',(1.72,-2.8,-3.93609753098)) ;
#1530=CARTESIAN_POINT('Axis2P3D Location',(1.72,-2.8,0.)) ;
#1542=CARTESIAN_POINT('Axis2P3D Location',(0.,0.,0.)) ;
#1547=CARTESIAN_POINT('Line Origine',(1.27,-2.5,0.)) ;
#1571=CARTESIAN_POINT('Line Origine',(1.27,2.5,0.)) ;
#1595=CARTESIAN_POINT('Axis2P3D Location',(1.52,-2.5,0.)) ;
#1600=CARTESIAN_POINT('Line Origine',(1.27,-2.5,1.)) ;
#1612=CARTESIAN_POINT('Axis2P3D Location',(1.02,2.5,0.)) ;
#1617=CARTESIAN_POINT('Line Origine',(1.27,2.5,1.)) ;
#1629=CARTESIAN_POINT('Axis2P3D Location',(0.,0.,1.)) ;
#53=DIRECTION('Axis2P3D Direction',(-1.,0.,-0.)) ;
#54=DIRECTION('Axis2P3D XDirection',(0.,0.87758256189,-0.479425538604)) ;
#58=DIRECTION('Vector Direction',(-1.,0.,0.)) ;
#67=DIRECTION('Axis2P3D Direction',(-1.,0.,-0.)) ;
#74=DIRECTION('Vector Direction',(-1.,0.,0.)) ;
#81=DIRECTION('Axis2P3D Direction',(-1.,0.,-0.)) ;
#93=DIRECTION('Axis2P3D Direction',(1.,0.,0.)) ;
#94=DIRECTION('Axis2P3D XDirection',(0.,-1.,0.)) ;
#98=DIRECTION('Vector Direction',(0.,1.,0.)) ;
#107=DIRECTION('Vector Direction',(0.,0.,1.)) ;
#114=DIRECTION('Vector Direction',(0.,-1.,0.)) ;
#121=DIRECTION('Vector Direction',(0.,0.,1.)) ;
#128=DIRECTION('Vector Direction',(0.,1.,0.)) ;
#135=DIRECTION('Vector Direction',(0.,0.,-1.)) ;
#142=DIRECTION('Vector Direction',(0.,1.,0.)) ;
#149=DIRECTION('Vector Direction',(0.,0.,-1.)) ;
#156=DIRECTION('Vector Direction',(0.,-1.,0.)) ;
#163=DIRECTION('Vector Direction',(0.,0.,-1.)) ;
#170=DIRECTION('Vector Direction',(0.,1.,0.)) ;
#177=DIRECTION('Vector Direction',(0.,0.,-1.)) ;
#196=DIRECTION('Axis2P3D Direction',(1.,0.,0.)) ;
#206=DIRECTION('Axis2P3D Direction',(-1.,0.,-0.)) ;
#218=DIRECTION('Axis2P3D Direction',(-1.,0.,0.)) ;
#219=DIRECTION('Axis2P3D XDirection',(0.,1.,0.)) ;
#223=DIRECTION('Vector Direction',(0.,0.,-1.)) ;
#232=DIRECTION('Vector Direction',(0.,-1.,0.)) ;
#239=DIRECTION('Vector Direction',(0.,0.,1.)) ;
#246=DIRECTION('Vector Direction',(0.,-1.,0.)) ;
#253=DIRECTION('Vector Direction',(0.,0.,1.)) ;
#260=DIRECTION('Vector Direction',(0.,-1.,0.)) ;
#267=DIRECTION('Vector Direction',(0.,0.,-1.)) ;
#274=DIRECTION('Vector Direction',(0.,-1.,0.)) ;
#281=DIRECTION('Vector Direction',(0.,0.,-1.)) ;
#288=DIRECTION('Vector Direction',(0.,-1.,0.)) ;
#295=DIRECTION('Vector Direction',(0.,0.,-1.)) ;
#302=DIRECTION('Vector Direction',(0.,-1.,0.)) ;
#326=DIRECTION('Axis2P3D Direction',(0.,0.,-1.)) ;
#327=DIRECTION('Axis2P3D XDirection',(0.,1.,0.)) ;
#331=DIRECTION('Axis2P3D Direction',(0.,0.,-1.)) ;
#338=DIRECTION('Vector Direction',(-1.,0.,0.)) ;
#345=DIRECTION('Axis2P3D Direction',(0.,0.,-1.)) ;
#352=DIRECTION('Axis2P3D Direction',(0.,0.,-1.)) ;
#359=DIRECTION('Axis2P3D Direction',(0.,0.,-1.)) ;
#366=DIRECTION('Vector Direction',(0.939692620786,-0.342020143326,0.)) ;
#373=DIRECTION('Vector Direction',(-0.342020143326,-0.939692620786,0.)) ;
#380=DIRECTION('Vector Direction',(0.939692620786,-0.342020143326,0.)) ;
#387=DIRECTION('Axis2P3D Direction',(0.,0.,-1.)) ;
#394=DIRECTION('Axis2P3D Direction',(0.,0.,-1.)) ;
#401=DIRECTION('Axis2P3D Direction',(0.,0.,-1.)) ;
#408=DIRECTION('Vector Direction',(-1.,0.,0.)) ;
#415=DIRECTION('Axis2P3D Direction',(0.,0.,-1.)) ;
#420=DIRECTION('Vector Direction',(-1.,0.,0.)) ;
#444=DIRECTION('Axis2P3D Direction',(-0.,-1.,0.)) ;
#445=DIRECTION('Axis2P3D XDirection',(1.,-0.,-0.)) ;
#449=DIRECTION('Axis2P3D Direction',(-0.,-1.,0.)) ;
#456=DIRECTION('Vector Direction',(0.916570572599,0.,0.399872961635)) ;
#463=DIRECTION('Axis2P3D Direction',(-0.,-1.,0.)) ;
#470=DIRECTION('Vector Direction',(0.930602624109,0.,-0.366031086114)) ;
#477=DIRECTION('Vector Direction',(0.366031086114,0.,0.930602624109)) ;
#484=DIRECTION('Vector Direction',(0.930602624109,0.,-0.366031086114)) ;
#491=DIRECTION('Axis2P3D Direction',(-0.,-1.,0.)) ;
#498=DIRECTION('Vector Direction',(0.916570572599,0.,0.399872961635)) ;
#505=DIRECTION('Axis2P3D Direction',(-0.,-1.,0.)) ;
#525=DIRECTION('Axis2P3D Direction',(0.,0.,-1.)) ;
#532=DIRECTION('Vector Direction',(-1.,0.,0.)) ;
#537=DIRECTION('Axis2P3D Direction',(0.,0.,-1.)) ;
#544=DIRECTION('Vector Direction',(-1.,0.,0.)) ;
#551=DIRECTION('Axis2P3D Direction',(0.,0.,-1.)) ;
#558=DIRECTION('Axis2P3D Direction',(0.,0.,-1.)) ;
#565=DIRECTION('Axis2P3D Direction',(0.,0.,-1.)) ;
#572=DIRECTION('Vector Direction',(0.939692620786,0.342020143326,0.)) ;
#579=DIRECTION('Vector Direction',(0.342020143326,-0.939692620786,0.)) ;
#586=DIRECTION('Vector Direction',(0.939692620786,0.342020143326,0.)) ;
#593=DIRECTION('Axis2P3D Direction',(0.,0.,-1.)) ;
#600=DIRECTION('Axis2P3D Direction',(0.,0.,-1.)) ;
#607=DIRECTION('Axis2P3D Direction',(0.,0.,-1.)) ;
#614=DIRECTION('Vector Direction',(-1.,0.,0.)) ;
#638=DIRECTION('Axis2P3D Direction',(0.,0.,-1.)) ;
#639=DIRECTION('Axis2P3D XDirection',(-1.,0.,0.)) ;
#643=DIRECTION('Vector Direction',(0.,0.,-1.)) ;
#650=DIRECTION('Axis2P3D Direction',(0.,0.,-1.)) ;
#662=DIRECTION('Axis2P3D Direction',(0.,0.,-1.)) ;
#663=DIRECTION('Axis2P3D XDirection',(-1.,7.04487466627E-016,0.)) ;
#667=DIRECTION('Axis2P3D Direction',(0.,0.,-1.)) ;
#674=DIRECTION('Vector Direction',(0.,0.,-1.)) ;
#686=DIRECTION('Axis2P3D Direction',(-0.,-1.,0.)) ;
#687=DIRECTION('Axis2P3D XDirection',(-1.,0.,1.22460635382E-016)) ;
#691=DIRECTION('Axis2P3D Direction',(-0.,-1.,0.)) ;
#698=DIRECTION('Vector Direction',(0.,-1.,0.)) ;
#710=DIRECTION('Axis2P3D Direction',(0.,0.,-1.)) ;
#711=DIRECTION('Axis2P3D XDirection',(0.,1.,0.)) ;
#715=DIRECTION('Vector Direction',(0.,0.,-1.)) ;
#722=DIRECTION('Axis2P3D Direction',(0.,0.,-1.)) ;
#729=DIRECTION('Vector Direction',(0.,0.,-1.)) ;
#741=DIRECTION('Axis2P3D Direction',(0.,0.,-1.)) ;
#742=DIRECTION('Axis2P3D XDirection',(-0.732159474995,0.681133249207,0.)) ;
#746=DIRECTION('Vector Direction',(0.,0.,-1.)) ;
#753=DIRECTION('Axis2P3D Direction',(0.,0.,-1.)) ;
#760=DIRECTION('Vector Direction',(0.,0.,-1.)) ;
#772=DIRECTION('Axis2P3D Direction',(0.342020143326,0.939692620786,0.)) ;
#773=DIRECTION('Axis2P3D XDirection',(0.939692620786,-0.342020143326,0.)) ;
#777=DIRECTION('Vector Direction',(0.939692620786,-0.342020143326,0.)) ;
#784=DIRECTION('Vector Direction',(0.,0.,-1.)) ;
#796=DIRECTION('Axis2P3D Direction',(0.939692620786,-0.342020143326,0.)) ;
#797=DIRECTION('Axis2P3D XDirection',(-0.342020143326,-0.939692620786,-0.)) ;
#801=DIRECTION('Vector Direction',(-0.342020143326,-0.939692620786,0.)) ;
#808=DIRECTION('Vector Direction',(0.,0.,-1.)) ;
#820=DIRECTION('Axis2P3D Direction',(0.,0.,-1.)) ;
#821=DIRECTION('Axis2P3D XDirection',(0.732159474995,-0.681133249207,0.)) ;
#825=DIRECTION('Vector Direction',(0.,0.,-1.)) ;
#832=DIRECTION('Axis2P3D Direction',(0.,0.,-1.)) ;
#839=DIRECTION('Vector Direction',(0.,0.,-1.)) ;
#851=DIRECTION('Axis2P3D Direction',(-0.,-1.,-0.)) ;
#852=DIRECTION('Axis2P3D XDirection',(-1.,0.,0.)) ;
#856=DIRECTION('Vector Direction',(0.,0.,-1.)) ;
#863=DIRECTION('Vector Direction',(-1.,0.,0.)) ;
#870=DIRECTION('Vector Direction',(0.,0.,-1.)) ;
#882=DIRECTION('Axis2P3D Direction',(0.399872961635,0.,-0.916570572599)) ;
#883=DIRECTION('Axis2P3D XDirection',(0.916570572599,-0.,0.399872961635)) ;
#887=DIRECTION('Vector Direction',(0.916570572599,0.,0.399872961635)) ;
#894=DIRECTION('Vector Direction',(0.,-1.,0.)) ;
#906=DIRECTION('Axis2P3D Direction',(-0.366031086114,-0.,-0.930602624109)) ;
#907=DIRECTION('Axis2P3D XDirection',(0.930602624109,0.,-0.366031086114)) ;
#911=DIRECTION('Axis2P3D Direction',(-0.366031086114,-0.,-0.930602624109)) ;
#920=DIRECTION('Vector Direction',(0.,-1.,0.)) ;
#927=DIRECTION('Axis2P3D Direction',(-0.366031086114,-0.,-0.930602624109)) ;
#932=DIRECTION('Vector Direction',(0.,-1.,0.)) ;
#939=DIRECTION('Vector Direction',(0.930602624109,0.,-0.366031086114)) ;
#953=DIRECTION('Axis2P3D Direction',(0.366031086114,0.,0.930602624109)) ;
#954=DIRECTION('Axis2P3D XDirection',(-1.70943282955E-016,-1.,6.72365990627E-017)) ;
#958=DIRECTION('Vector Direction',(0.366031086114,0.,0.930602624109)) ;
#965=DIRECTION('Axis2P3D Direction',(0.366031086114,0.,0.930602624109)) ;
#977=DIRECTION('Axis2P3D Direction',(-0.,-1.,0.)) ;
#978=DIRECTION('Axis2P3D XDirection',(0.366031086114,-0.,0.930602624109)) ;
#982=DIRECTION('Vector Direction',(0.,-1.,0.)) ;
#989=DIRECTION('Axis2P3D Direction',(-0.,-1.,0.)) ;
#996=DIRECTION('Vector Direction',(0.,-1.,0.)) ;
#1008=DIRECTION('Axis2P3D Direction',(0.,0.,-1.)) ;
#1009=DIRECTION('Axis2P3D XDirection',(-0.7453559925,0.666666666667,0.)) ;
#1013=DIRECTION('Vector Direction',(0.,0.,-1.)) ;
#1020=DIRECTION('Axis2P3D Direction',(0.,0.,-1.)) ;
#1027=DIRECTION('Vector Direction',(0.,0.,-1.)) ;
#1039=DIRECTION('Axis2P3D Direction',(-0.342020143326,0.939692620786,0.)) ;
#1040=DIRECTION('Axis2P3D XDirection',(0.939692620786,0.342020143326,0.)) ;
#1044=DIRECTION('Vector Direction',(0.,0.,-1.)) ;
#1051=DIRECTION('Vector Direction',(0.939692620786,0.342020143326,0.)) ;
#1058=DIRECTION('Vector Direction',(0.,0.,-1.)) ;
#1070=DIRECTION('Axis2P3D Direction',(0.939692620786,0.342020143326,0.)) ;
#1071=DIRECTION('Axis2P3D XDirection',(0.342020143326,-0.939692620786,0.)) ;
#1075=DIRECTION('Vector Direction',(0.342020143326,-0.939692620786,0.)) ;
#1082=DIRECTION('Vector Direction',(0.,0.,-1.)) ;
#1094=DIRECTION('Axis2P3D Direction',(0.,0.,-1.)) ;
#1095=DIRECTION('Axis2P3D XDirection',(0.342020143326,-0.939692620786,0.)) ;
#1099=DIRECTION('Vector Direction',(0.,0.,-1.)) ;
#1106=DIRECTION('Axis2P3D Direction',(0.,0.,-1.)) ;
#1113=DIRECTION('Vector Direction',(0.,0.,-1.)) ;
#1125=DIRECTION('Axis2P3D Direction',(0.,0.,-1.)) ;
#1126=DIRECTION('Axis2P3D XDirection',(0.7453559925,-0.666666666667,0.)) ;
#1130=DIRECTION('Vector Direction',(0.,0.,-1.)) ;
#1137=DIRECTION('Axis2P3D Direction',(0.,0.,-1.)) ;
#1144=DIRECTION('Vector Direction',(0.,0.,-1.)) ;
#1156=DIRECTION('Axis2P3D Direction',(-0.,-1.,-0.)) ;
#1157=DIRECTION('Axis2P3D XDirection',(-1.,0.,0.)) ;
#1161=DIRECTION('Vector Direction',(-1.,0.,0.)) ;
#1173=DIRECTION('Axis2P3D Direction',(0.930602624109,0.,-0.366031086114)) ;
#1174=DIRECTION('Axis2P3D XDirection',(0.366031086114,-0.,0.930602624109)) ;
#1178=DIRECTION('Vector Direction',(0.366031086114,0.,0.930602624109)) ;
#1185=DIRECTION('Vector Direction',(0.,-1.,0.)) ;
#1197=DIRECTION('Axis2P3D Direction',(0.366031086114,-0.,0.930602624109)) ;
#1198=DIRECTION('Axis2P3D XDirection',(0.930602624109,-1.83690953073E-016,-0.366031086114)) ;
#1202=DIRECTION('Vector Direction',(0.366031086114,0.,0.930602624109)) ;
#1209=DIRECTION('Axis2P3D Direction',(0.366031086114,-0.,0.930602624109)) ;
#1221=DIRECTION('Axis2P3D Direction',(0.,0.,-1.)) ;
#1222=DIRECTION('Axis2P3D XDirection',(-0.7453559925,0.666666666667,0.)) ;
#1226=DIRECTION('Axis2P3D Direction',(0.,0.,-1.)) ;
#1238=DIRECTION('Axis2P3D Direction',(-0.342020143326,0.939692620786,0.)) ;
#1239=DIRECTION('Axis2P3D XDirection',(0.939692620786,0.342020143326,0.)) ;
#1243=DIRECTION('Vector Direction',(0.939692620786,0.342020143326,0.)) ;
#1255=DIRECTION('Axis2P3D Direction',(0.,0.,-1.)) ;
#1256=DIRECTION('Axis2P3D XDirection',(0.342020143326,-0.939692620786,0.)) ;
#1260=DIRECTION('Axis2P3D Direction',(0.,0.,-1.)) ;
#1272=DIRECTION('Axis2P3D Direction',(0.,0.,-1.)) ;
#1273=DIRECTION('Axis2P3D XDirection',(0.7453559925,-0.666666666667,0.)) ;
#1277=DIRECTION('Vector Direction',(0.,0.,-1.)) ;
#1284=DIRECTION('Axis2P3D Direction',(0.,0.,-1.)) ;
#1296=DIRECTION('Axis2P3D Direction',(-0.,-1.,-0.)) ;
#1297=DIRECTION('Axis2P3D XDirection',(-1.,0.,0.)) ;
#1301=DIRECTION('Vector Direction',(-1.,0.,0.)) ;
#1313=DIRECTION('Axis2P3D Direction',(0.399872961635,0.,-0.916570572599)) ;
#1314=DIRECTION('Axis2P3D XDirection',(0.916570572599,-0.,0.399872961635)) ;
#1318=DIRECTION('Vector Direction',(0.916570572599,0.,0.399872961635)) ;
#1325=DIRECTION('Vector Direction',(0.,-1.,0.)) ;
#1337=DIRECTION('Axis2P3D Direction',(-0.366031086114,-0.,-0.930602624109)) ;
#1338=DIRECTION('Axis2P3D XDirection',(0.930602624109,0.,-0.366031086114)) ;
#1342=DIRECTION('Vector Direction',(0.930602624109,0.,-0.366031086114)) ;
#1356=DIRECTION('Axis2P3D Direction',(-0.,-1.,0.)) ;
#1357=DIRECTION('Axis2P3D XDirection',(0.366031086114,-0.,0.930602624109)) ;
#1361=DIRECTION('Axis2P3D Direction',(-0.,-1.,0.)) ;
#1373=DIRECTION('Axis2P3D Direction',(0.,0.,-1.)) ;
#1374=DIRECTION('Axis2P3D XDirection',(-2.44921270764E-016,1.,0.)) ;
#1378=DIRECTION('Axis2P3D Direction',(0.,0.,-1.)) ;
#1390=DIRECTION('Axis2P3D Direction',(0.,0.,-1.)) ;
#1391=DIRECTION('Axis2P3D XDirection',(-0.732159474995,0.681133249207,0.)) ;
#1395=DIRECTION('Vector Direction',(0.,0.,-1.)) ;
#1402=DIRECTION('Axis2P3D Direction',(0.,0.,-1.)) ;
#1414=DIRECTION('Axis2P3D Direction',(0.342020143326,0.939692620786,0.)) ;
#1415=DIRECTION('Axis2P3D XDirection',(0.939692620786,-0.342020143326,0.)) ;
#1419=DIRECTION('Vector Direction',(0.939692620786,-0.342020143326,0.)) ;
#1431=DIRECTION('Axis2P3D Direction',(0.,0.,-1.)) ;
#1432=DIRECTION('Axis2P3D XDirection',(0.732159474995,-0.681133249207,0.)) ;
#1436=DIRECTION('Axis2P3D Direction',(0.,0.,-1.)) ;
#1448=DIRECTION('Axis2P3D Direction',(-0.,-1.,-0.)) ;
#1449=DIRECTION('Axis2P3D XDirection',(-1.,0.,0.)) ;
#1453=DIRECTION('Vector Direction',(0.,0.,-1.)) ;
#1460=DIRECTION('Vector Direction',(-1.,0.,0.)) ;
#1472=DIRECTION('Axis2P3D Direction',(0.,0.,-1.)) ;
#1473=DIRECTION('Axis2P3D XDirection',(-7.65717784318E-016,-1.,-0.)) ;
#1477=DIRECTION('Axis2P3D Direction',(0.,0.,-1.)) ;
#1489=DIRECTION('Axis2P3D Direction',(-0.,-1.,0.)) ;
#1490=DIRECTION('Axis2P3D XDirection',(1.,-0.,-0.)) ;
#1494=DIRECTION('Axis2P3D Direction',(-0.,-1.,0.)) ;
#1514=DIRECTION('Axis2P3D Direction',(-0.,-1.,0.)) ;
#1515=DIRECTION('Axis2P3D XDirection',(-1.,0.,1.22460635382E-016)) ;
#1526=DIRECTION('Axis2P3D Direction',(0.,0.,-1.)) ;
#1527=DIRECTION('Axis2P3D XDirection',(0.,-1.,0.)) ;
#1531=DIRECTION('Axis2P3D Direction',(0.,0.,-1.)) ;
#1543=DIRECTION('Axis2P3D Direction',(0.,0.,-1.)) ;
#1544=DIRECTION('Axis2P3D XDirection',(0.,1.,0.)) ;
#1548=DIRECTION('Vector Direction',(-1.,0.,0.)) ;
#1572=DIRECTION('Vector Direction',(1.,0.,0.)) ;
#1596=DIRECTION('Axis2P3D Direction',(0.,1.,-0.)) ;
#1597=DIRECTION('Axis2P3D XDirection',(-1.,0.,-0.)) ;
#1601=DIRECTION('Vector Direction',(-1.,0.,0.)) ;
#1613=DIRECTION('Axis2P3D Direction',(0.,-1.,0.)) ;
#1614=DIRECTION('Axis2P3D XDirection',(1.,0.,0.)) ;
#1618=DIRECTION('Vector Direction',(1.,0.,0.)) ;
#1630=DIRECTION('Axis2P3D Direction',(-0.,0.,1.)) ;
#1631=DIRECTION('Axis2P3D XDirection',(1.,0.,0.)) ;
#48=AXIS2_PLACEMENT_3D(' ',#47,$,$) ;
#55=AXIS2_PLACEMENT_3D('Cylinder Axis2P3D',#52,#53,#54) ;
#68=AXIS2_PLACEMENT_3D('Circle Axis2P3D',#66,#67,$) ;
#82=AXIS2_PLACEMENT_3D('Circle Axis2P3D',#80,#81,$) ;
#95=AXIS2_PLACEMENT_3D('Plane Axis2P3D',#92,#93,#94) ;
#197=AXIS2_PLACEMENT_3D('Circle Axis2P3D',#195,#196,$) ;
#207=AXIS2_PLACEMENT_3D('Circle Axis2P3D',#205,#206,$) ;
#220=AXIS2_PLACEMENT_3D('Plane Axis2P3D',#217,#218,#219) ;
#328=AXIS2_PLACEMENT_3D('Plane Axis2P3D',#325,#326,#327) ;
#332=AXIS2_PLACEMENT_3D('Circle Axis2P3D',#330,#331,$) ;
#346=AXIS2_PLACEMENT_3D('Circle Axis2P3D',#344,#345,$) ;
#353=AXIS2_PLACEMENT_3D('Circle Axis2P3D',#351,#352,$) ;
#360=AXIS2_PLACEMENT_3D('Circle Axis2P3D',#358,#359,$) ;
#388=AXIS2_PLACEMENT_3D('Circle Axis2P3D',#386,#387,$) ;
#395=AXIS2_PLACEMENT_3D('Circle Axis2P3D',#393,#394,$) ;
#402=AXIS2_PLACEMENT_3D('Circle Axis2P3D',#400,#401,$) ;
#416=AXIS2_PLACEMENT_3D('Circle Axis2P3D',#414,#415,$) ;
#446=AXIS2_PLACEMENT_3D('Plane Axis2P3D',#443,#444,#445) ;
#450=AXIS2_PLACEMENT_3D('Circle Axis2P3D',#448,#449,$) ;
#464=AXIS2_PLACEMENT_3D('Circle Axis2P3D',#462,#463,$) ;
#492=AXIS2_PLACEMENT_3D('Circle Axis2P3D',#490,#491,$) ;
#506=AXIS2_PLACEMENT_3D('Circle Axis2P3D',#504,#505,$) ;
#526=AXIS2_PLACEMENT_3D('Circle Axis2P3D',#524,#525,$) ;
#538=AXIS2_PLACEMENT_3D('Circle Axis2P3D',#536,#537,$) ;
#552=AXIS2_PLACEMENT_3D('Circle Axis2P3D',#550,#551,$) ;
#559=AXIS2_PLACEMENT_3D('Circle Axis2P3D',#557,#558,$) ;
#566=AXIS2_PLACEMENT_3D('Circle Axis2P3D',#564,#565,$) ;
#594=AXIS2_PLACEMENT_3D('Circle Axis2P3D',#592,#593,$) ;
#601=AXIS2_PLACEMENT_3D('Circle Axis2P3D',#599,#600,$) ;
#608=AXIS2_PLACEMENT_3D('Circle Axis2P3D',#606,#607,$) ;
#640=AXIS2_PLACEMENT_3D('Cylinder Axis2P3D',#637,#638,#639) ;
#651=AXIS2_PLACEMENT_3D('Circle Axis2P3D',#649,#650,$) ;
#664=AXIS2_PLACEMENT_3D('Cylinder Axis2P3D',#661,#662,#663) ;
#668=AXIS2_PLACEMENT_3D('Circle Axis2P3D',#666,#667,$) ;
#688=AXIS2_PLACEMENT_3D('Cylinder Axis2P3D',#685,#686,#687) ;
#692=AXIS2_PLACEMENT_3D('Circle Axis2P3D',#690,#691,$) ;
#712=AXIS2_PLACEMENT_3D('Cylinder Axis2P3D',#709,#710,#711) ;
#723=AXIS2_PLACEMENT_3D('Circle Axis2P3D',#721,#722,$) ;
#743=AXIS2_PLACEMENT_3D('Cylinder Axis2P3D',#740,#741,#742) ;
#754=AXIS2_PLACEMENT_3D('Circle Axis2P3D',#752,#753,$) ;
#774=AXIS2_PLACEMENT_3D('Plane Axis2P3D',#771,#772,#773) ;
#798=AXIS2_PLACEMENT_3D('Plane Axis2P3D',#795,#796,#797) ;
#822=AXIS2_PLACEMENT_3D('Cylinder Axis2P3D',#819,#820,#821) ;
#833=AXIS2_PLACEMENT_3D('Circle Axis2P3D',#831,#832,$) ;
#853=AXIS2_PLACEMENT_3D('Plane Axis2P3D',#850,#851,#852) ;
#884=AXIS2_PLACEMENT_3D('Plane Axis2P3D',#881,#882,#883) ;
#908=AXIS2_PLACEMENT_3D('Plane Axis2P3D',#905,#906,#907) ;
#912=AXIS2_PLACEMENT_3D('Circle Axis2P3D',#910,#911,$) ;
#928=AXIS2_PLACEMENT_3D('Circle Axis2P3D',#926,#927,$) ;
#955=AXIS2_PLACEMENT_3D('Cylinder Axis2P3D',#952,#953,#954) ;
#966=AXIS2_PLACEMENT_3D('Circle Axis2P3D',#964,#965,$) ;
#979=AXIS2_PLACEMENT_3D('Cylinder Axis2P3D',#976,#977,#978) ;
#990=AXIS2_PLACEMENT_3D('Circle Axis2P3D',#988,#989,$) ;
#1010=AXIS2_PLACEMENT_3D('Cylinder Axis2P3D',#1007,#1008,#1009) ;
#1021=AXIS2_PLACEMENT_3D('Circle Axis2P3D',#1019,#1020,$) ;
#1041=AXIS2_PLACEMENT_3D('Plane Axis2P3D',#1038,#1039,#1040) ;
#1072=AXIS2_PLACEMENT_3D('Plane Axis2P3D',#1069,#1070,#1071) ;
#1096=AXIS2_PLACEMENT_3D('Cylinder Axis2P3D',#1093,#1094,#1095) ;
#1107=AXIS2_PLACEMENT_3D('Circle Axis2P3D',#1105,#1106,$) ;
#1127=AXIS2_PLACEMENT_3D('Cylinder Axis2P3D',#1124,#1125,#1126) ;
#1138=AXIS2_PLACEMENT_3D('Circle Axis2P3D',#1136,#1137,$) ;
#1158=AXIS2_PLACEMENT_3D('Plane Axis2P3D',#1155,#1156,#1157) ;
#1175=AXIS2_PLACEMENT_3D('Plane Axis2P3D',#1172,#1173,#1174) ;
#1199=AXIS2_PLACEMENT_3D('Cylinder Axis2P3D',#1196,#1197,#1198) ;
#1210=AXIS2_PLACEMENT_3D('Circle Axis2P3D',#1208,#1209,$) ;
#1223=AXIS2_PLACEMENT_3D('Cylinder Axis2P3D',#1220,#1221,#1222) ;
#1227=AXIS2_PLACEMENT_3D('Circle Axis2P3D',#1225,#1226,$) ;
#1240=AXIS2_PLACEMENT_3D('Plane Axis2P3D',#1237,#1238,#1239) ;
#1257=AXIS2_PLACEMENT_3D('Cylinder Axis2P3D',#1254,#1255,#1256) ;
#1261=AXIS2_PLACEMENT_3D('Circle Axis2P3D',#1259,#1260,$) ;
#1274=AXIS2_PLACEMENT_3D('Cylinder Axis2P3D',#1271,#1272,#1273) ;
#1285=AXIS2_PLACEMENT_3D('Circle Axis2P3D',#1283,#1284,$) ;
#1298=AXIS2_PLACEMENT_3D('Plane Axis2P3D',#1295,#1296,#1297) ;
#1315=AXIS2_PLACEMENT_3D('Plane Axis2P3D',#1312,#1313,#1314) ;
#1339=AXIS2_PLACEMENT_3D('Plane Axis2P3D',#1336,#1337,#1338) ;
#1358=AXIS2_PLACEMENT_3D('Cylinder Axis2P3D',#1355,#1356,#1357) ;
#1362=AXIS2_PLACEMENT_3D('Circle Axis2P3D',#1360,#1361,$) ;
#1375=AXIS2_PLACEMENT_3D('Cylinder Axis2P3D',#1372,#1373,#1374) ;
#1379=AXIS2_PLACEMENT_3D('Circle Axis2P3D',#1377,#1378,$) ;
#1392=AXIS2_PLACEMENT_3D('Cylinder Axis2P3D',#1389,#1390,#1391) ;
#1403=AXIS2_PLACEMENT_3D('Circle Axis2P3D',#1401,#1402,$) ;
#1416=AXIS2_PLACEMENT_3D('Plane Axis2P3D',#1413,#1414,#1415) ;
#1433=AXIS2_PLACEMENT_3D('Cylinder Axis2P3D',#1430,#1431,#1432) ;
#1437=AXIS2_PLACEMENT_3D('Circle Axis2P3D',#1435,#1436,$) ;
#1450=AXIS2_PLACEMENT_3D('Plane Axis2P3D',#1447,#1448,#1449) ;
#1474=AXIS2_PLACEMENT_3D('Cylinder Axis2P3D',#1471,#1472,#1473) ;
#1478=AXIS2_PLACEMENT_3D('Circle Axis2P3D',#1476,#1477,$) ;
#1491=AXIS2_PLACEMENT_3D('Plane Axis2P3D',#1488,#1489,#1490) ;
#1495=AXIS2_PLACEMENT_3D('Circle Axis2P3D',#1493,#1494,$) ;
#1516=AXIS2_PLACEMENT_3D('Cylinder Axis2P3D',#1513,#1514,#1515) ;
#1528=AXIS2_PLACEMENT_3D('Cylinder Axis2P3D',#1525,#1526,#1527) ;
#1532=AXIS2_PLACEMENT_3D('Circle Axis2P3D',#1530,#1531,$) ;
#1545=AXIS2_PLACEMENT_3D('Plane Axis2P3D',#1542,#1543,#1544) ;
#1598=AXIS2_PLACEMENT_3D('Plane Axis2P3D',#1595,#1596,#1597) ;
#1615=AXIS2_PLACEMENT_3D('Plane Axis2P3D',#1612,#1613,#1614) ;
#1632=AXIS2_PLACEMENT_3D('Plane Axis2P3D',#1629,#1630,#1631) ;
#40=PRODUCT_DEFINITION_SHAPE(' ',' ',#14) ;
#31=APPROVAL_PERSON_ORGANIZATION(#25,#21,#19) ;
#25=PERSON_AND_ORGANIZATION(#22,#23) ;
#22=PERSON(' ',' ',' ',$,$,$) ;
#23=ORGANIZATION(' ',' ',' ') ;
#21=APPROVAL(#20,' ') ;
#20=APPROVAL_STATUS('not_yet_approved') ;
#19=APPROVAL_ROLE('APPROVER') ;
#13=DATE_AND_TIME(#11,#12) ;
#12=LOCAL_TIME(17,10,58.,#10) ;
#10=COORDINATED_UNIVERSAL_TIME_OFFSET(0,0,.AHEAD.) ;
#86=ORIENTED_EDGE('',*,*,#65,.F.) ;
#87=ORIENTED_EDGE('',*,*,#72,.T.) ;
#88=ORIENTED_EDGE('',*,*,#79,.T.) ;
#89=ORIENTED_EDGE('',*,*,#84,.T.) ;
#182=ORIENTED_EDGE('',*,*,#105,.F.) ;
#183=ORIENTED_EDGE('',*,*,#112,.T.) ;
#184=ORIENTED_EDGE('',*,*,#119,.F.) ;
#185=ORIENTED_EDGE('',*,*,#126,.F.) ;
#186=ORIENTED_EDGE('',*,*,#133,.F.) ;
#187=ORIENTED_EDGE('',*,*,#140,.F.) ;
#188=ORIENTED_EDGE('',*,*,#147,.T.) ;
#189=ORIENTED_EDGE('',*,*,#154,.T.) ;
#190=ORIENTED_EDGE('',*,*,#161,.F.) ;
#191=ORIENTED_EDGE('',*,*,#168,.F.) ;
#192=ORIENTED_EDGE('',*,*,#175,.T.) ;
#193=ORIENTED_EDGE('',*,*,#180,.T.) ;
#201=ORIENTED_EDGE('',*,*,#84,.F.) ;
#202=ORIENTED_EDGE('',*,*,#199,.F.) ;
#211=ORIENTED_EDGE('',*,*,#79,.F.) ;
#212=ORIENTED_EDGE('',*,*,#209,.T.) ;
#213=ORIENTED_EDGE('',*,*,#65,.T.) ;
#214=ORIENTED_EDGE('',*,*,#199,.T.) ;
#307=ORIENTED_EDGE('',*,*,#230,.F.) ;
#308=ORIENTED_EDGE('',*,*,#237,.F.) ;
#309=ORIENTED_EDGE('',*,*,#244,.T.) ;
#310=ORIENTED_EDGE('',*,*,#251,.F.) ;
#311=ORIENTED_EDGE('',*,*,#258,.F.) ;
#312=ORIENTED_EDGE('',*,*,#265,.F.) ;
#313=ORIENTED_EDGE('',*,*,#272,.T.) ;
#314=ORIENTED_EDGE('',*,*,#279,.T.) ;
#315=ORIENTED_EDGE('',*,*,#286,.T.) ;
#316=ORIENTED_EDGE('',*,*,#293,.T.) ;
#317=ORIENTED_EDGE('',*,*,#300,.F.) ;
#318=ORIENTED_EDGE('',*,*,#305,.T.) ;
#321=ORIENTED_EDGE('',*,*,#72,.F.) ;
#322=ORIENTED_EDGE('',*,*,#209,.F.) ;
#425=ORIENTED_EDGE('',*,*,#336,.T.) ;
#426=ORIENTED_EDGE('',*,*,#343,.F.) ;
#427=ORIENTED_EDGE('',*,*,#350,.T.) ;
#428=ORIENTED_EDGE('',*,*,#357,.F.) ;
#429=ORIENTED_EDGE('',*,*,#364,.T.) ;
#430=ORIENTED_EDGE('',*,*,#371,.T.) ;
#431=ORIENTED_EDGE('',*,*,#378,.T.) ;
#432=ORIENTED_EDGE('',*,*,#385,.F.) ;
#433=ORIENTED_EDGE('',*,*,#392,.F.) ;
#434=ORIENTED_EDGE('',*,*,#399,.T.) ;
#435=ORIENTED_EDGE('',*,*,#406,.F.) ;
#436=ORIENTED_EDGE('',*,*,#413,.T.) ;
#437=ORIENTED_EDGE('',*,*,#418,.T.) ;
#438=ORIENTED_EDGE('',*,*,#305,.F.) ;
#439=ORIENTED_EDGE('',*,*,#423,.F.) ;
#440=ORIENTED_EDGE('',*,*,#147,.F.) ;
#510=ORIENTED_EDGE('',*,*,#154,.F.) ;
#511=ORIENTED_EDGE('',*,*,#423,.T.) ;
#512=ORIENTED_EDGE('',*,*,#300,.T.) ;
#513=ORIENTED_EDGE('',*,*,#454,.T.) ;
#514=ORIENTED_EDGE('',*,*,#461,.T.) ;
#515=ORIENTED_EDGE('',*,*,#468,.F.) ;
#516=ORIENTED_EDGE('',*,*,#475,.T.) ;
#517=ORIENTED_EDGE('',*,*,#482,.T.) ;
#518=ORIENTED_EDGE('',*,*,#489,.F.) ;
#519=ORIENTED_EDGE('',*,*,#496,.T.) ;
#520=ORIENTED_EDGE('',*,*,#503,.F.) ;
#521=ORIENTED_EDGE('',*,*,#508,.F.) ;
#619=ORIENTED_EDGE('',*,*,#530,.T.) ;
#620=ORIENTED_EDGE('',*,*,#175,.F.) ;
#621=ORIENTED_EDGE('',*,*,#535,.T.) ;
#622=ORIENTED_EDGE('',*,*,#279,.F.) ;
#623=ORIENTED_EDGE('',*,*,#542,.T.) ;
#624=ORIENTED_EDGE('',*,*,#549,.F.) ;
#625=ORIENTED_EDGE('',*,*,#556,.F.) ;
#626=ORIENTED_EDGE('',*,*,#563,.T.) ;
#627=ORIENTED_EDGE('',*,*,#570,.F.) ;
#628=ORIENTED_EDGE('',*,*,#577,.T.) ;
#629=ORIENTED_EDGE('',*,*,#584,.T.) ;
#630=ORIENTED_EDGE('',*,*,#591,.F.) ;
#631=ORIENTED_EDGE('',*,*,#598,.T.) ;
#632=ORIENTED_EDGE('',*,*,#605,.F.) ;
#633=ORIENTED_EDGE('',*,*,#612,.T.) ;
#634=ORIENTED_EDGE('',*,*,#617,.T.) ;
#655=ORIENTED_EDGE('',*,*,#180,.F.) ;
#656=ORIENTED_EDGE('',*,*,#530,.F.) ;
#657=ORIENTED_EDGE('',*,*,#648,.T.) ;
#658=ORIENTED_EDGE('',*,*,#653,.F.) ;
#679=ORIENTED_EDGE('',*,*,#272,.F.) ;
#680=ORIENTED_EDGE('',*,*,#672,.T.) ;
#681=ORIENTED_EDGE('',*,*,#677,.T.) ;
#682=ORIENTED_EDGE('',*,*,#542,.F.) ;
#703=ORIENTED_EDGE('',*,*,#293,.F.) ;
#704=ORIENTED_EDGE('',*,*,#696,.T.) ;
#705=ORIENTED_EDGE('',*,*,#701,.T.) ;
#706=ORIENTED_EDGE('',*,*,#454,.F.) ;
#734=ORIENTED_EDGE('',*,*,#720,.F.) ;
#735=ORIENTED_EDGE('',*,*,#727,.T.) ;
#736=ORIENTED_EDGE('',*,*,#732,.T.) ;
#737=ORIENTED_EDGE('',*,*,#350,.F.) ;
#765=ORIENTED_EDGE('',*,*,#751,.F.) ;
#766=ORIENTED_EDGE('',*,*,#758,.T.) ;
#767=ORIENTED_EDGE('',*,*,#763,.T.) ;
#768=ORIENTED_EDGE('',*,*,#364,.F.) ;
#789=ORIENTED_EDGE('',*,*,#763,.F.) ;
#790=ORIENTED_EDGE('',*,*,#782,.T.) ;
#791=ORIENTED_EDGE('',*,*,#787,.T.) ;
#792=ORIENTED_EDGE('',*,*,#371,.F.) ;
#813=ORIENTED_EDGE('',*,*,#787,.F.) ;
#814=ORIENTED_EDGE('',*,*,#806,.T.) ;
#815=ORIENTED_EDGE('',*,*,#811,.T.) ;
#816=ORIENTED_EDGE('',*,*,#378,.F.) ;
#844=ORIENTED_EDGE('',*,*,#830,.F.) ;
#845=ORIENTED_EDGE('',*,*,#837,.T.) ;
#846=ORIENTED_EDGE('',*,*,#842,.T.) ;
#847=ORIENTED_EDGE('',*,*,#399,.F.) ;
#875=ORIENTED_EDGE('',*,*,#861,.F.) ;
#876=ORIENTED_EDGE('',*,*,#868,.T.) ;
#877=ORIENTED_EDGE('',*,*,#873,.T.) ;
#878=ORIENTED_EDGE('',*,*,#413,.F.) ;
#899=ORIENTED_EDGE('',*,*,#461,.F.) ;
#900=ORIENTED_EDGE('',*,*,#701,.F.) ;
#901=ORIENTED_EDGE('',*,*,#892,.T.) ;
#902=ORIENTED_EDGE('',*,*,#897,.T.) ;
#944=ORIENTED_EDGE('',*,*,#918,.F.) ;
#945=ORIENTED_EDGE('',*,*,#925,.T.) ;
#946=ORIENTED_EDGE('',*,*,#930,.F.) ;
#947=ORIENTED_EDGE('',*,*,#475,.F.) ;
#948=ORIENTED_EDGE('',*,*,#937,.F.) ;
#949=ORIENTED_EDGE('',*,*,#942,.T.) ;
#970=ORIENTED_EDGE('',*,*,#930,.T.) ;
#971=ORIENTED_EDGE('',*,*,#963,.T.) ;
#972=ORIENTED_EDGE('',*,*,#968,.T.) ;
#973=ORIENTED_EDGE('',*,*,#482,.F.) ;
#1001=ORIENTED_EDGE('',*,*,#987,.F.) ;
#1002=ORIENTED_EDGE('',*,*,#994,.T.) ;
#1003=ORIENTED_EDGE('',*,*,#999,.T.) ;
#1004=ORIENTED_EDGE('',*,*,#496,.F.) ;
#1032=ORIENTED_EDGE('',*,*,#1018,.F.) ;
#1033=ORIENTED_EDGE('',*,*,#1025,.T.) ;
#1034=ORIENTED_EDGE('',*,*,#1030,.T.) ;
#1035=ORIENTED_EDGE('',*,*,#563,.F.) ;
#1063=ORIENTED_EDGE('',*,*,#1049,.F.) ;
#1064=ORIENTED_EDGE('',*,*,#1056,.T.) ;
#1065=ORIENTED_EDGE('',*,*,#1061,.T.) ;
#1066=ORIENTED_EDGE('',*,*,#577,.F.) ;
#1087=ORIENTED_EDGE('',*,*,#1061,.F.) ;
#1088=ORIENTED_EDGE('',*,*,#1080,.T.) ;
#1089=ORIENTED_EDGE('',*,*,#1085,.T.) ;
#1090=ORIENTED_EDGE('',*,*,#584,.F.) ;
#1118=ORIENTED_EDGE('',*,*,#1104,.F.) ;
#1119=ORIENTED_EDGE('',*,*,#1111,.T.) ;
#1120=ORIENTED_EDGE('',*,*,#1116,.T.) ;
#1121=ORIENTED_EDGE('',*,*,#598,.F.) ;
#1149=ORIENTED_EDGE('',*,*,#1135,.F.) ;
#1150=ORIENTED_EDGE('',*,*,#1142,.T.) ;
#1151=ORIENTED_EDGE('',*,*,#1147,.T.) ;
#1152=ORIENTED_EDGE('',*,*,#612,.F.) ;
#1166=ORIENTED_EDGE('',*,*,#617,.F.) ;
#1167=ORIENTED_EDGE('',*,*,#1147,.F.) ;
#1168=ORIENTED_EDGE('',*,*,#1164,.T.) ;
#1169=ORIENTED_EDGE('',*,*,#648,.F.) ;
#1190=ORIENTED_EDGE('',*,*,#963,.F.) ;
#1191=ORIENTED_EDGE('',*,*,#925,.F.) ;
#1192=ORIENTED_EDGE('',*,*,#1183,.T.) ;
#1193=ORIENTED_EDGE('',*,*,#1188,.T.) ;
#1214=ORIENTED_EDGE('',*,*,#1183,.F.) ;
#1215=ORIENTED_EDGE('',*,*,#918,.T.) ;
#1216=ORIENTED_EDGE('',*,*,#1207,.T.) ;
#1217=ORIENTED_EDGE('',*,*,#1212,.T.) ;
#1231=ORIENTED_EDGE('',*,*,#605,.T.) ;
#1232=ORIENTED_EDGE('',*,*,#1116,.F.) ;
#1233=ORIENTED_EDGE('',*,*,#1229,.F.) ;
#1234=ORIENTED_EDGE('',*,*,#1135,.T.) ;
#1248=ORIENTED_EDGE('',*,*,#591,.T.) ;
#1249=ORIENTED_EDGE('',*,*,#1085,.F.) ;
#1250=ORIENTED_EDGE('',*,*,#1246,.F.) ;
#1251=ORIENTED_EDGE('',*,*,#1104,.T.) ;
#1265=ORIENTED_EDGE('',*,*,#570,.T.) ;
#1266=ORIENTED_EDGE('',*,*,#1030,.F.) ;
#1267=ORIENTED_EDGE('',*,*,#1263,.F.) ;
#1268=ORIENTED_EDGE('',*,*,#1049,.T.) ;
#1289=ORIENTED_EDGE('',*,*,#556,.T.) ;
#1290=ORIENTED_EDGE('',*,*,#1282,.F.) ;
#1291=ORIENTED_EDGE('',*,*,#1287,.F.) ;
#1292=ORIENTED_EDGE('',*,*,#1018,.T.) ;
#1306=ORIENTED_EDGE('',*,*,#549,.T.) ;
#1307=ORIENTED_EDGE('',*,*,#677,.F.) ;
#1308=ORIENTED_EDGE('',*,*,#1304,.F.) ;
#1309=ORIENTED_EDGE('',*,*,#1282,.T.) ;
#1330=ORIENTED_EDGE('',*,*,#503,.T.) ;
#1331=ORIENTED_EDGE('',*,*,#999,.F.) ;
#1332=ORIENTED_EDGE('',*,*,#1323,.F.) ;
#1333=ORIENTED_EDGE('',*,*,#1328,.T.) ;
#1347=ORIENTED_EDGE('',*,*,#968,.F.) ;
#1348=ORIENTED_EDGE('',*,*,#1188,.F.) ;
#1349=ORIENTED_EDGE('',*,*,#1212,.F.) ;
#1350=ORIENTED_EDGE('',*,*,#1345,.F.) ;
#1351=ORIENTED_EDGE('',*,*,#987,.T.) ;
#1352=ORIENTED_EDGE('',*,*,#489,.T.) ;
#1366=ORIENTED_EDGE('',*,*,#468,.T.) ;
#1367=ORIENTED_EDGE('',*,*,#897,.F.) ;
#1368=ORIENTED_EDGE('',*,*,#1364,.F.) ;
#1369=ORIENTED_EDGE('',*,*,#937,.T.) ;
#1383=ORIENTED_EDGE('',*,*,#406,.T.) ;
#1384=ORIENTED_EDGE('',*,*,#842,.F.) ;
#1385=ORIENTED_EDGE('',*,*,#1381,.F.) ;
#1386=ORIENTED_EDGE('',*,*,#861,.T.) ;
#1407=ORIENTED_EDGE('',*,*,#392,.T.) ;
#1408=ORIENTED_EDGE('',*,*,#1400,.F.) ;
#1409=ORIENTED_EDGE('',*,*,#1405,.F.) ;
#1410=ORIENTED_EDGE('',*,*,#830,.T.) ;
#1424=ORIENTED_EDGE('',*,*,#385,.T.) ;
#1425=ORIENTED_EDGE('',*,*,#811,.F.) ;
#1426=ORIENTED_EDGE('',*,*,#1422,.F.) ;
#1427=ORIENTED_EDGE('',*,*,#1400,.T.) ;
#1441=ORIENTED_EDGE('',*,*,#357,.T.) ;
#1442=ORIENTED_EDGE('',*,*,#732,.F.) ;
#1443=ORIENTED_EDGE('',*,*,#1439,.F.) ;
#1444=ORIENTED_EDGE('',*,*,#751,.T.) ;
#1465=ORIENTED_EDGE('',*,*,#1458,.T.) ;
#1466=ORIENTED_EDGE('',*,*,#1463,.F.) ;
#1467=ORIENTED_EDGE('',*,*,#720,.T.) ;
#1468=ORIENTED_EDGE('',*,*,#343,.T.) ;
#1482=ORIENTED_EDGE('',*,*,#873,.F.) ;
#1483=ORIENTED_EDGE('',*,*,#1480,.T.) ;
#1484=ORIENTED_EDGE('',*,*,#230,.T.) ;
#1485=ORIENTED_EDGE('',*,*,#418,.F.) ;
#1499=ORIENTED_EDGE('',*,*,#1497,.T.) ;
#1500=ORIENTED_EDGE('',*,*,#1323,.T.) ;
#1501=ORIENTED_EDGE('',*,*,#994,.F.) ;
#1502=ORIENTED_EDGE('',*,*,#1345,.T.) ;
#1503=ORIENTED_EDGE('',*,*,#1207,.F.) ;
#1504=ORIENTED_EDGE('',*,*,#942,.F.) ;
#1505=ORIENTED_EDGE('',*,*,#1364,.T.) ;
#1506=ORIENTED_EDGE('',*,*,#892,.F.) ;
#1507=ORIENTED_EDGE('',*,*,#696,.F.) ;
#1508=ORIENTED_EDGE('',*,*,#286,.F.) ;
#1509=ORIENTED_EDGE('',*,*,#535,.F.) ;
#1510=ORIENTED_EDGE('',*,*,#168,.T.) ;
#1519=ORIENTED_EDGE('',*,*,#508,.T.) ;
#1520=ORIENTED_EDGE('',*,*,#1328,.F.) ;
#1521=ORIENTED_EDGE('',*,*,#1497,.F.) ;
#1522=ORIENTED_EDGE('',*,*,#161,.T.) ;
#1536=ORIENTED_EDGE('',*,*,#1458,.F.) ;
#1537=ORIENTED_EDGE('',*,*,#336,.F.) ;
#1538=ORIENTED_EDGE('',*,*,#140,.T.) ;
#1539=ORIENTED_EDGE('',*,*,#1534,.F.) ;
#1553=ORIENTED_EDGE('',*,*,#1551,.F.) ;
#1554=ORIENTED_EDGE('',*,*,#237,.T.) ;
#1555=ORIENTED_EDGE('',*,*,#1480,.F.) ;
#1556=ORIENTED_EDGE('',*,*,#868,.F.) ;
#1557=ORIENTED_EDGE('',*,*,#1381,.T.) ;
#1558=ORIENTED_EDGE('',*,*,#837,.F.) ;
#1559=ORIENTED_EDGE('',*,*,#1405,.T.) ;
#1560=ORIENTED_EDGE('',*,*,#1422,.T.) ;
#1561=ORIENTED_EDGE('',*,*,#806,.F.) ;
#1562=ORIENTED_EDGE('',*,*,#782,.F.) ;
#1563=ORIENTED_EDGE('',*,*,#758,.F.) ;
#1564=ORIENTED_EDGE('',*,*,#1439,.T.) ;
#1565=ORIENTED_EDGE('',*,*,#727,.F.) ;
#1566=ORIENTED_EDGE('',*,*,#1463,.T.) ;
#1567=ORIENTED_EDGE('',*,*,#1534,.T.) ;
#1568=ORIENTED_EDGE('',*,*,#133,.T.) ;
#1577=ORIENTED_EDGE('',*,*,#1575,.F.) ;
#1578=ORIENTED_EDGE('',*,*,#105,.T.) ;
#1579=ORIENTED_EDGE('',*,*,#653,.T.) ;
#1580=ORIENTED_EDGE('',*,*,#1164,.F.) ;
#1581=ORIENTED_EDGE('',*,*,#1142,.F.) ;
#1582=ORIENTED_EDGE('',*,*,#1229,.T.) ;
#1583=ORIENTED_EDGE('',*,*,#1111,.F.) ;
#1584=ORIENTED_EDGE('',*,*,#1246,.T.) ;
#1585=ORIENTED_EDGE('',*,*,#1080,.F.) ;
#1586=ORIENTED_EDGE('',*,*,#1056,.F.) ;
#1587=ORIENTED_EDGE('',*,*,#1263,.T.) ;
#1588=ORIENTED_EDGE('',*,*,#1025,.F.) ;
#1589=ORIENTED_EDGE('',*,*,#1287,.T.) ;
#1590=ORIENTED_EDGE('',*,*,#1304,.T.) ;
#1591=ORIENTED_EDGE('',*,*,#672,.F.) ;
#1592=ORIENTED_EDGE('',*,*,#265,.T.) ;
#1606=ORIENTED_EDGE('',*,*,#244,.F.) ;
#1607=ORIENTED_EDGE('',*,*,#1551,.T.) ;
#1608=ORIENTED_EDGE('',*,*,#126,.T.) ;
#1609=ORIENTED_EDGE('',*,*,#1604,.F.) ;
#1623=ORIENTED_EDGE('',*,*,#112,.F.) ;
#1624=ORIENTED_EDGE('',*,*,#1575,.T.) ;
#1625=ORIENTED_EDGE('',*,*,#258,.T.) ;
#1626=ORIENTED_EDGE('',*,*,#1621,.F.) ;
#1635=ORIENTED_EDGE('',*,*,#251,.T.) ;
#1636=ORIENTED_EDGE('',*,*,#1604,.T.) ;
#1637=ORIENTED_EDGE('',*,*,#119,.T.) ;
#1638=ORIENTED_EDGE('',*,*,#1621,.T.) ;
#203=FACE_BOUND('',#200,.T.) ;
#323=FACE_BOUND('',#320,.T.) ;
#51=CLOSED_SHELL('Closed Shell',(#91,#204,#216,#324,#442,#523,#636,#660,#684,#708,#739,#770,#794,#818,#849,#880,#904,#951,#975,#1006,#1037,#1068,#1092,#1123,#1154,#1171,#1195,#1219,#1236,#1253,#1270,#1294,#1311,#1335,#1354,#1371,#1388,#1412,#1429,#1446,#1470,#1487,#1512,#1524,#1541,#1570,#1594,#1611,#1628,#1640)) ;
#59=VECTOR('Line Direction',#58,1.) ;
#75=VECTOR('Line Direction',#74,1.) ;
#99=VECTOR('Line Direction',#98,1.) ;
#108=VECTOR('Line Direction',#107,1.) ;
#115=VECTOR('Line Direction',#114,1.) ;
#122=VECTOR('Line Direction',#121,1.) ;
#129=VECTOR('Line Direction',#128,1.) ;
#136=VECTOR('Line Direction',#135,1.) ;
#143=VECTOR('Line Direction',#142,1.) ;
#150=VECTOR('Line Direction',#149,1.) ;
#157=VECTOR('Line Direction',#156,1.) ;
#164=VECTOR('Line Direction',#163,1.) ;
#171=VECTOR('Line Direction',#170,1.) ;
#178=VECTOR('Line Direction',#177,1.) ;
#224=VECTOR('Line Direction',#223,1.) ;
#233=VECTOR('Line Direction',#232,1.) ;
#240=VECTOR('Line Direction',#239,1.) ;
#247=VECTOR('Line Direction',#246,1.) ;
#254=VECTOR('Line Direction',#253,1.) ;
#261=VECTOR('Line Direction',#260,1.) ;
#268=VECTOR('Line Direction',#267,1.) ;
#275=VECTOR('Line Direction',#274,1.) ;
#282=VECTOR('Line Direction',#281,1.) ;
#289=VECTOR('Line Direction',#288,1.) ;
#296=VECTOR('Line Direction',#295,1.) ;
#303=VECTOR('Line Direction',#302,1.) ;
#339=VECTOR('Line Direction',#338,1.) ;
#367=VECTOR('Line Direction',#366,1.) ;
#374=VECTOR('Line Direction',#373,1.) ;
#381=VECTOR('Line Direction',#380,1.) ;
#409=VECTOR('Line Direction',#408,1.) ;
#421=VECTOR('Line Direction',#420,1.) ;
#457=VECTOR('Line Direction',#456,1.) ;
#471=VECTOR('Line Direction',#470,1.) ;
#478=VECTOR('Line Direction',#477,1.) ;
#485=VECTOR('Line Direction',#484,1.) ;
#499=VECTOR('Line Direction',#498,1.) ;
#533=VECTOR('Line Direction',#532,1.) ;
#545=VECTOR('Line Direction',#544,1.) ;
#573=VECTOR('Line Direction',#572,1.) ;
#580=VECTOR('Line Direction',#579,1.) ;
#587=VECTOR('Line Direction',#586,1.) ;
#615=VECTOR('Line Direction',#614,1.) ;
#644=VECTOR('Line Direction',#643,1.) ;
#675=VECTOR('Line Direction',#674,1.) ;
#699=VECTOR('Line Direction',#698,1.) ;
#716=VECTOR('Line Direction',#715,1.) ;
#730=VECTOR('Line Direction',#729,1.) ;
#747=VECTOR('Line Direction',#746,1.) ;
#761=VECTOR('Line Direction',#760,1.) ;
#778=VECTOR('Line Direction',#777,1.) ;
#785=VECTOR('Line Direction',#784,1.) ;
#802=VECTOR('Line Direction',#801,1.) ;
#809=VECTOR('Line Direction',#808,1.) ;
#826=VECTOR('Line Direction',#825,1.) ;
#840=VECTOR('Line Direction',#839,1.) ;
#857=VECTOR('Line Direction',#856,1.) ;
#864=VECTOR('Line Direction',#863,1.) ;
#871=VECTOR('Line Direction',#870,1.) ;
#888=VECTOR('Line Direction',#887,1.) ;
#895=VECTOR('Line Direction',#894,1.) ;
#921=VECTOR('Line Direction',#920,1.) ;
#933=VECTOR('Line Direction',#932,1.) ;
#940=VECTOR('Line Direction',#939,1.) ;
#959=VECTOR('Line Direction',#958,1.) ;
#983=VECTOR('Line Direction',#982,1.) ;
#997=VECTOR('Line Direction',#996,1.) ;
#1014=VECTOR('Line Direction',#1013,1.) ;
#1028=VECTOR('Line Direction',#1027,1.) ;
#1045=VECTOR('Line Direction',#1044,1.) ;
#1052=VECTOR('Line Direction',#1051,1.) ;
#1059=VECTOR('Line Direction',#1058,1.) ;
#1076=VECTOR('Line Direction',#1075,1.) ;
#1083=VECTOR('Line Direction',#1082,1.) ;
#1100=VECTOR('Line Direction',#1099,1.) ;
#1114=VECTOR('Line Direction',#1113,1.) ;
#1131=VECTOR('Line Direction',#1130,1.) ;
#1145=VECTOR('Line Direction',#1144,1.) ;
#1162=VECTOR('Line Direction',#1161,1.) ;
#1179=VECTOR('Line Direction',#1178,1.) ;
#1186=VECTOR('Line Direction',#1185,1.) ;
#1203=VECTOR('Line Direction',#1202,1.) ;
#1244=VECTOR('Line Direction',#1243,1.) ;
#1278=VECTOR('Line Direction',#1277,1.) ;
#1302=VECTOR('Line Direction',#1301,1.) ;
#1319=VECTOR('Line Direction',#1318,1.) ;
#1326=VECTOR('Line Direction',#1325,1.) ;
#1343=VECTOR('Line Direction',#1342,1.) ;
#1396=VECTOR('Line Direction',#1395,1.) ;
#1420=VECTOR('Line Direction',#1419,1.) ;
#1454=VECTOR('Line Direction',#1453,1.) ;
#1461=VECTOR('Line Direction',#1460,1.) ;
#1549=VECTOR('Line Direction',#1548,1.) ;
#1573=VECTOR('Line Direction',#1572,1.) ;
#1602=VECTOR('Line Direction',#1601,1.) ;
#1619=VECTOR('Line Direction',#1618,1.) ;
#1642=ADVANCED_BREP_SHAPE_REPRESENTATION('NONE',(#1641),#46) ;
#49=SHAPE_REPRESENTATION(' ',(#48),#46) ;
#91=ADVANCED_FACE('PartBody',(#90),#56,.F.) ;
#204=ADVANCED_FACE('PartBody',(#194,#203),#96,.T.) ;
#216=ADVANCED_FACE('PartBody',(#215),#56,.F.) ;
#324=ADVANCED_FACE('PartBody',(#319,#323),#221,.T.) ;
#442=ADVANCED_FACE('PartBody',(#441),#329,.T.) ;
#523=ADVANCED_FACE('PartBody',(#522),#447,.T.) ;
#636=ADVANCED_FACE('PartBody',(#635),#329,.T.) ;
#660=ADVANCED_FACE('PartBody',(#659),#641,.F.) ;
#684=ADVANCED_FACE('PartBody',(#683),#665,.T.) ;
#708=ADVANCED_FACE('PartBody',(#707),#689,.T.) ;
#739=ADVANCED_FACE('PartBody',(#738),#713,.T.) ;
#770=ADVANCED_FACE('PartBody',(#769),#744,.T.) ;
#794=ADVANCED_FACE('PartBody',(#793),#775,.T.) ;
#818=ADVANCED_FACE('PartBody',(#817),#799,.T.) ;
#849=ADVANCED_FACE('PartBody',(#848),#823,.T.) ;
#880=ADVANCED_FACE('PartBody',(#879),#854,.T.) ;
#904=ADVANCED_FACE('PartBody',(#903),#885,.T.) ;
#951=ADVANCED_FACE('PartBody',(#950),#909,.T.) ;
#975=ADVANCED_FACE('PartBody',(#974),#956,.T.) ;
#1006=ADVANCED_FACE('PartBody',(#1005),#980,.T.) ;
#1037=ADVANCED_FACE('PartBody',(#1036),#1011,.T.) ;
#1068=ADVANCED_FACE('PartBody',(#1067),#1042,.T.) ;
#1092=ADVANCED_FACE('PartBody',(#1091),#1073,.T.) ;
#1123=ADVANCED_FACE('PartBody',(#1122),#1097,.T.) ;
#1154=ADVANCED_FACE('PartBody',(#1153),#1128,.T.) ;
#1171=ADVANCED_FACE('PartBody',(#1170),#1159,.T.) ;
#1195=ADVANCED_FACE('PartBody',(#1194),#1176,.T.) ;
#1219=ADVANCED_FACE('PartBody',(#1218),#1200,.T.) ;
#1236=ADVANCED_FACE('PartBody',(#1235),#1224,.F.) ;
#1253=ADVANCED_FACE('PartBody',(#1252),#1241,.F.) ;
#1270=ADVANCED_FACE('PartBody',(#1269),#1258,.F.) ;
#1294=ADVANCED_FACE('PartBody',(#1293),#1275,.F.) ;
#1311=ADVANCED_FACE('PartBody',(#1310),#1299,.F.) ;
#1335=ADVANCED_FACE('PartBody',(#1334),#1316,.F.) ;
#1354=ADVANCED_FACE('PartBody',(#1353),#1340,.F.) ;
#1371=ADVANCED_FACE('PartBody',(#1370),#1359,.F.) ;
#1388=ADVANCED_FACE('PartBody',(#1387),#1376,.F.) ;
#1412=ADVANCED_FACE('PartBody',(#1411),#1393,.F.) ;
#1429=ADVANCED_FACE('PartBody',(#1428),#1417,.F.) ;
#1446=ADVANCED_FACE('PartBody',(#1445),#1434,.F.) ;
#1470=ADVANCED_FACE('PartBody',(#1469),#1451,.F.) ;
#1487=ADVANCED_FACE('PartBody',(#1486),#1475,.T.) ;
#1512=ADVANCED_FACE('PartBody',(#1511),#1492,.F.) ;
#1524=ADVANCED_FACE('PartBody',(#1523),#1517,.F.) ;
#1541=ADVANCED_FACE('PartBody',(#1540),#1529,.F.) ;
#1570=ADVANCED_FACE('PartBody',(#1569),#1546,.F.) ;
#1594=ADVANCED_FACE('PartBody',(#1593),#1546,.F.) ;
#1611=ADVANCED_FACE('PartBody',(#1610),#1599,.F.) ;
#1628=ADVANCED_FACE('PartBody',(#1627),#1616,.F.) ;
#1640=ADVANCED_FACE('PartBody',(#1639),#1633,.T.) ;
#4=APPLICATION_PROTOCOL_DEFINITION('international standard','config_control_design',1994,#1) ;
#32=APPROVAL_DATE_TIME(#13,#21) ;
#1641=MANIFOLD_SOLID_BREP('PartBody',#51) ;
#11=CALENDAR_DATE(2025,1,10) ;
#30=CC_DESIGN_APPROVAL(#21,(#16,#6,#14)) ;
#18=CC_DESIGN_DATE_AND_TIME_ASSIGNMENT(#13,#17,(#16)) ;
#29=CC_DESIGN_DATE_AND_TIME_ASSIGNMENT(#13,#28,(#14)) ;
#17=DATE_TIME_ROLE('classification_date') ;
#28=DATE_TIME_ROLE('creation_date') ;
#27=CC_DESIGN_PERSON_AND_ORGANIZATION_ASSIGNMENT(#25,#26,(#16)) ;
#33=CC_DESIGN_PERSON_AND_ORGANIZATION_ASSIGNMENT(#25,#34,(#6)) ;
#35=CC_DESIGN_PERSON_AND_ORGANIZATION_ASSIGNMENT(#25,#36,(#6,#14)) ;
#37=CC_DESIGN_PERSON_AND_ORGANIZATION_ASSIGNMENT(#25,#38,(#5)) ;
#26=PERSON_AND_ORGANIZATION_ROLE('classification_officer') ;
#34=PERSON_AND_ORGANIZATION_ROLE('design_supplier') ;
#36=PERSON_AND_ORGANIZATION_ROLE('creator') ;
#38=PERSON_AND_ORGANIZATION_ROLE('design_owner') ;
#39=CC_DESIGN_SECURITY_CLASSIFICATION(#16,(#6)) ;
#69=CIRCLE('generated circle',#68,1.) ;
#83=CIRCLE('generated circle',#82,1.) ;
#198=CIRCLE('generated circle',#197,1.) ;
#208=CIRCLE('generated circle',#207,1.) ;
#333=CIRCLE('generated circle',#332,0.2) ;
#347=CIRCLE('generated circle',#346,1.) ;
#354=CIRCLE('generated circle',#353,5.) ;
#361=CIRCLE('generated circle',#360,1.) ;
#389=CIRCLE('generated circle',#388,0.5) ;
#396=CIRCLE('generated circle',#395,5.5) ;
#403=CIRCLE('generated circle',#402,0.5) ;
#417=CIRCLE('generated circle',#416,0.5) ;
#451=CIRCLE('generated circle',#450,1.) ;
#465=CIRCLE('generated circle',#464,1.) ;
#493=CIRCLE('generated circle',#492,1.5) ;
#507=CIRCLE('generated circle',#506,0.5) ;
#527=CIRCLE('generated circle',#526,0.2) ;
#539=CIRCLE('generated circle',#538,0.5) ;
#553=CIRCLE('generated circle',#552,0.5) ;
#560=CIRCLE('generated circle',#559,5.5) ;
#567=CIRCLE('generated circle',#566,0.5) ;
#595=CIRCLE('generated circle',#594,1.) ;
#602=CIRCLE('generated circle',#601,5.) ;
#609=CIRCLE('generated circle',#608,1.) ;
#652=CIRCLE('generated circle',#651,0.2) ;
#669=CIRCLE('generated circle',#668,0.5) ;
#693=CIRCLE('generated circle',#692,1.) ;
#724=CIRCLE('generated circle',#723,1.) ;
#755=CIRCLE('generated circle',#754,1.) ;
#834=CIRCLE('generated circle',#833,5.5) ;
#913=CIRCLE('generated circle',#912,1.) ;
#929=CIRCLE('generated circle',#928,1.) ;
#967=CIRCLE('generated circle',#966,1.) ;
#991=CIRCLE('generated circle',#990,1.5) ;
#1022=CIRCLE('generated circle',#1021,5.5) ;
#1108=CIRCLE('generated circle',#1107,1.) ;
#1139=CIRCLE('generated circle',#1138,1.) ;
#1211=CIRCLE('generated circle',#1210,1.) ;
#1228=CIRCLE('generated circle',#1227,5.) ;
#1262=CIRCLE('generated circle',#1261,0.5) ;
#1286=CIRCLE('generated circle',#1285,0.5) ;
#1363=CIRCLE('generated circle',#1362,1.) ;
#1380=CIRCLE('generated circle',#1379,0.5) ;
#1404=CIRCLE('generated circle',#1403,0.5) ;
#1438=CIRCLE('generated circle',#1437,5.) ;
#1479=CIRCLE('generated circle',#1478,0.5) ;
#1496=CIRCLE('generated circle',#1495,0.5) ;
#1533=CIRCLE('generated circle',#1532,0.2) ;
#1643=SHAPE_REPRESENTATION_RELATIONSHIP(' ',' ',#49,#1642) ;
#56=CYLINDRICAL_SURFACE('generated cylinder',#55,1.) ;
#641=CYLINDRICAL_SURFACE('generated cylinder',#640,0.2) ;
#665=CYLINDRICAL_SURFACE('generated cylinder',#664,0.5) ;
#689=CYLINDRICAL_SURFACE('generated cylinder',#688,1.) ;
#713=CYLINDRICAL_SURFACE('generated cylinder',#712,1.) ;
#744=CYLINDRICAL_SURFACE('generated cylinder',#743,1.) ;
#823=CYLINDRICAL_SURFACE('generated cylinder',#822,5.5) ;
#956=CYLINDRICAL_SURFACE('generated cylinder',#955,1.) ;
#980=CYLINDRICAL_SURFACE('generated cylinder',#979,1.5) ;
#1011=CYLINDRICAL_SURFACE('generated cylinder',#1010,5.5) ;
#1097=CYLINDRICAL_SURFACE('generated cylinder',#1096,1.) ;
#1128=CYLINDRICAL_SURFACE('generated cylinder',#1127,1.) ;
#1200=CYLINDRICAL_SURFACE('generated cylinder',#1199,1.) ;
#1224=CYLINDRICAL_SURFACE('generated cylinder',#1223,5.) ;
#1258=CYLINDRICAL_SURFACE('generated cylinder',#1257,0.5) ;
#1275=CYLINDRICAL_SURFACE('generated cylinder',#1274,0.5) ;
#1359=CYLINDRICAL_SURFACE('generated cylinder',#1358,1.) ;
#1376=CYLINDRICAL_SURFACE('generated cylinder',#1375,0.5) ;
#1393=CYLINDRICAL_SURFACE('generated cylinder',#1392,0.5) ;
#1434=CYLINDRICAL_SURFACE('generated cylinder',#1433,5.) ;
#1475=CYLINDRICAL_SURFACE('generated cylinder',#1474,0.5) ;
#1517=CYLINDRICAL_SURFACE('generated cylinder',#1516,0.5) ;
#1529=CYLINDRICAL_SURFACE('generated cylinder',#1528,0.2) ;
#3=DESIGN_CONTEXT(' ',#1,'design') ;
#65=EDGE_CURVE('',#62,#64,#60,.F.) ;
#72=EDGE_CURVE('',#62,#71,#69,.T.) ;
#79=EDGE_CURVE('',#71,#78,#76,.F.) ;
#84=EDGE_CURVE('',#78,#64,#83,.F.) ;
#105=EDGE_CURVE('',#102,#104,#100,.T.) ;
#112=EDGE_CURVE('',#102,#111,#109,.T.) ;
#119=EDGE_CURVE('',#118,#111,#116,.F.) ;
#126=EDGE_CURVE('',#125,#118,#123,.T.) ;
#133=EDGE_CURVE('',#132,#125,#130,.T.) ;
#140=EDGE_CURVE('',#139,#132,#137,.F.) ;
#147=EDGE_CURVE('',#139,#146,#144,.T.) ;
#154=EDGE_CURVE('',#146,#153,#151,.T.) ;
#161=EDGE_CURVE('',#160,#153,#158,.T.) ;
#168=EDGE_CURVE('',#167,#160,#165,.T.) ;
#175=EDGE_CURVE('',#167,#174,#172,.T.) ;
#180=EDGE_CURVE('',#174,#104,#179,.F.) ;
#199=EDGE_CURVE('',#64,#78,#198,.T.) ;
#209=EDGE_CURVE('',#71,#62,#208,.T.) ;
#230=EDGE_CURVE('',#227,#229,#225,.T.) ;
#237=EDGE_CURVE('',#236,#227,#234,.T.) ;
#244=EDGE_CURVE('',#236,#243,#241,.T.) ;
#251=EDGE_CURVE('',#250,#243,#248,.T.) ;
#258=EDGE_CURVE('',#257,#250,#255,.T.) ;
#265=EDGE_CURVE('',#264,#257,#262,.T.) ;
#272=EDGE_CURVE('',#264,#271,#269,.T.) ;
#279=EDGE_CURVE('',#271,#278,#276,.T.) ;
#286=EDGE_CURVE('',#278,#285,#283,.T.) ;
#293=EDGE_CURVE('',#285,#292,#290,.T.) ;
#300=EDGE_CURVE('',#299,#292,#297,.T.) ;
#305=EDGE_CURVE('',#299,#229,#304,.T.) ;
#336=EDGE_CURVE('',#139,#335,#333,.F.) ;
#343=EDGE_CURVE('',#342,#335,#340,.T.) ;
#350=EDGE_CURVE('',#342,#349,#347,.T.) ;
#357=EDGE_CURVE('',#356,#349,#354,.T.) ;
#364=EDGE_CURVE('',#356,#363,#361,.T.) ;
#371=EDGE_CURVE('',#363,#370,#368,.T.) ;
#378=EDGE_CURVE('',#370,#377,#375,.T.) ;
#385=EDGE_CURVE('',#384,#377,#382,.T.) ;
#392=EDGE_CURVE('',#391,#384,#389,.T.) ;
#399=EDGE_CURVE('',#391,#398,#396,.T.) ;
#406=EDGE_CURVE('',#405,#398,#403,.T.) ;
#413=EDGE_CURVE('',#405,#412,#410,.T.) ;
#418=EDGE_CURVE('',#412,#229,#417,.T.) ;
#423=EDGE_CURVE('',#146,#299,#422,.T.) ;
#454=EDGE_CURVE('',#292,#453,#451,.T.) ;
#461=EDGE_CURVE('',#453,#460,#458,.T.) ;
#468=EDGE_CURVE('',#467,#460,#465,.T.) ;
#475=EDGE_CURVE('',#467,#474,#472,.T.) ;
#482=EDGE_CURVE('',#474,#481,#479,.T.) ;
#489=EDGE_CURVE('',#488,#481,#486,.T.) ;
#496=EDGE_CURVE('',#488,#495,#493,.T.) ;
#503=EDGE_CURVE('',#502,#495,#500,.T.) ;
#508=EDGE_CURVE('',#153,#502,#507,.T.) ;
#530=EDGE_CURVE('',#529,#174,#527,.F.) ;
#535=EDGE_CURVE('',#167,#278,#534,.T.) ;
#542=EDGE_CURVE('',#271,#541,#539,.T.) ;
#549=EDGE_CURVE('',#548,#541,#546,.T.) ;
#556=EDGE_CURVE('',#555,#548,#553,.T.) ;
#563=EDGE_CURVE('',#555,#562,#560,.T.) ;
#570=EDGE_CURVE('',#569,#562,#567,.T.) ;
#577=EDGE_CURVE('',#569,#576,#574,.T.) ;
#584=EDGE_CURVE('',#576,#583,#581,.T.) ;
#591=EDGE_CURVE('',#590,#583,#588,.T.) ;
#598=EDGE_CURVE('',#590,#597,#595,.T.) ;
#605=EDGE_CURVE('',#604,#597,#602,.T.) ;
#612=EDGE_CURVE('',#604,#611,#609,.T.) ;
#617=EDGE_CURVE('',#611,#529,#616,.T.) ;
#648=EDGE_CURVE('',#529,#647,#645,.F.) ;
#653=EDGE_CURVE('',#104,#647,#652,.T.) ;
#672=EDGE_CURVE('',#264,#671,#669,.T.) ;
#677=EDGE_CURVE('',#671,#541,#676,.T.) ;
#696=EDGE_CURVE('',#285,#695,#693,.T.) ;
#701=EDGE_CURVE('',#695,#453,#700,.T.) ;
#720=EDGE_CURVE('',#719,#342,#717,.T.) ;
#727=EDGE_CURVE('',#719,#726,#724,.T.) ;
#732=EDGE_CURVE('',#726,#349,#731,.T.) ;
#751=EDGE_CURVE('',#750,#356,#748,.T.) ;
#758=EDGE_CURVE('',#750,#757,#755,.T.) ;
#763=EDGE_CURVE('',#757,#363,#762,.T.) ;
#782=EDGE_CURVE('',#757,#781,#779,.T.) ;
#787=EDGE_CURVE('',#781,#370,#786,.T.) ;
#806=EDGE_CURVE('',#781,#805,#803,.T.) ;
#811=EDGE_CURVE('',#805,#377,#810,.T.) ;
#830=EDGE_CURVE('',#829,#391,#827,.T.) ;
#837=EDGE_CURVE('',#829,#836,#834,.T.) ;
#842=EDGE_CURVE('',#836,#398,#841,.T.) ;
#861=EDGE_CURVE('',#860,#405,#858,.T.) ;
#868=EDGE_CURVE('',#860,#867,#865,.T.) ;
#873=EDGE_CURVE('',#867,#412,#872,.T.) ;
#892=EDGE_CURVE('',#695,#891,#889,.T.) ;
#897=EDGE_CURVE('',#891,#460,#896,.T.) ;
#918=EDGE_CURVE('',#915,#917,#913,.F.) ;
#925=EDGE_CURVE('',#915,#924,#922,.T.) ;
#930=EDGE_CURVE('',#474,#924,#929,.F.) ;
#937=EDGE_CURVE('',#936,#467,#934,.T.) ;
#942=EDGE_CURVE('',#936,#917,#941,.T.) ;
#963=EDGE_CURVE('',#924,#962,#960,.T.) ;
#968=EDGE_CURVE('',#962,#481,#967,.F.) ;
#987=EDGE_CURVE('',#986,#488,#984,.T.) ;
#994=EDGE_CURVE('',#986,#993,#991,.T.) ;
#999=EDGE_CURVE('',#993,#495,#998,.T.) ;
#1018=EDGE_CURVE('',#1017,#555,#1015,.T.) ;
#1025=EDGE_CURVE('',#1017,#1024,#1022,.T.) ;
#1030=EDGE_CURVE('',#1024,#562,#1029,.T.) ;
#1049=EDGE_CURVE('',#1048,#569,#1046,.T.) ;
#1056=EDGE_CURVE('',#1048,#1055,#1053,.T.) ;
#1061=EDGE_CURVE('',#1055,#576,#1060,.T.) ;
#1080=EDGE_CURVE('',#1055,#1079,#1077,.T.) ;
#1085=EDGE_CURVE('',#1079,#583,#1084,.T.) ;
#1104=EDGE_CURVE('',#1103,#590,#1101,.T.) ;
#1111=EDGE_CURVE('',#1103,#1110,#1108,.T.) ;
#1116=EDGE_CURVE('',#1110,#597,#1115,.T.) ;
#1135=EDGE_CURVE('',#1134,#604,#1132,.T.) ;
#1142=EDGE_CURVE('',#1134,#1141,#1139,.T.) ;
#1147=EDGE_CURVE('',#1141,#611,#1146,.T.) ;
#1164=EDGE_CURVE('',#1141,#647,#1163,.T.) ;
#1183=EDGE_CURVE('',#915,#1182,#1180,.T.) ;
#1188=EDGE_CURVE('',#1182,#962,#1187,.T.) ;
#1207=EDGE_CURVE('',#917,#1206,#1204,.T.) ;
#1212=EDGE_CURVE('',#1206,#1182,#1211,.F.) ;
#1229=EDGE_CURVE('',#1134,#1110,#1228,.T.) ;
#1246=EDGE_CURVE('',#1103,#1079,#1245,.T.) ;
#1263=EDGE_CURVE('',#1048,#1024,#1262,.T.) ;
#1282=EDGE_CURVE('',#1281,#548,#1279,.T.) ;
#1287=EDGE_CURVE('',#1017,#1281,#1286,.T.) ;
#1304=EDGE_CURVE('',#1281,#671,#1303,.T.) ;
#1323=EDGE_CURVE('',#1322,#993,#1320,.T.) ;
#1328=EDGE_CURVE('',#1322,#502,#1327,.T.) ;
#1345=EDGE_CURVE('',#986,#1206,#1344,.T.) ;
#1364=EDGE_CURVE('',#936,#891,#1363,.T.) ;
#1381=EDGE_CURVE('',#860,#836,#1380,.T.) ;
#1400=EDGE_CURVE('',#1399,#384,#1397,.T.) ;
#1405=EDGE_CURVE('',#829,#1399,#1404,.T.) ;
#1422=EDGE_CURVE('',#1399,#805,#1421,.T.) ;
#1439=EDGE_CURVE('',#750,#726,#1438,.T.) ;
#1458=EDGE_CURVE('',#335,#1457,#1455,.F.) ;
#1463=EDGE_CURVE('',#719,#1457,#1462,.T.) ;
#1480=EDGE_CURVE('',#867,#227,#1479,.T.) ;
#1497=EDGE_CURVE('',#160,#1322,#1496,.T.) ;
#1534=EDGE_CURVE('',#1457,#132,#1533,.T.) ;
#1551=EDGE_CURVE('',#236,#125,#1550,.F.) ;
#1575=EDGE_CURVE('',#102,#257,#1574,.F.) ;
#1604=EDGE_CURVE('',#243,#118,#1603,.F.) ;
#1621=EDGE_CURVE('',#111,#250,#1620,.F.) ;
#85=EDGE_LOOP('',(#86,#87,#88,#89)) ;
#181=EDGE_LOOP('',(#182,#183,#184,#185,#186,#187,#188,#189,#190,#191,#192,#193)) ;
#200=EDGE_LOOP('',(#201,#202)) ;
#210=EDGE_LOOP('',(#211,#212,#213,#214)) ;
#306=EDGE_LOOP('',(#307,#308,#309,#310,#311,#312,#313,#314,#315,#316,#317,#318)) ;
#320=EDGE_LOOP('',(#321,#322)) ;
#424=EDGE_LOOP('',(#425,#426,#427,#428,#429,#430,#431,#432,#433,#434,#435,#436,#437,#438,#439,#440)) ;
#509=EDGE_LOOP('',(#510,#511,#512,#513,#514,#515,#516,#517,#518,#519,#520,#521)) ;
#618=EDGE_LOOP('',(#619,#620,#621,#622,#623,#624,#625,#626,#627,#628,#629,#630,#631,#632,#633,#634)) ;
#654=EDGE_LOOP('',(#655,#656,#657,#658)) ;
#678=EDGE_LOOP('',(#679,#680,#681,#682)) ;
#702=EDGE_LOOP('',(#703,#704,#705,#706)) ;
#733=EDGE_LOOP('',(#734,#735,#736,#737)) ;
#764=EDGE_LOOP('',(#765,#766,#767,#768)) ;
#788=EDGE_LOOP('',(#789,#790,#791,#792)) ;
#812=EDGE_LOOP('',(#813,#814,#815,#816)) ;
#843=EDGE_LOOP('',(#844,#845,#846,#847)) ;
#874=EDGE_LOOP('',(#875,#876,#877,#878)) ;
#898=EDGE_LOOP('',(#899,#900,#901,#902)) ;
#943=EDGE_LOOP('',(#944,#945,#946,#947,#948,#949)) ;
#969=EDGE_LOOP('',(#970,#971,#972,#973)) ;
#1000=EDGE_LOOP('',(#1001,#1002,#1003,#1004)) ;
#1031=EDGE_LOOP('',(#1032,#1033,#1034,#1035)) ;
#1062=EDGE_LOOP('',(#1063,#1064,#1065,#1066)) ;
#1086=EDGE_LOOP('',(#1087,#1088,#1089,#1090)) ;
#1117=EDGE_LOOP('',(#1118,#1119,#1120,#1121)) ;
#1148=EDGE_LOOP('',(#1149,#1150,#1151,#1152)) ;
#1165=EDGE_LOOP('',(#1166,#1167,#1168,#1169)) ;
#1189=EDGE_LOOP('',(#1190,#1191,#1192,#1193)) ;
#1213=EDGE_LOOP('',(#1214,#1215,#1216,#1217)) ;
#1230=EDGE_LOOP('',(#1231,#1232,#1233,#1234)) ;
#1247=EDGE_LOOP('',(#1248,#1249,#1250,#1251)) ;
#1264=EDGE_LOOP('',(#1265,#1266,#1267,#1268)) ;
#1288=EDGE_LOOP('',(#1289,#1290,#1291,#1292)) ;
#1305=EDGE_LOOP('',(#1306,#1307,#1308,#1309)) ;
#1329=EDGE_LOOP('',(#1330,#1331,#1332,#1333)) ;
#1346=EDGE_LOOP('',(#1347,#1348,#1349,#1350,#1351,#1352)) ;
#1365=EDGE_LOOP('',(#1366,#1367,#1368,#1369)) ;
#1382=EDGE_LOOP('',(#1383,#1384,#1385,#1386)) ;
#1406=EDGE_LOOP('',(#1407,#1408,#1409,#1410)) ;
#1423=EDGE_LOOP('',(#1424,#1425,#1426,#1427)) ;
#1440=EDGE_LOOP('',(#1441,#1442,#1443,#1444)) ;
#1464=EDGE_LOOP('',(#1465,#1466,#1467,#1468)) ;
#1481=EDGE_LOOP('',(#1482,#1483,#1484,#1485)) ;
#1498=EDGE_LOOP('',(#1499,#1500,#1501,#1502,#1503,#1504,#1505,#1506,#1507,#1508,#1509,#1510)) ;
#1518=EDGE_LOOP('',(#1519,#1520,#1521,#1522)) ;
#1535=EDGE_LOOP('',(#1536,#1537,#1538,#1539)) ;
#1552=EDGE_LOOP('',(#1553,#1554,#1555,#1556,#1557,#1558,#1559,#1560,#1561,#1562,#1563,#1564,#1565,#1566,#1567,#1568)) ;
#1576=EDGE_LOOP('',(#1577,#1578,#1579,#1580,#1581,#1582,#1583,#1584,#1585,#1586,#1587,#1588,#1589,#1590,#1591,#1592)) ;
#1605=EDGE_LOOP('',(#1606,#1607,#1608,#1609)) ;
#1622=EDGE_LOOP('',(#1623,#1624,#1625,#1626)) ;
#1634=EDGE_LOOP('',(#1635,#1636,#1637,#1638)) ;
#90=FACE_OUTER_BOUND('',#85,.T.) ;
#194=FACE_OUTER_BOUND('',#181,.T.) ;
#215=FACE_OUTER_BOUND('',#210,.T.) ;
#319=FACE_OUTER_BOUND('',#306,.T.) ;
#441=FACE_OUTER_BOUND('',#424,.T.) ;
#522=FACE_OUTER_BOUND('',#509,.T.) ;
#635=FACE_OUTER_BOUND('',#618,.T.) ;
#659=FACE_OUTER_BOUND('',#654,.T.) ;
#683=FACE_OUTER_BOUND('',#678,.T.) ;
#707=FACE_OUTER_BOUND('',#702,.T.) ;
#738=FACE_OUTER_BOUND('',#733,.T.) ;
#769=FACE_OUTER_BOUND('',#764,.T.) ;
#793=FACE_OUTER_BOUND('',#788,.T.) ;
#817=FACE_OUTER_BOUND('',#812,.T.) ;
#848=FACE_OUTER_BOUND('',#843,.T.) ;
#879=FACE_OUTER_BOUND('',#874,.T.) ;
#903=FACE_OUTER_BOUND('',#898,.T.) ;
#950=FACE_OUTER_BOUND('',#943,.T.) ;
#974=FACE_OUTER_BOUND('',#969,.T.) ;
#1005=FACE_OUTER_BOUND('',#1000,.T.) ;
#1036=FACE_OUTER_BOUND('',#1031,.T.) ;
#1067=FACE_OUTER_BOUND('',#1062,.T.) ;
#1091=FACE_OUTER_BOUND('',#1086,.T.) ;
#1122=FACE_OUTER_BOUND('',#1117,.T.) ;
#1153=FACE_OUTER_BOUND('',#1148,.T.) ;
#1170=FACE_OUTER_BOUND('',#1165,.T.) ;
#1194=FACE_OUTER_BOUND('',#1189,.T.) ;
#1218=FACE_OUTER_BOUND('',#1213,.T.) ;
#1235=FACE_OUTER_BOUND('',#1230,.T.) ;
#1252=FACE_OUTER_BOUND('',#1247,.T.) ;
#1269=FACE_OUTER_BOUND('',#1264,.T.) ;
#1293=FACE_OUTER_BOUND('',#1288,.T.) ;
#1310=FACE_OUTER_BOUND('',#1305,.T.) ;
#1334=FACE_OUTER_BOUND('',#1329,.T.) ;
#1353=FACE_OUTER_BOUND('',#1346,.T.) ;
#1370=FACE_OUTER_BOUND('',#1365,.T.) ;
#1387=FACE_OUTER_BOUND('',#1382,.T.) ;
#1411=FACE_OUTER_BOUND('',#1406,.T.) ;
#1428=FACE_OUTER_BOUND('',#1423,.T.) ;
#1445=FACE_OUTER_BOUND('',#1440,.T.) ;
#1469=FACE_OUTER_BOUND('',#1464,.T.) ;
#1486=FACE_OUTER_BOUND('',#1481,.T.) ;
#1511=FACE_OUTER_BOUND('',#1498,.T.) ;
#1523=FACE_OUTER_BOUND('',#1518,.T.) ;
#1540=FACE_OUTER_BOUND('',#1535,.T.) ;
#1569=FACE_OUTER_BOUND('',#1552,.T.) ;
#1593=FACE_OUTER_BOUND('',#1576,.T.) ;
#1610=FACE_OUTER_BOUND('',#1605,.T.) ;
#1627=FACE_OUTER_BOUND('',#1622,.T.) ;
#1639=FACE_OUTER_BOUND('',#1634,.T.) ;
#45=UNCERTAINTY_MEASURE_WITH_UNIT(LENGTH_MEASURE(0.005),#41,'distance_accuracy_value','CONFUSED CURVE UNCERTAINTY') ;
#60=LINE('Line',#57,#59) ;
#76=LINE('Line',#73,#75) ;
#100=LINE('Line',#97,#99) ;
#109=LINE('Line',#106,#108) ;
#116=LINE('Line',#113,#115) ;
#123=LINE('Line',#120,#122) ;
#130=LINE('Line',#127,#129) ;
#137=LINE('Line',#134,#136) ;
#144=LINE('Line',#141,#143) ;
#151=LINE('Line',#148,#150) ;
#158=LINE('Line',#155,#157) ;
#165=LINE('Line',#162,#164) ;
#172=LINE('Line',#169,#171) ;
#179=LINE('Line',#176,#178) ;
#225=LINE('Line',#222,#224) ;
#234=LINE('Line',#231,#233) ;
#241=LINE('Line',#238,#240) ;
#248=LINE('Line',#245,#247) ;
#255=LINE('Line',#252,#254) ;
#262=LINE('Line',#259,#261) ;
#269=LINE('Line',#266,#268) ;
#276=LINE('Line',#273,#275) ;
#283=LINE('Line',#280,#282) ;
#290=LINE('Line',#287,#289) ;
#297=LINE('Line',#294,#296) ;
#304=LINE('Line',#301,#303) ;
#340=LINE('Line',#337,#339) ;
#368=LINE('Line',#365,#367) ;
#375=LINE('Line',#372,#374) ;
#382=LINE('Line',#379,#381) ;
#410=LINE('Line',#407,#409) ;
#422=LINE('Line',#419,#421) ;
#458=LINE('Line',#455,#457) ;
#472=LINE('Line',#469,#471) ;
#479=LINE('Line',#476,#478) ;
#486=LINE('Line',#483,#485) ;
#500=LINE('Line',#497,#499) ;
#534=LINE('Line',#531,#533) ;
#546=LINE('Line',#543,#545) ;
#574=LINE('Line',#571,#573) ;
#581=LINE('Line',#578,#580) ;
#588=LINE('Line',#585,#587) ;
#616=LINE('Line',#613,#615) ;
#645=LINE('Line',#642,#644) ;
#676=LINE('Line',#673,#675) ;
#700=LINE('Line',#697,#699) ;
#717=LINE('Line',#714,#716) ;
#731=LINE('Line',#728,#730) ;
#748=LINE('Line',#745,#747) ;
#762=LINE('Line',#759,#761) ;
#779=LINE('Line',#776,#778) ;
#786=LINE('Line',#783,#785) ;
#803=LINE('Line',#800,#802) ;
#810=LINE('Line',#807,#809) ;
#827=LINE('Line',#824,#826) ;
#841=LINE('Line',#838,#840) ;
#858=LINE('Line',#855,#857) ;
#865=LINE('Line',#862,#864) ;
#872=LINE('Line',#869,#871) ;
#889=LINE('Line',#886,#888) ;
#896=LINE('Line',#893,#895) ;
#922=LINE('Line',#919,#921) ;
#934=LINE('Line',#931,#933) ;
#941=LINE('Line',#938,#940) ;
#960=LINE('Line',#957,#959) ;
#984=LINE('Line',#981,#983) ;
#998=LINE('Line',#995,#997) ;
#1015=LINE('Line',#1012,#1014) ;
#1029=LINE('Line',#1026,#1028) ;
#1046=LINE('Line',#1043,#1045) ;
#1053=LINE('Line',#1050,#1052) ;
#1060=LINE('Line',#1057,#1059) ;
#1077=LINE('Line',#1074,#1076) ;
#1084=LINE('Line',#1081,#1083) ;
#1101=LINE('Line',#1098,#1100) ;
#1115=LINE('Line',#1112,#1114) ;
#1132=LINE('Line',#1129,#1131) ;
#1146=LINE('Line',#1143,#1145) ;
#1163=LINE('Line',#1160,#1162) ;
#1180=LINE('Line',#1177,#1179) ;
#1187=LINE('Line',#1184,#1186) ;
#1204=LINE('Line',#1201,#1203) ;
#1245=LINE('Line',#1242,#1244) ;
#1279=LINE('Line',#1276,#1278) ;
#1303=LINE('Line',#1300,#1302) ;
#1320=LINE('Line',#1317,#1319) ;
#1327=LINE('Line',#1324,#1326) ;
#1344=LINE('Line',#1341,#1343) ;
#1397=LINE('Line',#1394,#1396) ;
#1421=LINE('Line',#1418,#1420) ;
#1455=LINE('Line',#1452,#1454) ;
#1462=LINE('Line',#1459,#1461) ;
#1550=LINE('Line',#1547,#1549) ;
#1574=LINE('Line',#1571,#1573) ;
#1603=LINE('Line',#1600,#1602) ;
#1620=LINE('Line',#1617,#1619) ;
#2=MECHANICAL_CONTEXT(' ',#1,'mechanical') ;
#24=PERSONAL_ADDRESS(' ',' ',' ',' ',' ',' ',' ',' ',' ',' ',' ',' ',(#22),' ') ;
#96=PLANE('',#95) ;
#221=PLANE('',#220) ;
#329=PLANE('',#328) ;
#447=PLANE('',#446) ;
#775=PLANE('',#774) ;
#799=PLANE('',#798) ;
#854=PLANE('',#853) ;
#885=PLANE('',#884) ;
#909=PLANE('',#908) ;
#1042=PLANE('',#1041) ;
#1073=PLANE('',#1072) ;
#1159=PLANE('',#1158) ;
#1176=PLANE('',#1175) ;
#1241=PLANE('',#1240) ;
#1299=PLANE('',#1298) ;
#1316=PLANE('',#1315) ;
#1340=PLANE('',#1339) ;
#1417=PLANE('',#1416) ;
#1451=PLANE('',#1450) ;
#1492=PLANE('',#1491) ;
#1546=PLANE('',#1545) ;
#1599=PLANE('',#1598) ;
#1616=PLANE('',#1615) ;
#1633=PLANE('',#1632) ;
#43=PLANE_ANGLE_MEASURE_WITH_UNIT(PLANE_ANGLE_MEASURE(0.0174532925199),#42) ;
#7=PRODUCT_CATEGORY('part',$) ;
#9=PRODUCT_CATEGORY_RELATIONSHIP(' ',' ',#7,#8) ;
#6=PRODUCT_DEFINITION_FORMATION_WITH_SPECIFIED_SOURCE('',' ',#5,.NOT_KNOWN.) ;
#8=PRODUCT_RELATED_PRODUCT_CATEGORY('detail',$,(#5)) ;
#50=SHAPE_DEFINITION_REPRESENTATION(#40,#49) ;
#62=VERTEX_POINT('',#61) ;
#64=VERTEX_POINT('',#63) ;
#71=VERTEX_POINT('',#70) ;
#78=VERTEX_POINT('',#77) ;
#102=VERTEX_POINT('',#101) ;
#104=VERTEX_POINT('',#103) ;
#111=VERTEX_POINT('',#110) ;
#118=VERTEX_POINT('',#117) ;
#125=VERTEX_POINT('',#124) ;
#132=VERTEX_POINT('',#131) ;
#139=VERTEX_POINT('',#138) ;
#146=VERTEX_POINT('',#145) ;
#153=VERTEX_POINT('',#152) ;
#160=VERTEX_POINT('',#159) ;
#167=VERTEX_POINT('',#166) ;
#174=VERTEX_POINT('',#173) ;
#227=VERTEX_POINT('',#226) ;
#229=VERTEX_POINT('',#228) ;
#236=VERTEX_POINT('',#235) ;
#243=VERTEX_POINT('',#242) ;
#250=VERTEX_POINT('',#249) ;
#257=VERTEX_POINT('',#256) ;
#264=VERTEX_POINT('',#263) ;
#271=VERTEX_POINT('',#270) ;
#278=VERTEX_POINT('',#277) ;
#285=VERTEX_POINT('',#284) ;
#292=VERTEX_POINT('',#291) ;
#299=VERTEX_POINT('',#298) ;
#335=VERTEX_POINT('',#334) ;
#342=VERTEX_POINT('',#341) ;
#349=VERTEX_POINT('',#348) ;
#356=VERTEX_POINT('',#355) ;
#363=VERTEX_POINT('',#362) ;
#370=VERTEX_POINT('',#369) ;
#377=VERTEX_POINT('',#376) ;
#384=VERTEX_POINT('',#383) ;
#391=VERTEX_POINT('',#390) ;
#398=VERTEX_POINT('',#397) ;
#405=VERTEX_POINT('',#404) ;
#412=VERTEX_POINT('',#411) ;
#453=VERTEX_POINT('',#452) ;
#460=VERTEX_POINT('',#459) ;
#467=VERTEX_POINT('',#466) ;
#474=VERTEX_POINT('',#473) ;
#481=VERTEX_POINT('',#480) ;
#488=VERTEX_POINT('',#487) ;
#495=VERTEX_POINT('',#494) ;
#502=VERTEX_POINT('',#501) ;
#529=VERTEX_POINT('',#528) ;
#541=VERTEX_POINT('',#540) ;
#548=VERTEX_POINT('',#547) ;
#555=VERTEX_POINT('',#554) ;
#562=VERTEX_POINT('',#561) ;
#569=VERTEX_POINT('',#568) ;
#576=VERTEX_POINT('',#575) ;
#583=VERTEX_POINT('',#582) ;
#590=VERTEX_POINT('',#589) ;
#597=VERTEX_POINT('',#596) ;
#604=VERTEX_POINT('',#603) ;
#611=VERTEX_POINT('',#610) ;
#647=VERTEX_POINT('',#646) ;
#671=VERTEX_POINT('',#670) ;
#695=VERTEX_POINT('',#694) ;
#719=VERTEX_POINT('',#718) ;
#726=VERTEX_POINT('',#725) ;
#750=VERTEX_POINT('',#749) ;
#757=VERTEX_POINT('',#756) ;
#781=VERTEX_POINT('',#780) ;
#805=VERTEX_POINT('',#804) ;
#829=VERTEX_POINT('',#828) ;
#836=VERTEX_POINT('',#835) ;
#860=VERTEX_POINT('',#859) ;
#867=VERTEX_POINT('',#866) ;
#891=VERTEX_POINT('',#890) ;
#915=VERTEX_POINT('',#914) ;
#917=VERTEX_POINT('',#916) ;
#924=VERTEX_POINT('',#923) ;
#936=VERTEX_POINT('',#935) ;
#962=VERTEX_POINT('',#961) ;
#986=VERTEX_POINT('',#985) ;
#993=VERTEX_POINT('',#992) ;
#1017=VERTEX_POINT('',#1016) ;
#1024=VERTEX_POINT('',#1023) ;
#1048=VERTEX_POINT('',#1047) ;
#1055=VERTEX_POINT('',#1054) ;
#1079=VERTEX_POINT('',#1078) ;
#1103=VERTEX_POINT('',#1102) ;
#1110=VERTEX_POINT('',#1109) ;
#1134=VERTEX_POINT('',#1133) ;
#1141=VERTEX_POINT('',#1140) ;
#1182=VERTEX_POINT('',#1181) ;
#1206=VERTEX_POINT('',#1205) ;
#1281=VERTEX_POINT('',#1280) ;
#1322=VERTEX_POINT('',#1321) ;
#1399=VERTEX_POINT('',#1398) ;
#1457=VERTEX_POINT('',#1456) ;
#41=(LENGTH_UNIT()NAMED_UNIT(*)SI_UNIT(.MILLI.,.METRE.)) ;
#42=(NAMED_UNIT(*)PLANE_ANGLE_UNIT()SI_UNIT($,.RADIAN.)) ;
#44=(NAMED_UNIT(*)SI_UNIT($,.STERADIAN.)SOLID_ANGLE_UNIT()) ;
#46=(GEOMETRIC_REPRESENTATION_CONTEXT(3)GLOBAL_UNCERTAINTY_ASSIGNED_CONTEXT((#45))GLOBAL_UNIT_ASSIGNED_CONTEXT((#41,#42,#44))REPRESENTATION_CONTEXT(' ',' ')) ;
ENDSEC;
END-ISO-10303-21;
