ISO-10303-21;
HEADER;
FILE_DESCRIPTION (( 'STEP AP214' ),
    '1' );
FILE_NAME ('P14 FemtoCap-G_5 (180pF +-50pF).STEP',
    '2025-08-13T09:39:00',
    ( '' ),
    ( '' ),
    'SwSTEP 2.0',
    'SolidWorks 2024',
    '' );
FILE_SCHEMA (( 'AUTOMOTIVE_DESIGN' ));
ENDSEC;

DATA;
#1 = ORIENTED_EDGE ( 'NONE', *, *, #824, .F. ) ;
#2 = DIRECTION ( 'NONE',  ( 1.000000000000000000, 0.000000000000000000, -0.000000000000000000 ) ) ;
#3 = CARTESIAN_POINT ( 'NONE',  ( 1.899999999999999689, 0.000000000000000000, 0.8499999999999994227 ) ) ;
#4 = CARTESIAN_POINT ( 'NONE',  ( 1.899999999999999689, 0.005000000000000000104, -0.8500000000000005329 ) ) ;
#5 = EDGE_LOOP ( 'NONE', ( #207, #280, #1043, #608 ) ) ;
#6 = LINE ( 'NONE', #750, #720 ) ;
#7 = ORIENTED_EDGE ( 'NONE', *, *, #872, .F. ) ;
#8 = ADVANCED_FACE ( 'NONE', ( #136 ), #506, .F. ) ;
#9 = PLANE ( 'NONE',  #1049 ) ;
#10 = PRESENTATION_LAYER_ASSIGNMENT (  '', '', ( #452 ) ) ;
#11 = VECTOR ( 'NONE', #1141, 1000.000000000000000 ) ;
#12 = ADVANCED_FACE ( 'NONE', ( #1165 ), #322, .F. ) ;
#13 = FACE_OUTER_BOUND ( 'NONE', #1105, .T. ) ;
#14 = COLOUR_RGB ( '',0.2000000000000000111, 0.2000000000000000111, 0.2000000000000000111 ) ;
#15 = CARTESIAN_POINT ( 'NONE',  ( 1.029999999999999361, 0.007000000000000001013, -0.05000000000000000278 ) ) ;
#16 = AXIS2_PLACEMENT_3D ( 'NONE', #1168, #326, #171 ) ;
#17 = ORIENTED_EDGE ( 'NONE', *, *, #610, .T. ) ;
#18 = CARTESIAN_POINT ( 'NONE',  ( 1.999999999999999556, -0.4000000000000000222, -0.9999999999999997780 ) ) ;
#19 = ADVANCED_FACE ( 'NONE', ( #788 ), #1170, .F. ) ;
#20 =( NAMED_UNIT ( * ) PLANE_ANGLE_UNIT ( ) SI_UNIT ( $, .RADIAN. ) );
#21 = CARTESIAN_POINT ( 'NONE',  ( 1.029999999999999361, 0.002000000000000000042, 0.000000000000000000 ) ) ;
#22 = ORIENTED_EDGE ( 'NONE', *, *, #558, .T. ) ;
#23 =( LENGTH_UNIT ( ) NAMED_UNIT ( * ) SI_UNIT ( .MILLI., .METRE. ) );
#24 = DIRECTION ( 'NONE',  ( 1.000000000000000000, 0.000000000000000000, 0.000000000000000000 ) ) ;
#25 = DIRECTION ( 'NONE',  ( 0.000000000000000000, -1.000000000000000000, 0.000000000000000000 ) ) ;
#26 = SURFACE_STYLE_FILL_AREA ( #43 ) ;
#27 = ORIENTED_EDGE ( 'NONE', *, *, #519, .F. ) ;
#28 = ORIENTED_EDGE ( 'NONE', *, *, #41, .T. ) ;
#29 = CARTESIAN_POINT ( 'NONE',  ( 1.399999999999999689, 0.000000000000000000, -0.8500000000000004219 ) ) ;
#30 = DIRECTION ( 'NONE',  ( 0.000000000000000000, 0.000000000000000000, 1.000000000000000000 ) ) ;
#31 = PRESENTATION_STYLE_ASSIGNMENT (( #425 ) ) ;
#32 = AXIS2_PLACEMENT_3D ( 'NONE', #567, #407, #760 ) ;
#33 = CARTESIAN_POINT ( 'NONE',  ( 1.899999999999999689, 0.005000000000000000104, 0.8499999999999994227 ) ) ;
#34 =( LENGTH_UNIT ( ) NAMED_UNIT ( * ) SI_UNIT ( .MILLI., .METRE. ) );
#35 = EDGE_LOOP ( 'NONE', ( #633, #697, #410, #525 ) ) ;
#36 = FACE_BOUND ( 'NONE', #790, .T. ) ;
#37 = PLANE ( 'NONE',  #1156 ) ;
#38 = EDGE_CURVE ( 'NONE', #573, #65, #143, .T. ) ;
#39 = VERTEX_POINT ( 'NONE', #619 ) ;
#40 = SURFACE_STYLE_FILL_AREA ( #884 ) ;
#41 = EDGE_CURVE ( 'NONE', #507, #232, #364, .T. ) ;
#42 = CARTESIAN_POINT ( 'NONE',  ( 1.029999999999999361, 0.007000000000000001013, -0.05000000000000000278 ) ) ;
#43 = FILL_AREA_STYLE ('',( #887 ) ) ;
#44 = DIRECTION ( 'NONE',  ( 1.000000000000000000, -0.000000000000000000, 0.000000000000000000 ) ) ;
#45 = ORIENTED_EDGE ( 'NONE', *, *, #764, .F. ) ;
#46 =( LENGTH_UNIT ( ) NAMED_UNIT ( * ) SI_UNIT ( .MILLI., .METRE. ) );
#47 = EDGE_CURVE ( 'NONE', #730, #344, #269, .T. ) ;
#48 = PLANE ( 'NONE',  #254 ) ;
#49 = SURFACE_SIDE_STYLE ('',( #1091 ) ) ;
#50 = ORIENTED_EDGE ( 'NONE', *, *, #1128, .F. ) ;
#51 = AXIS2_PLACEMENT_3D ( 'NONE', #248, #253, #1062 ) ;
#52 = VECTOR ( 'NONE', #939, 1000.000000000000000 ) ;
#53 = ORIENTED_EDGE ( 'NONE', *, *, #940, .F. ) ;
#54 = VECTOR ( 'NONE', #234, 1000.000000000000000 ) ;
#55 = COLOUR_RGB ( '',0.6901960784313725394, 0.6117647058823529882, 0.5294117647058823595 ) ;
#56 = PLANE ( 'NONE',  #738 ) ;
#57 = CARTESIAN_POINT ( 'NONE',  ( -1.250000000000000444, 0.000000000000000000, -0.9499999999999998446 ) ) ;
#58 = LINE ( 'NONE', #255, #973 ) ;
#59 = VERTEX_POINT ( 'NONE', #904 ) ;
#60 = FILL_AREA_STYLE_COLOUR ( '', #431 ) ;
#61 = CARTESIAN_POINT ( 'NONE',  ( 1.999999999999999556, -0.4000000000000000222, 1.000000000000000222 ) ) ;
#62 = CARTESIAN_POINT ( 'NONE',  ( 1.049999999999999600, 0.002000000000000000042, 0.9500000000000001776 ) ) ;
#63 = DIRECTION ( 'NONE',  ( 0.000000000000000000, 0.000000000000000000, -1.000000000000000000 ) ) ;
#64 = ADVANCED_FACE ( 'NONE', ( #729 ), #637, .F. ) ;
#65 = VERTEX_POINT ( 'NONE', #831 ) ;
#66 = CARTESIAN_POINT ( 'NONE',  ( -1.250000000000000444, 0.000000000000000000, 0.9500000000000001776 ) ) ;
#67 = DIRECTION ( 'NONE',  ( 1.000000000000000000, 0.000000000000000000, 0.000000000000000000 ) ) ;
#68 = LINE ( 'NONE', #997, #995 ) ;
#69 = LINE ( 'NONE', #454, #1194 ) ;
#70 = VERTEX_POINT ( 'NONE', #723 ) ;
#71 = EDGE_CURVE ( 'NONE', #552, #332, #1191, .T. ) ;
#72 = VECTOR ( 'NONE', #535, 1000.000000000000000 ) ;
#73 = AXIS2_PLACEMENT_3D ( 'NONE', #618, #1107, #891 ) ;
#74 =( GEOMETRIC_REPRESENTATION_CONTEXT ( 3 ) GLOBAL_UNCERTAINTY_ASSIGNED_CONTEXT ( ( #85 ) ) GLOBAL_UNIT_ASSIGNED_CONTEXT ( ( #23, #768, #219 ) ) REPRESENTATION_CONTEXT ( 'NONE', 'WORKASPACE' ) );
#75 = LINE ( 'NONE', #461, #436 ) ;
#76 = DIRECTION ( 'NONE',  ( -1.000000000000000000, -0.000000000000000000, -0.000000000000000000 ) ) ;
#77 = VERTEX_POINT ( 'NONE', #1104 ) ;
#78 = EDGE_CURVE ( 'NONE', #910, #628, #347, .T. ) ;
#79 = EDGE_CURVE ( 'NONE', #276, #474, #717, .T. ) ;
#80 = DIRECTION ( 'NONE',  ( 0.000000000000000000, 0.000000000000000000, -1.000000000000000000 ) ) ;
#81 = CARTESIAN_POINT ( 'NONE',  ( 1.899999999999999689, 0.000000000000000000, -0.8500000000000005329 ) ) ;
#82 = ORIENTED_EDGE ( 'NONE', *, *, #592, .F. ) ;
#83 = DIRECTION ( 'NONE',  ( 0.000000000000000000, 0.000000000000000000, 1.000000000000000000 ) ) ;
#84 = PLANE ( 'NONE',  #932 ) ;
#85 = UNCERTAINTY_MEASURE_WITH_UNIT (LENGTH_MEASURE( 1.000000000000000082E-05 ), #23, 'distance_accuracy_value', 'NONE');
#86 = DIRECTION ( 'NONE',  ( 1.000000000000000000, 0.000000000000000000, -1.831422588657945297E-17 ) ) ;
#87 = ORIENTED_EDGE ( 'NONE', *, *, #978, .F. ) ;
#88 = COLOUR_RGB ( '',0.2000000000000000111, 0.2000000000000000111, 0.2000000000000000111 ) ;
#89 = VECTOR ( 'NONE', #231, 1000.000000000000000 ) ;
#90 = VECTOR ( 'NONE', #704, 1000.000000000000000 ) ;
#91 = VECTOR ( 'NONE', #820, 1000.000000000000000 ) ;
#92 = EDGE_CURVE ( 'NONE', #672, #1144, #810, .T. ) ;
#93 =( NAMED_UNIT ( * ) PLANE_ANGLE_UNIT ( ) SI_UNIT ( $, .RADIAN. ) );
#94 = ORIENTED_EDGE ( 'NONE', *, *, #401, .T. ) ;
#95 = LINE ( 'NONE', #731, #277 ) ;
#96 = ORIENTED_EDGE ( 'NONE', *, *, #349, .T. ) ;
#97 = CARTESIAN_POINT ( 'NONE',  ( 0.000000000000000000, 0.002000000000000000042, -0.9299999999999997158 ) ) ;
#98 = FACE_OUTER_BOUND ( 'NONE', #1189, .T. ) ;
#99 = DIRECTION ( 'NONE',  ( 1.000000000000000000, -0.000000000000000000, 0.000000000000000000 ) ) ;
#100 = ORIENTED_EDGE ( 'NONE', *, *, #872, .T. ) ;
#101 = LINE ( 'NONE', #304, #951 ) ;
#102 = PRODUCT_RELATED_PRODUCT_CATEGORY ( 'part', '', ( #110 ) ) ;
#103 = LINE ( 'NONE', #927, #992 ) ;
#104 = CARTESIAN_POINT ( 'NONE',  ( -0.7700000000000003508, 0.002000000000000000042, 0.9299999999999997158 ) ) ;
#105 = LINE ( 'NONE', #486, #456 ) ;
#106 = ORIENTED_EDGE ( 'NONE', *, *, #358, .T. ) ;
#107 = LINE ( 'NONE', #297, #755 ) ;
#108 = ADVANCED_FACE ( 'NONE', ( #443 ), #828, .F. ) ;
#109 = VERTEX_POINT ( 'NONE', #274 ) ;
#110 = PRODUCT ( 'P14 FemtoCap-G_5 (180pF +-50pF)', 'P14 FemtoCap-G_5 (180pF +-50pF)', '', ( #646 ) ) ;
#111 = PLANE ( 'NONE',  #858 ) ;
#112 = VECTOR ( 'NONE', #308, 1000.000000000000000 ) ;
#113 = VECTOR ( 'NONE', #1188, 1000.000000000000000 ) ;
#114 = LINE ( 'NONE', #865, #548 ) ;
#115 = CARTESIAN_POINT ( 'NONE',  ( -1.400000000000000355, 0.002000000000000000042, 0.8500000000000006439 ) ) ;
#116 = VERTEX_POINT ( 'NONE', #466 ) ;
#117 = FACE_OUTER_BOUND ( 'NONE', #590, .T. ) ;
#118 = ORIENTED_EDGE ( 'NONE', *, *, #418, .T. ) ;
#119 = LINE ( 'NONE', #974, #915 ) ;
#120 = PLANE ( 'NONE',  #32 ) ;
#121 = CARTESIAN_POINT ( 'NONE',  ( -1.400000000000000355, 0.002000000000000000042, -0.8499999999999993117 ) ) ;
#122 = ORIENTED_EDGE ( 'NONE', *, *, #1128, .T. ) ;
#123 = LINE ( 'NONE', #589, #954 ) ;
#124 = DIRECTION ( 'NONE',  ( 0.000000000000000000, 1.000000000000000000, 0.000000000000000000 ) ) ;
#125 = UNCERTAINTY_MEASURE_WITH_UNIT (LENGTH_MEASURE( 1.000000000000000082E-05 ), #359, 'distance_accuracy_value', 'NONE');
#126 = CARTESIAN_POINT ( 'NONE',  ( 1.029999999999999361, 0.005000000000000000104, 0.9299999999999997158 ) ) ;
#127 = EDGE_CURVE ( 'NONE', #843, #654, #263, .T. ) ;
#128 = CARTESIAN_POINT ( 'NONE',  ( 0.000000000000000000, 0.002000000000000000042, 0.000000000000000000 ) ) ;
#129 = VERTEX_POINT ( 'NONE', #1003 ) ;
#130 = CARTESIAN_POINT ( 'NONE',  ( 1.049999999999999600, -0.000000000000000000, -0.9499999999999997335 ) ) ;
#131 = EDGE_LOOP ( 'NONE', ( #601, #148, #1038, #139 ) ) ;
#132 = CARTESIAN_POINT ( 'NONE',  ( -2.000000000000000444, -0.4000000000000000222, 1.000000000000000222 ) ) ;
#133 = LINE ( 'NONE', #335, #90 ) ;
#134 = VECTOR ( 'NONE', #422, 1000.000000000000000 ) ;
#135 = EDGE_CURVE ( 'NONE', #474, #343, #184, .T. ) ;
#136 = FACE_OUTER_BOUND ( 'NONE', #1100, .T. ) ;
#137 = CARTESIAN_POINT ( 'NONE',  ( 1.029999999999999361, 0.002000000000000000042, -0.05000000000000000278 ) ) ;
#138 = ADVANCED_FACE ( 'NONE', ( #908 ), #711, .T. ) ;
#139 = ORIENTED_EDGE ( 'NONE', *, *, #1130, .T. ) ;
#140 = CARTESIAN_POINT ( 'NONE',  ( 1.029999999999999361, 0.002000000000000000042, -0.05000000000000000278 ) ) ;
#141 = SURFACE_SIDE_STYLE ('',( #1183 ) ) ;
#142 = CARTESIAN_POINT ( 'NONE',  ( -1.250000000000000444, 0.000000000000000000, 0.05000000000000000278 ) ) ;
#143 = LINE ( 'NONE', #518, #1051 ) ;
#144 = FACE_OUTER_BOUND ( 'NONE', #35, .T. ) ;
#145 = EDGE_LOOP ( 'NONE', ( #28, #941, #50, #324 ) ) ;
#146 = DIRECTION ( 'NONE',  ( -1.000000000000000000, 0.000000000000000000, 0.000000000000000000 ) ) ;
#147 = CARTESIAN_POINT ( 'NONE',  ( 1.899999999999999689, 0.005000000000000000104, 0.8499999999999994227 ) ) ;
#148 = ORIENTED_EDGE ( 'NONE', *, *, #607, .F. ) ;
#149 = CARTESIAN_POINT ( 'NONE',  ( -1.250000000000000444, 0.000000000000000000, 0.9500000000000001776 ) ) ;
#150 = ORIENTED_EDGE ( 'NONE', *, *, #566, .F. ) ;
#151 =( NAMED_UNIT ( * ) PLANE_ANGLE_UNIT ( ) SI_UNIT ( $, .RADIAN. ) );
#152 = LINE ( 'NONE', #918, #314 ) ;
#153 = FACE_OUTER_BOUND ( 'NONE', #230, .T. ) ;
#154 = VECTOR ( 'NONE', #445, 1000.000000000000000 ) ;
#155 = CARTESIAN_POINT ( 'NONE',  ( 0.000000000000000000, 0.000000000000000000, 0.000000000000000000 ) ) ;
#156 = VECTOR ( 'NONE', #664, 1000.000000000000000 ) ;
#157 = VECTOR ( 'NONE', #1124, 1000.000000000000000 ) ;
#158 = ORIENTED_EDGE ( 'NONE', *, *, #665, .F. ) ;
#159 = MECHANICAL_DESIGN_GEOMETRIC_PRESENTATION_REPRESENTATION (  '', ( #681 ), #661 ) ;
#160 = DIRECTION ( 'NONE',  ( -0.000000000000000000, -1.000000000000000000, -0.000000000000000000 ) ) ;
#161 =( LENGTH_UNIT ( ) NAMED_UNIT ( * ) SI_UNIT ( .MILLI., .METRE. ) );
#162 = DIRECTION ( 'NONE',  ( 1.000000000000000000, -0.000000000000000000, 0.000000000000000000 ) ) ;
#163 = DIRECTION ( 'NONE',  ( 0.000000000000000000, 0.000000000000000000, -1.000000000000000000 ) ) ;
#164 = EDGE_LOOP ( 'NONE', ( #936, #348, #1118, #1052 ) ) ;
#165 = LINE ( 'NONE', #540, #854 ) ;
#166 = CARTESIAN_POINT ( 'NONE',  ( 0.000000000000000000, 0.000000000000000000, 0.000000000000000000 ) ) ;
#167 = FILL_AREA_STYLE_COLOUR ( '', #14 ) ;
#168 = EDGE_CURVE ( 'NONE', #397, #252, #69, .T. ) ;
#169 = DIRECTION ( 'NONE',  ( 0.000000000000000000, -1.000000000000000000, 0.000000000000000000 ) ) ;
#170 = EDGE_LOOP ( 'NONE', ( #220, #258, #579, #917 ) ) ;
#171 = DIRECTION ( 'NONE',  ( 0.000000000000000000, -0.000000000000000000, -1.000000000000000000 ) ) ;
#172 = LINE ( 'NONE', #57, #491 ) ;
#173 = DIRECTION ( 'NONE',  ( 1.000000000000000000, -0.000000000000000000, 0.000000000000000000 ) ) ;
#174 = EDGE_CURVE ( 'NONE', #176, #947, #1205, .T. ) ;
#175 = COLOUR_RGB ( '',0.1019607843137254888, 0.1019607843137254888, 0.1019607843137254888 ) ;
#176 = VERTEX_POINT ( 'NONE', #250 ) ;
#177 = ADVANCED_FACE ( 'NONE', ( #990 ), #998, .T. ) ;
#178 = VECTOR ( 'NONE', #671, 1000.000000000000000 ) ;
#179 = AXIS2_PLACEMENT_3D ( 'NONE', #710, #728, #1087 ) ;
#180 = SURFACE_STYLE_FILL_AREA ( #580 ) ;
#181 = PRESENTATION_LAYER_ASSIGNMENT (  '', '', ( #759 ) ) ;
#182 =( NAMED_UNIT ( * ) PLANE_ANGLE_UNIT ( ) SI_UNIT ( $, .RADIAN. ) );
#183 = DIRECTION ( 'NONE',  ( 1.000000000000000000, 0.000000000000000000, 0.000000000000000000 ) ) ;
#184 = LINE ( 'NONE', #462, #113 ) ;
#185 = ORIENTED_EDGE ( 'NONE', *, *, #92, .F. ) ;
#186 = CARTESIAN_POINT ( 'NONE',  ( -1.400000000000000355, 0.002000000000000000042, 0.8500000000000006439 ) ) ;
#187 = ORIENTED_EDGE ( 'NONE', *, *, #544, .T. ) ;
#188 = EDGE_CURVE ( 'NONE', #39, #1036, #58, .T. ) ;
#189 = DIRECTION ( 'NONE',  ( 0.000000000000000000, 1.000000000000000000, 0.000000000000000000 ) ) ;
#190 = ORIENTED_EDGE ( 'NONE', *, *, #473, .T. ) ;
#191 = ORIENTED_EDGE ( 'NONE', *, *, #1035, .T. ) ;
#192 = VECTOR ( 'NONE', #874, 1000.000000000000000 ) ;
#193 = CLOSED_SHELL ( 'NONE', ( #1016, #631, #19, #1203, #575, #177 ) ) ;
#194 = FACE_OUTER_BOUND ( 'NONE', #145, .T. ) ;
#195 = PRESENTATION_LAYER_ASSIGNMENT (  '', '', ( #838 ) ) ;
#196 = PRESENTATION_STYLE_ASSIGNMENT (( #670 ) ) ;
#197 = LINE ( 'NONE', #15, #52 ) ;
#198 = ORIENTED_EDGE ( 'NONE', *, *, #558, .F. ) ;
#199 = DIRECTION ( 'NONE',  ( -1.831422588657945297E-17, 0.000000000000000000, -1.000000000000000000 ) ) ;
#200 = PLANE ( 'NONE',  #776 ) ;
#201 = FACE_OUTER_BOUND ( 'NONE', #457, .T. ) ;
#202 = VERTEX_POINT ( 'NONE', #538 ) ;
#203 = DIRECTION ( 'NONE',  ( -1.000000000000000000, 0.000000000000000000, 1.831422588657945297E-17 ) ) ;
#204 = PRESENTATION_STYLE_ASSIGNMENT (( #859 ) ) ;
#205 = LINE ( 'NONE', #938, #1209 ) ;
#206 = DIRECTION ( 'NONE',  ( 1.000000000000000000, 0.000000000000000000, -2.168404344971009115E-16 ) ) ;
#207 = ORIENTED_EDGE ( 'NONE', *, *, #127, .T. ) ;
#208 = EDGE_CURVE ( 'NONE', #276, #449, #105, .T. ) ;
#209 = FACE_OUTER_BOUND ( 'NONE', #170, .T. ) ;
#210 = ORIENTED_EDGE ( 'NONE', *, *, #317, .T. ) ;
#211 = STYLED_ITEM ( 'NONE', ( #863 ), #801 ) ;
#212 =( NAMED_UNIT ( * ) PLANE_ANGLE_UNIT ( ) SI_UNIT ( $, .RADIAN. ) );
#213 = AXIS2_PLACEMENT_3D ( 'NONE', #996, #229, #792 ) ;
#214 = COLOUR_RGB ( '',0.7921568627450980005, 0.8196078431372548767, 0.9333333333333333481 ) ;
#215 = UNCERTAINTY_MEASURE_WITH_UNIT (LENGTH_MEASURE( 1.000000000000000082E-05 ), #948, 'distance_accuracy_value', 'NONE');
#216 = DIRECTION ( 'NONE',  ( -0.000000000000000000, -1.000000000000000000, -0.000000000000000000 ) ) ;
#217 =( GEOMETRIC_REPRESENTATION_CONTEXT ( 3 ) GLOBAL_UNCERTAINTY_ASSIGNED_CONTEXT ( ( #215 ) ) GLOBAL_UNIT_ASSIGNED_CONTEXT ( ( #948, #1152, #399 ) ) REPRESENTATION_CONTEXT ( 'NONE', 'WORKASPACE' ) );
#218 = ORIENTED_EDGE ( 'NONE', *, *, #317, .F. ) ;
#219 =( NAMED_UNIT ( * ) SI_UNIT ( $, .STERADIAN. ) SOLID_ANGLE_UNIT ( ) );
#220 = ORIENTED_EDGE ( 'NONE', *, *, #270, .T. ) ;
#221 = DIRECTION ( 'NONE',  ( 0.000000000000000000, -0.000000000000000000, 1.000000000000000000 ) ) ;
#222 = SURFACE_SIDE_STYLE ('',( #286 ) ) ;
#223 = CARTESIAN_POINT ( 'NONE',  ( -1.250000000000000444, -0.000000000000000000, 0.9500000000000001776 ) ) ;
#224 = ORIENTED_EDGE ( 'NONE', *, *, #751, .F. ) ;
#225 = LINE ( 'NONE', #338, #1071 ) ;
#226 = ORIENTED_EDGE ( 'NONE', *, *, #984, .T. ) ;
#227 = CARTESIAN_POINT ( 'NONE',  ( -2.000000000000000444, -0.4000000000000000222, 1.000000000000000222 ) ) ;
#228 = EDGE_CURVE ( 'NONE', #343, #39, #478, .T. ) ;
#229 = DIRECTION ( 'NONE',  ( 0.000000000000000000, 0.000000000000000000, 1.000000000000000000 ) ) ;
#230 = EDGE_LOOP ( 'NONE', ( #527, #271, #569, #926 ) ) ;
#231 = DIRECTION ( 'NONE',  ( -0.000000000000000000, -0.000000000000000000, 1.000000000000000000 ) ) ;
#232 = VERTEX_POINT ( 'NONE', #1042 ) ;
#233 = PLANE ( 'NONE',  #213 ) ;
#234 = DIRECTION ( 'NONE',  ( 0.000000000000000000, 0.000000000000000000, -1.000000000000000000 ) ) ;
#235 = VECTOR ( 'NONE', #1126, 1000.000000000000000 ) ;
#236 = VECTOR ( 'NONE', #1196, 1000.000000000000000 ) ;
#237 = DIRECTION ( 'NONE',  ( 0.000000000000000000, 0.000000000000000000, -1.000000000000000000 ) ) ;
#238 = FILL_AREA_STYLE ('',( #602 ) ) ;
#239 = MECHANICAL_DESIGN_GEOMETRIC_PRESENTATION_REPRESENTATION (  '', ( #759 ), #586 ) ;
#240 = ORIENTED_EDGE ( 'NONE', *, *, #188, .F. ) ;
#241 = DIRECTION ( 'NONE',  ( 0.000000000000000000, 0.000000000000000000, 1.000000000000000000 ) ) ;
#242 = SURFACE_STYLE_USAGE ( .BOTH. , #141 ) ;
#243 = CARTESIAN_POINT ( 'NONE',  ( -0.7700000000000003508, 0.005000000000000000104, 0.9299999999999997158 ) ) ;
#244 = EDGE_LOOP ( 'NONE', ( #1093, #315, #1167, #106 ) ) ;
#245 = CARTESIAN_POINT ( 'NONE',  ( -0.7700000000000003508, 0.005000000000000000104, 0.9299999999999997158 ) ) ;
#246 = EDGE_CURVE ( 'NONE', #70, #816, #559, .T. ) ;
#247 = EDGE_LOOP ( 'NONE', ( #210, #502, #588, #668 ) ) ;
#248 = CARTESIAN_POINT ( 'NONE',  ( 0.000000000000000000, 0.002000000000000000042, 0.000000000000000000 ) ) ;
#249 = PLANE ( 'NONE',  #73 ) ;
#250 = CARTESIAN_POINT ( 'NONE',  ( 1.049999999999999600, 0.002000000000000000042, -0.9499999999999997335 ) ) ;
#251 = PRODUCT_DEFINITION_SHAPE ( 'NONE', 'NONE',  #987 ) ;
#252 = VERTEX_POINT ( 'NONE', #853 ) ;
#253 = DIRECTION ( 'NONE',  ( -0.000000000000000000, 1.000000000000000000, 0.000000000000000000 ) ) ;
#254 = AXIS2_PLACEMENT_3D ( 'NONE', #334, #432, #800 ) ;
#255 = CARTESIAN_POINT ( 'NONE',  ( -1.400000000000000355, 0.000000000000000000, 0.8500000000000006439 ) ) ;
#256 = VECTOR ( 'NONE', #612, 1000.000000000000000 ) ;
#257 = VECTOR ( 'NONE', #696, 1000.000000000000000 ) ;
#258 = ORIENTED_EDGE ( 'NONE', *, *, #826, .F. ) ;
#259 =( GEOMETRIC_REPRESENTATION_CONTEXT ( 3 ) GLOBAL_UNCERTAINTY_ASSIGNED_CONTEXT ( ( #885 ) ) GLOBAL_UNIT_ASSIGNED_CONTEXT ( ( #465, #1114, #656 ) ) REPRESENTATION_CONTEXT ( 'NONE', 'WORKASPACE' ) );
#260 = SURFACE_SIDE_STYLE ('',( #429 ) ) ;
#261 = ADVANCED_FACE ( 'NONE', ( #493 ), #469, .F. ) ;
#262 = PLANE ( 'NONE',  #799 ) ;
#263 = LINE ( 'NONE', #81, #236 ) ;
#264 = ORIENTED_EDGE ( 'NONE', *, *, #135, .T. ) ;
#265 = SURFACE_STYLE_USAGE ( .BOTH. , #260 ) ;
#266 = EDGE_CURVE ( 'NONE', #344, #1197, #369, .T. ) ;
#267 = CARTESIAN_POINT ( 'NONE',  ( 1.899999999999999689, 0.005000000000000000104, -0.8500000000000005329 ) ) ;
#268 = EDGE_CURVE ( 'NONE', #1122, #672, #197, .T. ) ;
#269 = LINE ( 'NONE', #815, #699 ) ;
#270 = EDGE_CURVE ( 'NONE', #1144, #1215, #568, .T. ) ;
#271 = ORIENTED_EDGE ( 'NONE', *, *, #1130, .F. ) ;
#272 = CARTESIAN_POINT ( 'NONE',  ( 1.029999999999999361, 0.005000000000000000104, -0.9299999999999997158 ) ) ;
#273 = CARTESIAN_POINT ( 'NONE',  ( 1.399999999999999689, 0.005000000000000000104, -0.8500000000000004219 ) ) ;
#274 = CARTESIAN_POINT ( 'NONE',  ( -1.250000000000000444, 0.002000000000000000042, -0.9499999999999998446 ) ) ;
#275 = AXIS2_PLACEMENT_3D ( 'NONE', #791, #1060, #700 ) ;
#276 = VERTEX_POINT ( 'NONE', #1217 ) ;
#277 = VECTOR ( 'NONE', #942, 1000.000000000000000 ) ;
#278 = DIRECTION ( 'NONE',  ( -0.000000000000000000, -1.000000000000000000, -0.000000000000000000 ) ) ;
#279 = CARTESIAN_POINT ( 'NONE',  ( -0.7700000000000003508, 0.005000000000000000104, 0.9299999999999997158 ) ) ;
#280 = ORIENTED_EDGE ( 'NONE', *, *, #726, .F. ) ;
#281 = EDGE_CURVE ( 'NONE', #705, #1144, #396, .T. ) ;
#282 = CARTESIAN_POINT ( 'NONE',  ( 1.899999999999999689, 0.005000000000000000104, 0.8499999999999994227 ) ) ;
#283 = ORIENTED_EDGE ( 'NONE', *, *, #1061, .F. ) ;
#284 = ORIENTED_EDGE ( 'NONE', *, *, #480, .T. ) ;
#285 = CARTESIAN_POINT ( 'NONE',  ( 1.399999999999999689, 0.007000000000000001013, -0.05000000000000000278 ) ) ;
#286 = SURFACE_STYLE_FILL_AREA ( #571 ) ;
#287 = CARTESIAN_POINT ( 'NONE',  ( -0.7700000000000003508, 0.002000000000000000042, 0.000000000000000000 ) ) ;
#288 = ORIENTED_EDGE ( 'NONE', *, *, #733, .F. ) ;
#289 = ORIENTED_EDGE ( 'NONE', *, *, #733, .T. ) ;
#290 = AXIS2_PLACEMENT_3D ( 'NONE', #959, #789, #609 ) ;
#291 = VECTOR ( 'NONE', #1088, 1000.000000000000000 ) ;
#292 = CARTESIAN_POINT ( 'NONE',  ( -1.400000000000000355, 0.002000000000000000042, -0.04999999999999999584 ) ) ;
#293 = EDGE_CURVE ( 'NONE', #381, #1109, #301, .T. ) ;
#294 = LINE ( 'NONE', #657, #818 ) ;
#295 = SURFACE_SIDE_STYLE ('',( #1213 ) ) ;
#296 = ORIENTED_EDGE ( 'NONE', *, *, #783, .F. ) ;
#297 = CARTESIAN_POINT ( 'NONE',  ( -2.000000000000000444, 0.000000000000000000, 1.000000000000000222 ) ) ;
#298 = DIRECTION ( 'NONE',  ( -1.000000000000000000, -0.000000000000000000, -0.000000000000000000 ) ) ;
#299 = ADVANCED_FACE ( 'NONE', ( #754 ), #950, .F. ) ;
#300 = CARTESIAN_POINT ( 'NONE',  ( -1.400000000000000355, 0.000000000000000000, -0.8499999999999993117 ) ) ;
#301 = LINE ( 'NONE', #287, #178 ) ;
#302 = EDGE_CURVE ( 'NONE', #1215, #1125, #740, .T. ) ;
#303 = ORIENTED_EDGE ( 'NONE', *, *, #1001, .T. ) ;
#304 = CARTESIAN_POINT ( 'NONE',  ( 1.399999999999999689, 0.007000000000000001013, 0.04999999999999999584 ) ) ;
#305 = PLANE ( 'NONE',  #275 ) ;
#306 = CARTESIAN_POINT ( 'NONE',  ( -1.250000000000000444, 0.002000000000000000042, 0.9500000000000001776 ) ) ;
#307 = ORIENTED_EDGE ( 'NONE', *, *, #78, .T. ) ;
#308 = DIRECTION ( 'NONE',  ( 0.000000000000000000, 0.000000000000000000, 1.000000000000000000 ) ) ;
#309 = MECHANICAL_DESIGN_GEOMETRIC_PRESENTATION_REPRESENTATION (  '', ( #211 ), #74 ) ;
#310 = CARTESIAN_POINT ( 'NONE',  ( 1.899999999999999689, 0.000000000000000000, 0.8499999999999994227 ) ) ;
#311 = MECHANICAL_DESIGN_GEOMETRIC_PRESENTATION_REPRESENTATION (  '', ( #452 ), #912 ) ;
#312 = VECTOR ( 'NONE', #822, 1000.000000000000000 ) ;
#313 = CARTESIAN_POINT ( 'NONE',  ( 0.000000000000000000, 0.002000000000000000042, 0.000000000000000000 ) ) ;
#314 = VECTOR ( 'NONE', #819, 1000.000000000000000 ) ;
#315 = ORIENTED_EDGE ( 'NONE', *, *, #47, .T. ) ;
#316 =( NAMED_UNIT ( * ) PLANE_ANGLE_UNIT ( ) SI_UNIT ( $, .RADIAN. ) );
#317 = EDGE_CURVE ( 'NONE', #654, #129, #847, .T. ) ;
#318 = ORIENTED_EDGE ( 'NONE', *, *, #553, .T. ) ;
#319 = APPLICATION_CONTEXT ( 'automotive_design' ) ;
#320 = DIRECTION ( 'NONE',  ( -1.000000000000000000, -0.000000000000000000, -0.000000000000000000 ) ) ;
#321 =( NAMED_UNIT ( * ) PLANE_ANGLE_UNIT ( ) SI_UNIT ( $, .RADIAN. ) );
#322 = PLANE ( 'NONE',  #1072 ) ;
#323 = CARTESIAN_POINT ( 'NONE',  ( -1.400000000000000355, 0.000000000000000000, 0.05000000000000000278 ) ) ;
#324 = ORIENTED_EDGE ( 'NONE', *, *, #536, .T. ) ;
#325 = MANIFOLD_SOLID_BREP ( 'Boss-Extrude3', #722 ) ;
#326 = DIRECTION ( 'NONE',  ( 0.000000000000000000, -1.000000000000000000, 0.000000000000000000 ) ) ;
#327 = ADVANCED_FACE ( 'NONE', ( #201 ), #572, .F. ) ;
#328 = DIRECTION ( 'NONE',  ( -0.000000000000000000, -1.000000000000000000, -0.000000000000000000 ) ) ;
#329 = CARTESIAN_POINT ( 'NONE',  ( 1.029999999999999361, 0.007000000000000001013, -0.05000000000000000278 ) ) ;
#330 = DIRECTION ( 'NONE',  ( 0.000000000000000000, 0.000000000000000000, 1.000000000000000000 ) ) ;
#331 = CARTESIAN_POINT ( 'NONE',  ( -1.900000000000000355, 0.000000000000000000, 0.8500000000000006439 ) ) ;
#332 = VERTEX_POINT ( 'NONE', #147 ) ;
#333 = PRESENTATION_LAYER_ASSIGNMENT (  '', '', ( #211 ) ) ;
#334 = CARTESIAN_POINT ( 'NONE',  ( -1.400000000000000355, 0.002000000000000000042, 0.05000000000000000278 ) ) ;
#335 = CARTESIAN_POINT ( 'NONE',  ( 1.399999999999999689, 0.005000000000000000104, 0.8499999999999994227 ) ) ;
#336 = VECTOR ( 'NONE', #837, 1000.000000000000000 ) ;
#337 = ORIENTED_EDGE ( 'NONE', *, *, #208, .F. ) ;
#338 = CARTESIAN_POINT ( 'NONE',  ( -1.400000000000000355, 0.002000000000000000042, -0.04999999999999999584 ) ) ;
#339 = PRESENTATION_LAYER_ASSIGNMENT (  '', '', ( #1055 ) ) ;
#340 = ORIENTED_EDGE ( 'NONE', *, *, #1160, .F. ) ;
#341 = PRESENTATION_STYLE_ASSIGNMENT (( #242 ) ) ;
#342 =( NAMED_UNIT ( * ) PLANE_ANGLE_UNIT ( ) SI_UNIT ( $, .RADIAN. ) );
#343 = VERTEX_POINT ( 'NONE', #1154 ) ;
#344 = VERTEX_POINT ( 'NONE', #961 ) ;
#345 = DIRECTION ( 'NONE',  ( 0.000000000000000000, -0.000000000000000000, 1.000000000000000000 ) ) ;
#346 = PLANE ( 'NONE',  #179 ) ;
#347 = LINE ( 'NONE', #1108, #435 ) ;
#348 = ORIENTED_EDGE ( 'NONE', *, *, #521, .F. ) ;
#349 = EDGE_CURVE ( 'NONE', #882, #507, #976, .T. ) ;
#350 =( NAMED_UNIT ( * ) SI_UNIT ( $, .STERADIAN. ) SOLID_ANGLE_UNIT ( ) );
#351 = DIRECTION ( 'NONE',  ( -0.000000000000000000, -1.000000000000000000, -0.000000000000000000 ) ) ;
#352 = STYLED_ITEM ( 'NONE', ( #1070 ), #911 ) ;
#353 = CARTESIAN_POINT ( 'NONE',  ( -1.900000000000000355, 0.002000000000000000042, 0.8500000000000006439 ) ) ;
#354 = AXIS2_PLACEMENT_3D ( 'NONE', #166, #83, #546 ) ;
#355 = AXIS2_PLACEMENT_3D ( 'NONE', #1014, #163, #920 ) ;
#356 = ORIENTED_EDGE ( 'NONE', *, *, #1219, .F. ) ;
#357 = ADVANCED_FACE ( 'NONE', ( #1147, #780 ), #517, .F. ) ;
#358 = EDGE_CURVE ( 'NONE', #1197, #735, #505, .T. ) ;
#359 =( LENGTH_UNIT ( ) NAMED_UNIT ( * ) SI_UNIT ( .MILLI., .METRE. ) );
#360 = DIRECTION ( 'NONE',  ( 0.000000000000000000, -0.000000000000000000, -1.000000000000000000 ) ) ;
#361 = ORIENTED_EDGE ( 'NONE', *, *, #553, .F. ) ;
#362 =( NAMED_UNIT ( * ) PLANE_ANGLE_UNIT ( ) SI_UNIT ( $, .RADIAN. ) );
#363 = SURFACE_STYLE_USAGE ( .BOTH. , #49 ) ;
#364 = LINE ( 'NONE', #447, #877 ) ;
#365 = ORIENTED_EDGE ( 'NONE', *, *, #946, .T. ) ;
#366 = SHAPE_DEFINITION_REPRESENTATION ( #251, #900 ) ;
#367 = FILL_AREA_STYLE ('',( #1017 ) ) ;
#368 = EDGE_CURVE ( 'NONE', #552, #129, #133, .T. ) ;
#369 = LINE ( 'NONE', #279, #971 ) ;
#370 = STYLED_ITEM ( 'NONE', ( #204 ), #678 ) ;
#371 = ORIENTED_EDGE ( 'NONE', *, *, #600, .T. ) ;
#372 = VECTOR ( 'NONE', #384, 1000.000000000000000 ) ;
#373 =( GEOMETRIC_REPRESENTATION_CONTEXT ( 3 ) GLOBAL_UNCERTAINTY_ASSIGNED_CONTEXT ( ( #981 ) ) GLOBAL_UNIT_ASSIGNED_CONTEXT ( ( #880, #683, #690 ) ) REPRESENTATION_CONTEXT ( 'NONE', 'WORKASPACE' ) );
#374 = AXIS2_PLACEMENT_3D ( 'NONE', #986, #807, #345 ) ;
#375 = LINE ( 'NONE', #663, #758 ) ;
#376 = UNCERTAINTY_MEASURE_WITH_UNIT (LENGTH_MEASURE( 1.000000000000000082E-05 ), #1173, 'distance_accuracy_value', 'NONE');
#377 = SURFACE_STYLE_USAGE ( .BOTH. , #295 ) ;
#378 = EDGE_LOOP ( 'NONE', ( #417, #892, #745, #1084 ) ) ;
#379 = CARTESIAN_POINT ( 'NONE',  ( 0.000000000000000000, 0.002000000000000000042, 0.000000000000000000 ) ) ;
#380 = DIRECTION ( 'NONE',  ( -0.000000000000000000, -0.000000000000000000, 1.000000000000000000 ) ) ;
#381 = VERTEX_POINT ( 'NONE', #420 ) ;
#382 = LINE ( 'NONE', #675, #235 ) ;
#383 = SURFACE_SIDE_STYLE ('',( #1032 ) ) ;
#384 = DIRECTION ( 'NONE',  ( 1.000000000000000000, -0.000000000000000000, -0.000000000000000000 ) ) ;
#385 = DIRECTION ( 'NONE',  ( -0.000000000000000000, -0.000000000000000000, 1.000000000000000000 ) ) ;
#386 = ORIENTED_EDGE ( 'NONE', *, *, #268, .F. ) ;
#387 = DIRECTION ( 'NONE',  ( 1.000000000000000000, 0.000000000000000000, -0.000000000000000000 ) ) ;
#388 = ORIENTED_EDGE ( 'NONE', *, *, #246, .F. ) ;
#389 =( GEOMETRIC_REPRESENTATION_CONTEXT ( 3 ) GLOBAL_UNCERTAINTY_ASSIGNED_CONTEXT ( ( #1040 ) ) GLOBAL_UNIT_ASSIGNED_CONTEXT ( ( #34, #316, #437 ) ) REPRESENTATION_CONTEXT ( 'NONE', 'WORKASPACE' ) );
#390 = STYLED_ITEM ( 'NONE', ( #31 ), #357 ) ;
#391 = EDGE_CURVE ( 'NONE', #202, #403, #787, .T. ) ;
#392 = VECTOR ( 'NONE', #613, 1000.000000000000000 ) ;
#393 = DIRECTION ( 'NONE',  ( 0.000000000000000000, -1.000000000000000000, 0.000000000000000000 ) ) ;
#394 = EDGE_CURVE ( 'NONE', #576, #1122, #1169, .T. ) ;
#395 = CARTESIAN_POINT ( 'NONE',  ( 1.899999999999999689, 0.005000000000000000104, 0.8499999999999994227 ) ) ;
#396 = LINE ( 'NONE', #748, #11 ) ;
#397 = VERTEX_POINT ( 'NONE', #1079 ) ;
#398 = DIRECTION ( 'NONE',  ( 1.000000000000000000, 0.000000000000000000, -1.831422588657945297E-17 ) ) ;
#399 =( NAMED_UNIT ( * ) SI_UNIT ( $, .STERADIAN. ) SOLID_ANGLE_UNIT ( ) );
#400 = DIRECTION ( 'NONE',  ( -4.713922489067410717E-17, 0.000000000000000000, 1.000000000000000000 ) ) ;
#401 = EDGE_CURVE ( 'NONE', #439, #1036, #673, .T. ) ;
#402 = FACE_OUTER_BOUND ( 'NONE', #479, .T. ) ;
#403 = VERTEX_POINT ( 'NONE', #223 ) ;
#404 = LINE ( 'NONE', #272, #737 ) ;
#405 = ORIENTED_EDGE ( 'NONE', *, *, #302, .F. ) ;
#406 = SURFACE_STYLE_USAGE ( .BOTH. , #1162 ) ;
#407 = DIRECTION ( 'NONE',  ( 1.000000000000000000, -0.000000000000000000, 0.000000000000000000 ) ) ;
#408 = CARTESIAN_POINT ( 'NONE',  ( -1.400000000000000355, 0.002000000000000000042, -0.8499999999999993117 ) ) ;
#409 = CARTESIAN_POINT ( 'NONE',  ( -1.250000000000000444, 0.002000000000000000042, 0.04506968986084721601 ) ) ;
#410 = ORIENTED_EDGE ( 'NONE', *, *, #544, .F. ) ;
#411 = AXIS2_PLACEMENT_3D ( 'NONE', #313, #25, #846 ) ;
#412 = CARTESIAN_POINT ( 'NONE',  ( -1.250000000000000444, 0.002000000000000000042, -0.9499999999999998446 ) ) ;
#413 = AXIS2_PLACEMENT_3D ( 'NONE', #1138, #468, #943 ) ;
#414 = DIRECTION ( 'NONE',  ( -1.000000000000000000, 0.000000000000000000, 0.000000000000000000 ) ) ;
#415 = DIRECTION ( 'NONE',  ( 0.000000000000000000, 0.000000000000000000, -1.000000000000000000 ) ) ;
#416 = PLANE ( 'NONE',  #928 ) ;
#417 = ORIENTED_EDGE ( 'NONE', *, *, #1054, .T. ) ;
#418 = EDGE_CURVE ( 'NONE', #560, #947, #871, .T. ) ;
#419 = PLANE ( 'NONE',  #16 ) ;
#420 = CARTESIAN_POINT ( 'NONE',  ( -0.7700000000000003508, 0.002000000000000000042, -0.9299999999999997158 ) ) ;
#421 = EDGE_LOOP ( 'NONE', ( #958, #955, #423, #191 ) ) ;
#422 = DIRECTION ( 'NONE',  ( -0.000000000000000000, -0.000000000000000000, 1.000000000000000000 ) ) ;
#423 = ORIENTED_EDGE ( 'NONE', *, *, #135, .F. ) ;
#424 = CARTESIAN_POINT ( 'NONE',  ( 1.029999999999999361, 0.007000000000000001013, -0.05000000000000000278 ) ) ;
#425 = SURFACE_STYLE_USAGE ( .BOTH. , #524 ) ;
#426 = ORIENTED_EDGE ( 'NONE', *, *, #1080, .T. ) ;
#427 = CARTESIAN_POINT ( 'NONE',  ( 0.000000000000000000, 0.002000000000000000042, 0.9299999999999997158 ) ) ;
#428 = VERTEX_POINT ( 'NONE', #594 ) ;
#429 = SURFACE_STYLE_FILL_AREA ( #817 ) ;
#430 = EDGE_CURVE ( 'NONE', #718, #851, #499, .T. ) ;
#431 = COLOUR_RGB ( '',0.7921568627450980005, 0.8196078431372548767, 0.9333333333333333481 ) ;
#432 = DIRECTION ( 'NONE',  ( 0.000000000000000000, 0.000000000000000000, -1.000000000000000000 ) ) ;
#433 = DIRECTION ( 'NONE',  ( -0.000000000000000000, -0.000000000000000000, 1.000000000000000000 ) ) ;
#434 = AXIS2_PLACEMENT_3D ( 'NONE', #412, #400, #682 ) ;
#435 = VECTOR ( 'NONE', #1092, 1000.000000000000000 ) ;
#436 = VECTOR ( 'NONE', #827, 1000.000000000000000 ) ;
#437 =( NAMED_UNIT ( * ) SI_UNIT ( $, .STERADIAN. ) SOLID_ANGLE_UNIT ( ) );
#438 = VECTOR ( 'NONE', #24, 1000.000000000000000 ) ;
#439 = VERTEX_POINT ( 'NONE', #408 ) ;
#440 = PLANE ( 'NONE',  #374 ) ;
#441 = LINE ( 'NONE', #808, #930 ) ;
#442 = FILL_AREA_STYLE ('',( #167 ) ) ;
#443 = FACE_OUTER_BOUND ( 'NONE', #421, .T. ) ;
#444 = ORIENTED_EDGE ( 'NONE', *, *, #883, .T. ) ;
#445 = DIRECTION ( 'NONE',  ( -0.000000000000000000, -1.000000000000000000, -0.000000000000000000 ) ) ;
#446 = DIRECTION ( 'NONE',  ( -0.000000000000000000, -1.000000000000000000, -0.000000000000000000 ) ) ;
#447 = CARTESIAN_POINT ( 'NONE',  ( -1.400000000000000355, 0.000000000000000000, -0.04999999999999999584 ) ) ;
#448 = ADVANCED_FACE ( 'NONE', ( #402 ), #766, .F. ) ;
#449 = VERTEX_POINT ( 'NONE', #1058 ) ;
#450 = DIRECTION ( 'NONE',  ( 1.000000000000000000, 0.000000000000000000, 0.000000000000000000 ) ) ;
#451 = FACE_OUTER_BOUND ( 'NONE', #795, .T. ) ;
#452 = STYLED_ITEM ( 'NONE', ( #196 ), #1103 ) ;
#453 = VECTOR ( 'NONE', #761, 1000.000000000000000 ) ;
#454 = CARTESIAN_POINT ( 'NONE',  ( -2.000000000000000444, 0.000000000000000000, 1.000000000000000222 ) ) ;
#455 = VECTOR ( 'NONE', #67, 1000.000000000000000 ) ;
#456 = VECTOR ( 'NONE', #944, 1000.000000000000000 ) ;
#457 = EDGE_LOOP ( 'NONE', ( #467, #659, #876, #964 ) ) ;
#458 = FILL_AREA_STYLE ('',( #980 ) ) ;
#459 = EDGE_CURVE ( 'NONE', #1073, #116, #68, .T. ) ;
#460 = CARTESIAN_POINT ( 'NONE',  ( -2.000000000000000444, 0.000000000000000000, -0.9999999999999997780 ) ) ;
#461 = CARTESIAN_POINT ( 'NONE',  ( 1.399999999999999689, 0.007000000000000001013, -0.05000000000000000278 ) ) ;
#462 = CARTESIAN_POINT ( 'NONE',  ( -1.900000000000000355, 0.002000000000000000042, 0.8500000000000006439 ) ) ;
#463 = ORIENTED_EDGE ( 'NONE', *, *, #127, .F. ) ;
#464 = EDGE_CURVE ( 'NONE', #947, #1185, #172, .T. ) ;
#465 =( LENGTH_UNIT ( ) NAMED_UNIT ( * ) SI_UNIT ( .MILLI., .METRE. ) );
#466 = CARTESIAN_POINT ( 'NONE',  ( -2.000000000000000444, -0.4000000000000000222, 1.000000000000000222 ) ) ;
#467 = ORIENTED_EDGE ( 'NONE', *, *, #188, .T. ) ;
#468 = DIRECTION ( 'NONE',  ( -1.000000000000000000, 0.000000000000000000, 0.000000000000000000 ) ) ;
#469 = PLANE ( 'NONE',  #530 ) ;
#470 = STYLED_ITEM ( 'NONE', ( #1000 ), #732 ) ;
#471 = ORIENTED_EDGE ( 'NONE', *, *, #922, .T. ) ;
#472 = VECTOR ( 'NONE', #1099, 1000.000000000000000 ) ;
#473 = EDGE_CURVE ( 'NONE', #65, #910, #803, .T. ) ;
#474 = VERTEX_POINT ( 'NONE', #809 ) ;
#475 = PLANE ( 'NONE',  #875 ) ;
#476 = DIRECTION ( 'NONE',  ( -0.000000000000000000, -1.000000000000000000, -0.000000000000000000 ) ) ;
#477 = FACE_OUTER_BOUND ( 'NONE', #968, .T. ) ;
#478 = LINE ( 'NONE', #115, #157 ) ;
#479 = EDGE_LOOP ( 'NONE', ( #888, #340, #985, #806 ) ) ;
#480 = EDGE_CURVE ( 'NONE', #979, #576, #75, .T. ) ;
#481 = CARTESIAN_POINT ( 'NONE',  ( -0.7700000000000003508, 0.005000000000000000104, -0.9299999999999997158 ) ) ;
#482 = ADVANCED_FACE ( 'NONE', ( #1200 ), #346, .F. ) ;
#483 = ADVANCED_FACE ( 'NONE', ( #451 ), #249, .F. ) ;
#484 = DIRECTION ( 'NONE',  ( 0.000000000000000000, 0.000000000000000000, 1.000000000000000000 ) ) ;
#485 = DIRECTION ( 'NONE',  ( -0.000000000000000000, -0.000000000000000000, 1.000000000000000000 ) ) ;
#486 = CARTESIAN_POINT ( 'NONE',  ( -1.900000000000000355, 0.002000000000000000042, -0.8499999999999993117 ) ) ;
#487 = VERTEX_POINT ( 'NONE', #273 ) ;
#488 = FACE_OUTER_BOUND ( 'NONE', #164, .T. ) ;
#489 = VECTOR ( 'NONE', #328, 1000.000000000000000 ) ;
#490 = AXIS2_PLACEMENT_3D ( 'NONE', #186, #414, #957 ) ;
#491 = VECTOR ( 'NONE', #547, 1000.000000000000000 ) ;
#492 =( GEOMETRIC_REPRESENTATION_CONTEXT ( 3 ) GLOBAL_UNCERTAINTY_ASSIGNED_CONTEXT ( ( #956 ) ) GLOBAL_UNIT_ASSIGNED_CONTEXT ( ( #46, #151, #528 ) ) REPRESENTATION_CONTEXT ( 'NONE', 'WORKASPACE' ) );
#493 = FACE_OUTER_BOUND ( 'NONE', #5, .T. ) ;
#494 = ORIENTED_EDGE ( 'NONE', *, *, #168, .T. ) ;
#495 = FILL_AREA_STYLE_COLOUR ( '', #88 ) ;
#496 = CARTESIAN_POINT ( 'NONE',  ( 0.000000000000000000, 0.005000000000000000104, 0.000000000000000000 ) ) ;
#497 = UNCERTAINTY_MEASURE_WITH_UNIT (LENGTH_MEASURE( 1.000000000000000082E-05 ), #765, 'distance_accuracy_value', 'NONE');
#498 = PLANE ( 'NONE',  #411 ) ;
#499 = LINE ( 'NONE', #21, #54 ) ;
#500 = EDGE_LOOP ( 'NONE', ( #100, #318, #1009, #684 ) ) ;
#501 = DIRECTION ( 'NONE',  ( -1.000000000000000000, 0.000000000000000000, 2.168404344971008868E-16 ) ) ;
#502 = ORIENTED_EDGE ( 'NONE', *, *, #368, .F. ) ;
#503 = SURFACE_SIDE_STYLE ('',( #40 ) ) ;
#504 = DIRECTION ( 'NONE',  ( -0.000000000000000000, -1.000000000000000000, -0.000000000000000000 ) ) ;
#505 = LINE ( 'NONE', #243, #680 ) ;
#506 = PLANE ( 'NONE',  #821 ) ;
#507 = VERTEX_POINT ( 'NONE', #989 ) ;
#508 = VECTOR ( 'NONE', #513, 1000.000000000000000 ) ;
#509 = CARTESIAN_POINT ( 'NONE',  ( -0.7700000000000003508, 0.005000000000000000104, 0.9299999999999997158 ) ) ;
#510 = VECTOR ( 'NONE', #446, 1000.000000000000000 ) ;
#511 = DIRECTION ( 'NONE',  ( 1.000000000000000000, 0.000000000000000000, 0.000000000000000000 ) ) ;
#512 = DIRECTION ( 'NONE',  ( -1.000000000000000000, 0.000000000000000000, 0.000000000000000000 ) ) ;
#513 = DIRECTION ( 'NONE',  ( -1.000000000000000000, -0.000000000000000000, -0.000000000000000000 ) ) ;
#514 = ADVANCED_FACE ( 'NONE', ( #153 ), #262, .T. ) ;
#515 = ORIENTED_EDGE ( 'NONE', *, *, #418, .F. ) ;
#516 = FACE_OUTER_BOUND ( 'NONE', #244, .T. ) ;
#517 = PLANE ( 'NONE',  #1210 ) ;
#518 = CARTESIAN_POINT ( 'NONE',  ( -1.400000000000000355, 0.002000000000000000042, 0.05000000000000000278 ) ) ;
#519 = EDGE_CURVE ( 'NONE', #428, #843, #1102, .T. ) ;
#520 = ORIENTED_EDGE ( 'NONE', *, *, #946, .F. ) ;
#521 = EDGE_CURVE ( 'NONE', #749, #560, #716, .T. ) ;
#522 = SURFACE_STYLE_USAGE ( .BOTH. , #994 ) ;
#523 = FACE_OUTER_BOUND ( 'NONE', #597, .T. ) ;
#524 = SURFACE_SIDE_STYLE ('',( #26 ) ) ;
#525 = ORIENTED_EDGE ( 'NONE', *, *, #266, .F. ) ;
#526 = DIRECTION ( 'NONE',  ( 0.000000000000000000, 0.000000000000000000, -1.000000000000000000 ) ) ;
#527 = ORIENTED_EDGE ( 'NONE', *, *, #1045, .F. ) ;
#528 =( NAMED_UNIT ( * ) SI_UNIT ( $, .STERADIAN. ) SOLID_ANGLE_UNIT ( ) );
#529 = VECTOR ( 'NONE', #963, 1000.000000000000000 ) ;
#530 = AXIS2_PLACEMENT_3D ( 'NONE', #4, #861, #206 ) ;
#531 = VECTOR ( 'NONE', #183, 1000.000000000000000 ) ;
#532 = DIRECTION ( 'NONE',  ( 0.000000000000000000, -1.000000000000000000, 0.000000000000000000 ) ) ;
#533 = VECTOR ( 'NONE', #651, 1000.000000000000000 ) ;
#534 = EDGE_LOOP ( 'NONE', ( #1157, #240, #1184, #53 ) ) ;
#535 = DIRECTION ( 'NONE',  ( 0.000000000000000000, 1.000000000000000000, 0.000000000000000000 ) ) ;
#536 = EDGE_CURVE ( 'NONE', #628, #507, #814, .T. ) ;
#537 =( NAMED_UNIT ( * ) SI_UNIT ( $, .STERADIAN. ) SOLID_ANGLE_UNIT ( ) );
#538 = CARTESIAN_POINT ( 'NONE',  ( -1.250000000000000444, 0.002000000000000000042, 0.9500000000000001776 ) ) ;
#539 = ORIENTED_EDGE ( 'NONE', *, *, #1219, .T. ) ;
#540 = CARTESIAN_POINT ( 'NONE',  ( -1.400000000000000355, 0.000000000000000000, 0.05000000000000000278 ) ) ;
#541 = CARTESIAN_POINT ( 'NONE',  ( 1.399999999999999689, 0.002000000000000000042, 0.04999999999999999584 ) ) ;
#542 = LINE ( 'NONE', #907, #91 ) ;
#543 = CARTESIAN_POINT ( 'NONE',  ( 1.029999999999999361, 0.002000000000000000042, -0.05000000000000000278 ) ) ;
#544 = EDGE_CURVE ( 'NONE', #1197, #1109, #635, .T. ) ;
#545 = ORIENTED_EDGE ( 'NONE', *, *, #1001, .F. ) ;
#546 = DIRECTION ( 'NONE',  ( 1.000000000000000000, 0.000000000000000000, 0.000000000000000000 ) ) ;
#547 = DIRECTION ( 'NONE',  ( -1.000000000000000000, -0.000000000000000000, -4.713922489067410717E-17 ) ) ;
#548 = VECTOR ( 'NONE', #860, 1000.000000000000000 ) ;
#549 = AXIS2_PLACEMENT_3D ( 'NONE', #977, #1069, #237 ) ;
#550 = CARTESIAN_POINT ( 'NONE',  ( -1.900000000000000355, 0.002000000000000000042, 0.8500000000000006439 ) ) ;
#551 = AXIS2_PLACEMENT_3D ( 'NONE', #866, #1048, #772 ) ;
#552 = VERTEX_POINT ( 'NONE', #1002 ) ;
#553 = EDGE_CURVE ( 'NONE', #176, #109, #542, .T. ) ;
#554 = COLOUR_RGB ( '',0.9686274509803921573, 0.8784313725490195957, 0.5999999999999999778 ) ;
#555 = FACE_OUTER_BOUND ( 'NONE', #378, .T. ) ;
#556 = DIRECTION ( 'NONE',  ( -0.000000000000000000, -0.000000000000000000, 1.000000000000000000 ) ) ;
#557 = EDGE_LOOP ( 'NONE', ( #564, #356, #224, #603 ) ) ;
#558 = EDGE_CURVE ( 'NONE', #109, #1185, #375, .T. ) ;
#559 = LINE ( 'NONE', #648, #453 ) ;
#560 = VERTEX_POINT ( 'NONE', #1204 ) ;
#561 =( NAMED_UNIT ( * ) SI_UNIT ( $, .STERADIAN. ) SOLID_ANGLE_UNIT ( ) );
#562 = ORIENTED_EDGE ( 'NONE', *, *, #536, .F. ) ;
#563 = VECTOR ( 'NONE', #630, 1000.000000000000000 ) ;
#564 = ORIENTED_EDGE ( 'NONE', *, *, #349, .F. ) ;
#565 = PLANE ( 'NONE',  #1212 ) ;
#566 = EDGE_CURVE ( 'NONE', #332, #428, #924, .T. ) ;
#567 = CARTESIAN_POINT ( 'NONE',  ( -1.250000000000000444, 0.002000000000000000042, 0.9500000000000001776 ) ) ;
#568 = LINE ( 'NONE', #1018, #836 ) ;
#569 = ORIENTED_EDGE ( 'NONE', *, *, #246, .T. ) ;
#570 = PLANE ( 'NONE',  #290 ) ;
#571 = FILL_AREA_STYLE ('',( #1057 ) ) ;
#572 = PLANE ( 'NONE',  #490 ) ;
#573 = VERTEX_POINT ( 'NONE', #292 ) ;
#574 = SURFACE_STYLE_USAGE ( .BOTH. , #1010 ) ;
#575 = ADVANCED_FACE ( 'NONE', ( #647 ), #84, .F. ) ;
#576 = VERTEX_POINT ( 'NONE', #285 ) ;
#577 = PLANE ( 'NONE',  #434 ) ;
#578 = CARTESIAN_POINT ( 'NONE',  ( 1.399999999999999689, 0.005000000000000000104, 0.8499999999999994227 ) ) ;
#579 = ORIENTED_EDGE ( 'NONE', *, *, #883, .F. ) ;
#580 = FILL_AREA_STYLE ('',( #495 ) ) ;
#581 = ADVANCED_FACE ( 'NONE', ( #919 ), #1211, .F. ) ;
#582 = PRESENTATION_LAYER_ASSIGNMENT (  '', '', ( #1111 ) ) ;
#583 = VECTOR ( 'NONE', #734, 1000.000000000000000 ) ;
#584 = PRODUCT_DEFINITION_FORMATION_WITH_SPECIFIED_SOURCE ( 'ANY', '', #110, .NOT_KNOWN. ) ;
#585 =( NAMED_UNIT ( * ) SI_UNIT ( $, .STERADIAN. ) SOLID_ANGLE_UNIT ( ) );
#586 =( GEOMETRIC_REPRESENTATION_CONTEXT ( 3 ) GLOBAL_UNCERTAINTY_ASSIGNED_CONTEXT ( ( #376 ) ) GLOBAL_UNIT_ASSIGNED_CONTEXT ( ( #1173, #212, #585 ) ) REPRESENTATION_CONTEXT ( 'NONE', 'WORKASPACE' ) );
#587 = DIRECTION ( 'NONE',  ( -0.000000000000000000, -1.000000000000000000, -0.000000000000000000 ) ) ;
#588 = ORIENTED_EDGE ( 'NONE', *, *, #1054, .F. ) ;
#589 = CARTESIAN_POINT ( 'NONE',  ( 1.899999999999999689, 0.005000000000000000104, -0.8500000000000005329 ) ) ;
#590 = EDGE_LOOP ( 'NONE', ( #991, #1214, #1019, #1202 ) ) ;
#591 = PRESENTATION_STYLE_ASSIGNMENT (( #406 ) ) ;
#592 = EDGE_CURVE ( 'NONE', #851, #381, #844, .T. ) ;
#593 = UNCERTAINTY_MEASURE_WITH_UNIT (LENGTH_MEASURE( 1.000000000000000082E-05 ), #161, 'distance_accuracy_value', 'NONE');
#594 = CARTESIAN_POINT ( 'NONE',  ( 1.899999999999999689, 0.005000000000000000104, -0.8500000000000005329 ) ) ;
#595 = EDGE_LOOP ( 'NONE', ( #187, #365, #686, #1151 ) ) ;
#596 = LINE ( 'NONE', #331, #529 ) ;
#597 = EDGE_LOOP ( 'NONE', ( #405, #856, #185, #545 ) ) ;
#598 = FILL_AREA_STYLE_COLOUR ( '', #175 ) ;
#599 = LINE ( 'NONE', #61, #72 ) ;
#600 = EDGE_CURVE ( 'NONE', #1036, #449, #1216, .T. ) ;
#601 = ORIENTED_EDGE ( 'NONE', *, *, #168, .F. ) ;
#602 = FILL_AREA_STYLE_COLOUR ( '', #797 ) ;
#603 = ORIENTED_EDGE ( 'NONE', *, *, #41, .F. ) ;
#604 = STYLED_ITEM ( 'NONE', ( #744 ), #325 ) ;
#605 = CARTESIAN_POINT ( 'NONE',  ( -1.250000000000000444, -0.000000000000000000, -0.9499999999999998446 ) ) ;
#606 = DIRECTION ( 'NONE',  ( 0.000000000000000000, 0.000000000000000000, -1.000000000000000000 ) ) ;
#607 = EDGE_CURVE ( 'NONE', #116, #397, #1119, .T. ) ;
#608 = ORIENTED_EDGE ( 'NONE', *, *, #519, .T. ) ;
#609 = DIRECTION ( 'NONE',  ( -1.000000000000000000, 0.000000000000000000, -0.000000000000000000 ) ) ;
#610 = EDGE_CURVE ( 'NONE', #1073, #1207, #1123, .T. ) ;
#611 = ORIENTED_EDGE ( 'NONE', *, *, #368, .T. ) ;
#612 = DIRECTION ( 'NONE',  ( 1.000000000000000000, 0.000000000000000000, 0.000000000000000000 ) ) ;
#613 = DIRECTION ( 'NONE',  ( 0.000000000000000000, 0.000000000000000000, -1.000000000000000000 ) ) ;
#614 = ORIENTED_EDGE ( 'NONE', *, *, #824, .T. ) ;
#615 = CARTESIAN_POINT ( 'NONE',  ( 1.399999999999999689, 0.007000000000000001013, 0.04999999999999999584 ) ) ;
#616 = EDGE_LOOP ( 'NONE', ( #307, #122, #1029, #190 ) ) ;
#617 = DIRECTION ( 'NONE',  ( 1.000000000000000000, 0.000000000000000000, -0.000000000000000000 ) ) ;
#618 = CARTESIAN_POINT ( 'NONE',  ( 1.029999999999999361, 0.007000000000000001013, -0.05000000000000000278 ) ) ;
#619 = CARTESIAN_POINT ( 'NONE',  ( -1.400000000000000355, -0.000000000000000000, 0.8500000000000006439 ) ) ;
#620 = EDGE_LOOP ( 'NONE', ( #666, #1004, #812, #494 ) ) ;
#621 = EDGE_CURVE ( 'NONE', #910, #882, #103, .T. ) ;
#622 = CARTESIAN_POINT ( 'NONE',  ( 1.399999999999999689, 0.005000000000000000104, -0.8500000000000004219 ) ) ;
#623 = MECHANICAL_DESIGN_GEOMETRIC_PRESENTATION_REPRESENTATION (  '', ( #1055 ), #676 ) ;
#624 = FACE_OUTER_BOUND ( 'NONE', #645, .T. ) ;
#625 = VECTOR ( 'NONE', #1175, 1000.000000000000000 ) ;
#626 = VECTOR ( 'NONE', #351, 1000.000000000000000 ) ;
#627 = DIRECTION ( 'NONE',  ( 0.000000000000000000, 0.000000000000000000, -1.000000000000000000 ) ) ;
#628 = VERTEX_POINT ( 'NONE', #1022 ) ;
#629 = LINE ( 'NONE', #622, #1208 ) ;
#630 = DIRECTION ( 'NONE',  ( -0.000000000000000000, -1.000000000000000000, -0.000000000000000000 ) ) ;
#631 = ADVANCED_FACE ( 'NONE', ( #194 ), #565, .F. ) ;
#632 = CARTESIAN_POINT ( 'NONE',  ( 1.899999999999999689, 0.005000000000000000104, 0.8499999999999994227 ) ) ;
#633 = ORIENTED_EDGE ( 'NONE', *, *, #1206, .T. ) ;
#634 = FACE_OUTER_BOUND ( 'NONE', #638, .T. ) ;
#635 = LINE ( 'NONE', #721, #563 ) ;
#636 = ADVANCED_FACE ( 'NONE', ( #1039 ), #9, .T. ) ;
#637 = PLANE ( 'NONE',  #952 ) ;
#638 = EDGE_LOOP ( 'NONE', ( #1063, #707, #649, #1136 ) ) ;
#639 = PRESENTATION_STYLE_ASSIGNMENT (( #363 ) ) ;
#640 = MECHANICAL_DESIGN_GEOMETRIC_PRESENTATION_REPRESENTATION (  '', ( #370 ), #217 ) ;
#641 = VECTOR ( 'NONE', #1166, 1000.000000000000000 ) ;
#642 = MECHANICAL_DESIGN_GEOMETRIC_PRESENTATION_REPRESENTATION (  '', ( #390 ), #373 ) ;
#643 = DIRECTION ( 'NONE',  ( 1.000000000000000000, 0.000000000000000000, 0.000000000000000000 ) ) ;
#644 = ADVANCED_FACE ( 'NONE', ( #555 ), #305, .T. ) ;
#645 = EDGE_LOOP ( 'NONE', ( #371, #337, #158, #94 ) ) ;
#646 = PRODUCT_CONTEXT ( 'NONE', #319, 'mechanical' ) ;
#647 = FACE_OUTER_BOUND ( 'NONE', #616, .T. ) ;
#648 = CARTESIAN_POINT ( 'NONE',  ( 1.999999999999999556, -0.4000000000000000222, 1.000000000000000222 ) ) ;
#649 = ORIENTED_EDGE ( 'NONE', *, *, #459, .T. ) ;
#650 = CARTESIAN_POINT ( 'NONE',  ( -1.400000000000000355, 0.000000000000000000, 0.05000000000000000278 ) ) ;
#651 = DIRECTION ( 'NONE',  ( 0.000000000000000000, 1.000000000000000000, 0.000000000000000000 ) ) ;
#652 =( LENGTH_UNIT ( ) NAMED_UNIT ( * ) SI_UNIT ( .MILLI., .METRE. ) );
#653 = EDGE_LOOP ( 'NONE', ( #539, #674, #839, #289 ) ) ;
#654 = VERTEX_POINT ( 'NONE', #29 ) ;
#655 = EDGE_CURVE ( 'NONE', #816, #77, #770, .T. ) ;
#656 =( NAMED_UNIT ( * ) SI_UNIT ( $, .STERADIAN. ) SOLID_ANGLE_UNIT ( ) );
#657 = CARTESIAN_POINT ( 'NONE',  ( 1.399999999999999689, 0.005000000000000000104, 0.05166240195782438593 ) ) ;
#658 = DIRECTION ( 'NONE',  ( 0.000000000000000000, 0.000000000000000000, -1.000000000000000000 ) ) ;
#659 = ORIENTED_EDGE ( 'NONE', *, *, #401, .F. ) ;
#660 = DIRECTION ( 'NONE',  ( -0.000000000000000000, -0.000000000000000000, -1.000000000000000000 ) ) ;
#661 =( GEOMETRIC_REPRESENTATION_CONTEXT ( 3 ) GLOBAL_UNCERTAINTY_ASSIGNED_CONTEXT ( ( #1066 ) ) GLOBAL_UNIT_ASSIGNED_CONTEXT ( ( #1007, #342, #537 ) ) REPRESENTATION_CONTEXT ( 'NONE', 'WORKASPACE' ) );
#662 = ORIENTED_EDGE ( 'NONE', *, *, #1061, .T. ) ;
#663 = CARTESIAN_POINT ( 'NONE',  ( -1.250000000000000444, 0.002000000000000000042, -0.9499999999999998446 ) ) ;
#664 = DIRECTION ( 'NONE',  ( 0.000000000000000000, 0.000000000000000000, -1.000000000000000000 ) ) ;
#665 = EDGE_CURVE ( 'NONE', #439, #276, #119, .T. ) ;
#666 = ORIENTED_EDGE ( 'NONE', *, *, #1045, .T. ) ;
#667 = DIRECTION ( 'NONE',  ( 0.000000000000000000, 0.000000000000000000, 1.000000000000000000 ) ) ;
#668 = ORIENTED_EDGE ( 'NONE', *, *, #726, .T. ) ;
#669 = CARTESIAN_POINT ( 'NONE',  ( -2.000000000000000444, -0.4000000000000000222, -0.9999999999999997780 ) ) ;
#670 = SURFACE_STYLE_USAGE ( .BOTH. , #222 ) ;
#671 = DIRECTION ( 'NONE',  ( 0.000000000000000000, 0.000000000000000000, 1.000000000000000000 ) ) ;
#672 = VERTEX_POINT ( 'NONE', #140 ) ;
#673 = LINE ( 'NONE', #121, #1075 ) ;
#674 = ORIENTED_EDGE ( 'NONE', *, *, #621, .F. ) ;
#675 = CARTESIAN_POINT ( 'NONE',  ( 1.049999999999999600, 0.002000000000000000042, 0.9500000000000001776 ) ) ;
#676 =( GEOMETRIC_REPRESENTATION_CONTEXT ( 3 ) GLOBAL_UNCERTAINTY_ASSIGNED_CONTEXT ( ( #845 ) ) GLOBAL_UNIT_ASSIGNED_CONTEXT ( ( #1198, #362, #350 ) ) REPRESENTATION_CONTEXT ( 'NONE', 'WORKASPACE' ) );
#677 = VERTEX_POINT ( 'NONE', #310 ) ;
#678 = ADVANCED_FACE ( 'NONE', ( #516 ), #111, .T. ) ;
#679 = VECTOR ( 'NONE', #949, 1000.000000000000000 ) ;
#680 = VECTOR ( 'NONE', #511, 1000.000000000000000 ) ;
#681 = STYLED_ITEM ( 'NONE', ( #639 ), #482 ) ;
#682 = DIRECTION ( 'NONE',  ( 1.000000000000000000, 0.000000000000000000, 4.713922489067410717E-17 ) ) ;
#683 =( NAMED_UNIT ( * ) PLANE_ANGLE_UNIT ( ) SI_UNIT ( $, .RADIAN. ) );
#684 = ORIENTED_EDGE ( 'NONE', *, *, #1199, .T. ) ;
#685 = SURFACE_SIDE_STYLE ('',( #1171 ) ) ;
#686 = ORIENTED_EDGE ( 'NONE', *, *, #1121, .F. ) ;
#687 = EDGE_CURVE ( 'NONE', #116, #70, #864, .T. ) ;
#688 = FILL_AREA_STYLE ('',( #785 ) ) ;
#689 = CARTESIAN_POINT ( 'NONE',  ( -1.900000000000000355, 0.000000000000000000, 0.8500000000000006439 ) ) ;
#690 =( NAMED_UNIT ( * ) SI_UNIT ( $, .STERADIAN. ) SOLID_ANGLE_UNIT ( ) );
#691 = CARTESIAN_POINT ( 'NONE',  ( 1.029999999999999361, 0.005000000000000000104, -0.9299999999999997158 ) ) ;
#692 = LINE ( 'NONE', #1082, #1193 ) ;
#693 = ORIENTED_EDGE ( 'NONE', *, *, #687, .F. ) ;
#694 = ADVANCED_FACE ( 'NONE', ( #869, #778, #878, #36 ), #419, .F. ) ;
#695 = CARTESIAN_POINT ( 'NONE',  ( 1.029999999999999361, 0.002000000000000000042, 0.05000000000000000278 ) ) ;
#696 = DIRECTION ( 'NONE',  ( -1.000000000000000000, -0.000000000000000000, -0.000000000000000000 ) ) ;
#697 = ORIENTED_EDGE ( 'NONE', *, *, #293, .T. ) ;
#698 = MECHANICAL_DESIGN_GEOMETRIC_PRESENTATION_REPRESENTATION (  '', ( #1111 ), #1011 ) ;
#699 = VECTOR ( 'NONE', #1008, 1000.000000000000000 ) ;
#700 = DIRECTION ( 'NONE',  ( 0.000000000000000000, -0.000000000000000000, 1.000000000000000000 ) ) ;
#701 = VECTOR ( 'NONE', #80, 1000.000000000000000 ) ;
#702 = LINE ( 'NONE', #715, #489 ) ;
#703 = AXIS2_PLACEMENT_3D ( 'NONE', #725, #146, #241 ) ;
#704 = DIRECTION ( 'NONE',  ( -0.000000000000000000, -1.000000000000000000, -0.000000000000000000 ) ) ;
#705 = VERTEX_POINT ( 'NONE', #1077 ) ;
#706 = LINE ( 'NONE', #427, #641 ) ;
#707 = ORIENTED_EDGE ( 'NONE', *, *, #610, .F. ) ;
#708 = CARTESIAN_POINT ( 'NONE',  ( 1.029999999999999361, 0.002000000000000000909, 0.9299999999999997158 ) ) ;
#709 =( NAMED_UNIT ( * ) SI_UNIT ( $, .STERADIAN. ) SOLID_ANGLE_UNIT ( ) );
#710 = CARTESIAN_POINT ( 'NONE',  ( -0.7700000000000003508, 0.005000000000000000104, 0.9299999999999997158 ) ) ;
#711 = PLANE ( 'NONE',  #1026 ) ;
#712 = ADVANCED_FACE ( 'NONE', ( #634 ), #1101, .T. ) ;
#713 = ORIENTED_EDGE ( 'NONE', *, *, #1033, .F. ) ;
#714 = CARTESIAN_POINT ( 'NONE',  ( -1.400000000000000355, 0.002000000000000000042, 0.05000000000000000278 ) ) ;
#715 = CARTESIAN_POINT ( 'NONE',  ( 1.399999999999999689, 0.007000000000000001013, -0.05000000000000000278 ) ) ;
#716 = LINE ( 'NONE', #62, #510 ) ;
#717 = LINE ( 'NONE', #550, #583 ) ;
#718 = VERTEX_POINT ( 'NONE', #708 ) ;
#719 = MANIFOLD_SOLID_BREP ( 'Boss-Extrude4', #193 ) ;
#720 = VECTOR ( 'NONE', #398, 1000.000000000000000 ) ;
#721 = CARTESIAN_POINT ( 'NONE',  ( -0.7700000000000003508, 0.005000000000000000104, 0.9299999999999997158 ) ) ;
#722 = CLOSED_SHELL ( 'NONE', ( #694, #357, #514, #1176, #712, #636, #138, #1174, #64, #108, #327, #1103, #850, #1023, #1095, #909, #12, #801, #911, #482, #678, #299, #8, #581, #261, #644 ) ) ;
#723 = CARTESIAN_POINT ( 'NONE',  ( 1.999999999999999556, -0.4000000000000000222, 1.000000000000000222 ) ) ;
#724 = ORIENTED_EDGE ( 'NONE', *, *, #38, .F. ) ;
#725 = CARTESIAN_POINT ( 'NONE',  ( -2.000000000000000444, -0.4000000000000000222, 1.000000000000000222 ) ) ;
#726 = EDGE_CURVE ( 'NONE', #487, #654, #629, .T. ) ;
#727 = APPLICATION_PROTOCOL_DEFINITION ( 'draft international standard', 'automotive_design', 1998, #319 ) ;
#728 = DIRECTION ( 'NONE',  ( 0.000000000000000000, 0.000000000000000000, -1.000000000000000000 ) ) ;
#729 = FACE_OUTER_BOUND ( 'NONE', #775, .T. ) ;
#730 = VERTEX_POINT ( 'NONE', #1186 ) ;
#731 = CARTESIAN_POINT ( 'NONE',  ( -2.000000000000000444, -0.4000000000000000222, -0.9999999999999997780 ) ) ;
#732 = ADVANCED_FACE ( 'NONE', ( #1085 ), #440, .T. ) ;
#733 = EDGE_CURVE ( 'NONE', #65, #962, #901, .T. ) ;
#734 = DIRECTION ( 'NONE',  ( -0.000000000000000000, -0.000000000000000000, 1.000000000000000000 ) ) ;
#735 = VERTEX_POINT ( 'NONE', #813 ) ;
#736 = SURFACE_STYLE_USAGE ( .BOTH. , #383 ) ;
#737 = VECTOR ( 'NONE', #660, 1000.000000000000000 ) ;
#738 = AXIS2_PLACEMENT_3D ( 'NONE', #424, #1067, #617 ) ;
#739 =( GEOMETRIC_REPRESENTATION_CONTEXT ( 3 ) GLOBAL_UNCERTAINTY_ASSIGNED_CONTEXT ( ( #1146 ) ) GLOBAL_UNIT_ASSIGNED_CONTEXT ( ( #652, #93, #561 ) ) REPRESENTATION_CONTEXT ( 'NONE', 'WORKASPACE' ) );
#740 = LINE ( 'NONE', #1027, #336 ) ;
#741 = ORIENTED_EDGE ( 'NONE', *, *, #71, .F. ) ;
#742 = PRESENTATION_LAYER_ASSIGNMENT (  '', '', ( #470 ) ) ;
#743 = DIRECTION ( 'NONE',  ( 0.000000000000000000, -0.000000000000000000, -1.000000000000000000 ) ) ;
#744 = PRESENTATION_STYLE_ASSIGNMENT (( #377 ) ) ;
#745 = ORIENTED_EDGE ( 'NONE', *, *, #566, .T. ) ;
#746 = ORIENTED_EDGE ( 'NONE', *, *, #521, .T. ) ;
#747 = CARTESIAN_POINT ( 'NONE',  ( -2.000000000000000444, -0.4000000000000000222, 1.000000000000000222 ) ) ;
#748 = CARTESIAN_POINT ( 'NONE',  ( 1.029999999999999361, 0.007000000000000001013, 0.05000000000000000278 ) ) ;
#749 = VERTEX_POINT ( 'NONE', #1096 ) ;
#750 = CARTESIAN_POINT ( 'NONE',  ( 1.029999999999999361, 0.007000000000000001013, 0.05000000000000000278 ) ) ;
#751 = EDGE_CURVE ( 'NONE', #232, #962, #165, .T. ) ;
#752 = DIRECTION ( 'NONE',  ( 0.000000000000000000, 0.000000000000000000, -1.000000000000000000 ) ) ;
#753 = DIRECTION ( 'NONE',  ( -1.000000000000000000, 0.000000000000000000, 0.000000000000000000 ) ) ;
#754 = FACE_OUTER_BOUND ( 'NONE', #247, .T. ) ;
#755 = VECTOR ( 'NONE', #1143, 1000.000000000000000 ) ;
#756 = ORIENTED_EDGE ( 'NONE', *, *, #174, .F. ) ;
#757 = CARTESIAN_POINT ( 'NONE',  ( 1.029999999999999361, 0.007000000000000001013, -0.05000000000000000278 ) ) ;
#758 = VECTOR ( 'NONE', #278, 1000.000000000000000 ) ;
#759 = STYLED_ITEM ( 'NONE', ( #591 ), #644 ) ;
#760 = DIRECTION ( 'NONE',  ( 0.000000000000000000, 0.000000000000000000, -1.000000000000000000 ) ) ;
#761 = DIRECTION ( 'NONE',  ( 0.000000000000000000, 0.000000000000000000, -1.000000000000000000 ) ) ;
#762 = EDGE_LOOP ( 'NONE', ( #945, #520, #829, #82 ) ) ;
#763 = DIRECTION ( 'NONE',  ( -1.000000000000000000, 0.000000000000000000, 0.000000000000000000 ) ) ;
#764 = EDGE_CURVE ( 'NONE', #403, #560, #906, .T. ) ;
#765 =( LENGTH_UNIT ( ) NAMED_UNIT ( * ) SI_UNIT ( .MILLI., .METRE. ) );
#766 = PLANE ( 'NONE',  #551 ) ;
#767 = EDGE_LOOP ( 'NONE', ( #303, #386, #848, #873 ) ) ;
#768 =( NAMED_UNIT ( * ) PLANE_ANGLE_UNIT ( ) SI_UNIT ( $, .RADIAN. ) );
#769 = EDGE_LOOP ( 'NONE', ( #784, #288, #724, #471 ) ) ;
#770 = LINE ( 'NONE', #965, #796 ) ;
#771 = LINE ( 'NONE', #1041, #372 ) ;
#772 = DIRECTION ( 'NONE',  ( 0.000000000000000000, 0.000000000000000000, 1.000000000000000000 ) ) ;
#773 = ORIENTED_EDGE ( 'NONE', *, *, #1083, .F. ) ;
#774 = CARTESIAN_POINT ( 'NONE',  ( -1.250000000000000444, 0.002000000000000000042, 0.05000000000000000278 ) ) ;
#775 = EDGE_LOOP ( 'NONE', ( #1218, #999, #1021, #1120 ) ) ;
#776 = AXIS2_PLACEMENT_3D ( 'NONE', #870, #753, #30 ) ;
#777 = VECTOR ( 'NONE', #216, 1000.000000000000000 ) ;
#778 = FACE_OUTER_BOUND ( 'NONE', #620, .T. ) ;
#779 = CARTESIAN_POINT ( 'NONE',  ( -2.000000000000000444, -0.4000000000000000222, -0.9999999999999997780 ) ) ;
#780 = FACE_BOUND ( 'NONE', #762, .T. ) ;
#781 = DIRECTION ( 'NONE',  ( -1.000000000000000000, 0.000000000000000000, -0.000000000000000000 ) ) ;
#782 = CARTESIAN_POINT ( 'NONE',  ( -2.000000000000000444, 0.000000000000000000, -0.9999999999999997780 ) ) ;
#783 = EDGE_CURVE ( 'NONE', #735, #730, #404, .T. ) ;
#784 = ORIENTED_EDGE ( 'NONE', *, *, #751, .T. ) ;
#785 = FILL_AREA_STYLE_COLOUR ( '', #554 ) ;
#786 = PLANE ( 'NONE',  #51 ) ;
#787 = LINE ( 'NONE', #306, #777 ) ;
#788 = FACE_OUTER_BOUND ( 'NONE', #769, .T. ) ;
#789 = DIRECTION ( 'NONE',  ( 0.000000000000000000, 0.000000000000000000, -1.000000000000000000 ) ) ;
#790 = EDGE_LOOP ( 'NONE', ( #218, #463, #283, #713 ) ) ;
#791 = CARTESIAN_POINT ( 'NONE',  ( 0.000000000000000000, 0.005000000000000000104, 0.000000000000000000 ) ) ;
#792 = DIRECTION ( 'NONE',  ( 1.000000000000000000, 0.000000000000000000, -0.000000000000000000 ) ) ;
#793 = ORIENTED_EDGE ( 'NONE', *, *, #459, .F. ) ;
#794 = SURFACE_STYLE_USAGE ( .BOTH. , #685 ) ;
#795 = EDGE_LOOP ( 'NONE', ( #894, #921, #1065, #889 ) ) ;
#796 = VECTOR ( 'NONE', #124, 1000.000000000000000 ) ;
#797 = COLOUR_RGB ( '',0.2000000000000000111, 0.2000000000000000111, 0.2000000000000000111 ) ;
#798 = PRESENTATION_LAYER_ASSIGNMENT (  '', '', ( #604 ) ) ;
#799 = AXIS2_PLACEMENT_3D ( 'NONE', #896, #162, #1098 ) ;
#800 = DIRECTION ( 'NONE',  ( -1.000000000000000000, 0.000000000000000000, -0.000000000000000000 ) ) ;
#801 = ADVANCED_FACE ( 'NONE', ( #117 ), #849, .F. ) ;
#802 = AXIS2_PLACEMENT_3D ( 'NONE', #481, #1150, #387 ) ;
#803 = LINE ( 'NONE', #914, #531 ) ;
#804 = EDGE_LOOP ( 'NONE', ( #868, #1192, #87, #296 ) ) ;
#805 = DIRECTION ( 'NONE',  ( -0.000000000000000000, -1.000000000000000000, -0.000000000000000000 ) ) ;
#806 = ORIENTED_EDGE ( 'NONE', *, *, #826, .T. ) ;
#807 = DIRECTION ( 'NONE',  ( -0.000000000000000000, 1.000000000000000000, 0.000000000000000000 ) ) ;
#808 = CARTESIAN_POINT ( 'NONE',  ( -1.400000000000000355, 0.002000000000000000042, -0.04999999999999999584 ) ) ;
#809 = CARTESIAN_POINT ( 'NONE',  ( -1.900000000000000355, 0.002000000000000000042, 0.8500000000000006439 ) ) ;
#810 = LINE ( 'NONE', #543, #472 ) ;
#811 = EDGE_CURVE ( 'NONE', #428, #487, #123, .T. ) ;
#812 = ORIENTED_EDGE ( 'NONE', *, *, #897, .T. ) ;
#813 = CARTESIAN_POINT ( 'NONE',  ( 1.029999999999999361, 0.005000000000000000104, 0.9299999999999997158 ) ) ;
#814 = LINE ( 'NONE', #1190, #626 ) ;
#815 = CARTESIAN_POINT ( 'NONE',  ( -0.7700000000000003508, 0.005000000000000000104, -0.9299999999999997158 ) ) ;
#816 = VERTEX_POINT ( 'NONE', #18 ) ;
#817 = FILL_AREA_STYLE ('',( #60 ) ) ;
#818 = VECTOR ( 'NONE', #485, 1000.000000000000000 ) ;
#819 = DIRECTION ( 'NONE',  ( -0.000000000000000000, -1.000000000000000000, -0.000000000000000000 ) ) ;
#820 = DIRECTION ( 'NONE',  ( -1.000000000000000000, -0.000000000000000000, -4.713922489067410717E-17 ) ) ;
#821 = AXIS2_PLACEMENT_3D ( 'NONE', #33, #415, #781 ) ;
#822 = DIRECTION ( 'NONE',  ( 1.000000000000000000, -0.000000000000000000, -0.000000000000000000 ) ) ;
#823 = ORIENTED_EDGE ( 'NONE', *, *, #621, .T. ) ;
#824 = EDGE_CURVE ( 'NONE', #816, #1073, #95, .T. ) ;
#825 = SURFACE_STYLE_FILL_AREA ( #458 ) ;
#826 = EDGE_CURVE ( 'NONE', #979, #1215, #101, .T. ) ;
#827 = DIRECTION ( 'NONE',  ( -0.000000000000000000, -0.000000000000000000, -1.000000000000000000 ) ) ;
#828 = PLANE ( 'NONE',  #355 ) ;
#829 = ORIENTED_EDGE ( 'NONE', *, *, #293, .F. ) ;
#830 = PRESENTATION_STYLE_ASSIGNMENT (( #736 ) ) ;
#831 = CARTESIAN_POINT ( 'NONE',  ( -1.400000000000000355, 0.002000000000000000042, 0.05000000000000000278 ) ) ;
#832 = ORIENTED_EDGE ( 'NONE', *, *, #929, .F. ) ;
#833 = CARTESIAN_POINT ( 'NONE',  ( -1.900000000000000355, 0.000000000000000000, -0.8499999999999993117 ) ) ;
#834 = EDGE_CURVE ( 'NONE', #1122, #705, #1030, .T. ) ;
#835 = COLOUR_RGB ( '',0.9686274509803921573, 0.8784313725490195957, 0.5999999999999999778 ) ;
#836 = VECTOR ( 'NONE', #86, 1000.000000000000000 ) ;
#837 = DIRECTION ( 'NONE',  ( -0.000000000000000000, -0.000000000000000000, -1.000000000000000000 ) ) ;
#838 = STYLED_ITEM ( 'NONE', ( #830 ), #575 ) ;
#839 = ORIENTED_EDGE ( 'NONE', *, *, #473, .F. ) ;
#840 = DIRECTION ( 'NONE',  ( -1.000000000000000000, 0.000000000000000000, 0.000000000000000000 ) ) ;
#841 = EDGE_LOOP ( 'NONE', ( #388, #693, #793, #1 ) ) ;
#842 = CARTESIAN_POINT ( 'NONE',  ( 1.029999999999999361, 0.002000000000000000042, -0.9299999999999997158 ) ) ;
#843 = VERTEX_POINT ( 'NONE', #1044 ) ;
#844 = LINE ( 'NONE', #97, #1097 ) ;
#845 = UNCERTAINTY_MEASURE_WITH_UNIT (LENGTH_MEASURE( 1.000000000000000082E-05 ), #1198, 'distance_accuracy_value', 'NONE');
#846 = DIRECTION ( 'NONE',  ( 0.000000000000000000, -0.000000000000000000, -1.000000000000000000 ) ) ;
#847 = LINE ( 'NONE', #1117, #855 ) ;
#848 = ORIENTED_EDGE ( 'NONE', *, *, #394, .F. ) ;
#849 = PLANE ( 'NONE',  #802 ) ;
#850 = ADVANCED_FACE ( 'NONE', ( #935 ), #475, .F. ) ;
#851 = VERTEX_POINT ( 'NONE', #842 ) ;
#852 = DIRECTION ( 'NONE',  ( -0.000000000000000000, -1.000000000000000000, -0.000000000000000000 ) ) ;
#853 = CARTESIAN_POINT ( 'NONE',  ( 1.999999999999999556, 0.000000000000000000, 1.000000000000000222 ) ) ;
#854 = VECTOR ( 'NONE', #1195, 1000.000000000000000 ) ;
#855 = VECTOR ( 'NONE', #385, 1000.000000000000000 ) ;
#856 = ORIENTED_EDGE ( 'NONE', *, *, #270, .F. ) ;
#857 = MECHANICAL_DESIGN_GEOMETRIC_PRESENTATION_REPRESENTATION (  '', ( #838 ), #259 ) ;
#858 = AXIS2_PLACEMENT_3D ( 'NONE', #496, #1056, #221 ) ;
#859 = SURFACE_STYLE_USAGE ( .BOTH. , #503 ) ;
#860 = DIRECTION ( 'NONE',  ( 0.000000000000000000, 0.000000000000000000, -1.000000000000000000 ) ) ;
#861 = DIRECTION ( 'NONE',  ( 2.168404344971009115E-16, -0.000000000000000000, 1.000000000000000000 ) ) ;
#862 = ORIENTED_EDGE ( 'NONE', *, *, #1083, .T. ) ;
#863 = PRESENTATION_STYLE_ASSIGNMENT (( #574 ) ) ;
#864 = LINE ( 'NONE', #227, #438 ) ;
#865 = CARTESIAN_POINT ( 'NONE',  ( 1.999999999999999556, 0.000000000000000000, 1.000000000000000222 ) ) ;
#866 = CARTESIAN_POINT ( 'NONE',  ( 1.399999999999999689, 0.007000000000000001013, -0.05000000000000000278 ) ) ;
#867 = ORIENTED_EDGE ( 'NONE', *, *, #78, .F. ) ;
#868 = ORIENTED_EDGE ( 'NONE', *, *, #1121, .T. ) ;
#869 = FACE_BOUND ( 'NONE', #1089, .T. ) ;
#870 = CARTESIAN_POINT ( 'NONE',  ( -1.250000000000000444, 0.002000000000000000042, 0.05000000000000000278 ) ) ;
#871 = LINE ( 'NONE', #1068, #392 ) ;
#872 = EDGE_CURVE ( 'NONE', #749, #176, #382, .T. ) ;
#873 = ORIENTED_EDGE ( 'NONE', *, *, #1160, .T. ) ;
#874 = DIRECTION ( 'NONE',  ( -1.000000000000000000, -0.000000000000000000, -0.000000000000000000 ) ) ;
#875 = AXIS2_PLACEMENT_3D ( 'NONE', #1106, #763, #667 ) ;
#876 = ORIENTED_EDGE ( 'NONE', *, *, #1080, .F. ) ;
#877 = VECTOR ( 'NONE', #76, 1000.000000000000000 ) ;
#878 = FACE_BOUND ( 'NONE', #534, .T. ) ;
#879 = LINE ( 'NONE', #975, #625 ) ;
#880 =( LENGTH_UNIT ( ) NAMED_UNIT ( * ) SI_UNIT ( .MILLI., .METRE. ) );
#881 = FACE_OUTER_BOUND ( 'NONE', #1181, .T. ) ;
#882 = VERTEX_POINT ( 'NONE', #1220 ) ;
#883 = EDGE_CURVE ( 'NONE', #705, #979, #6, .T. ) ;
#884 = FILL_AREA_STYLE ('',( #598 ) ) ;
#885 = UNCERTAINTY_MEASURE_WITH_UNIT (LENGTH_MEASURE( 1.000000000000000082E-05 ), #465, 'distance_accuracy_value', 'NONE');
#886 = LINE ( 'NONE', #689, #256 ) ;
#887 = FILL_AREA_STYLE_COLOUR ( '', #931 ) ;
#888 = ORIENTED_EDGE ( 'NONE', *, *, #302, .T. ) ;
#889 = ORIENTED_EDGE ( 'NONE', *, *, #268, .T. ) ;
#890 = FACE_OUTER_BOUND ( 'NONE', #653, .T. ) ;
#891 = DIRECTION ( 'NONE',  ( 0.000000000000000000, 0.000000000000000000, -1.000000000000000000 ) ) ;
#892 = ORIENTED_EDGE ( 'NONE', *, *, #71, .T. ) ;
#893 = LINE ( 'NONE', #782, #192 ) ;
#894 = ORIENTED_EDGE ( 'NONE', *, *, #92, .T. ) ;
#895 = FACE_OUTER_BOUND ( 'NONE', #131, .T. ) ;
#896 = CARTESIAN_POINT ( 'NONE',  ( 1.999999999999999556, -0.4000000000000000222, 1.000000000000000222 ) ) ;
#897 = EDGE_CURVE ( 'NONE', #1207, #397, #107, .T. ) ;
#898 = DIRECTION ( 'NONE',  ( 0.000000000000000000, -0.000000000000000000, -1.000000000000000000 ) ) ;
#899 = ORIENTED_EDGE ( 'NONE', *, *, #984, .F. ) ;
#900 = ADVANCED_BREP_SHAPE_REPRESENTATION ( 'P14 FemtoCap-G_5 (180pF +-50pF)', ( #325, #719, #1135, #354 ), #1074 ) ;
#901 = LINE ( 'NONE', #714, #154 ) ;
#902 = DIRECTION ( 'NONE',  ( -0.000000000000000000, -1.000000000000000000, -0.000000000000000000 ) ) ;
#903 = ADVANCED_FACE ( 'NONE', ( #209 ), #1037, .F. ) ;
#904 = CARTESIAN_POINT ( 'NONE',  ( -1.900000000000000355, -0.000000000000000000, 0.8500000000000006439 ) ) ;
#905 = ORIENTED_EDGE ( 'NONE', *, *, #1033, .T. ) ;
#906 = LINE ( 'NONE', #66, #1182 ) ;
#907 = CARTESIAN_POINT ( 'NONE',  ( -1.250000000000000444, 0.002000000000000000042, -0.9499999999999998446 ) ) ;
#908 = FACE_OUTER_BOUND ( 'NONE', #841, .T. ) ;
#909 = ADVANCED_FACE ( 'NONE', ( #488 ), #570, .F. ) ;
#910 = VERTEX_POINT ( 'NONE', #774 ) ;
#911 = ADVANCED_FACE ( 'NONE', ( #144 ), #416, .F. ) ;
#912 =( GEOMETRIC_REPRESENTATION_CONTEXT ( 3 ) GLOBAL_UNCERTAINTY_ASSIGNED_CONTEXT ( ( #497 ) ) GLOBAL_UNIT_ASSIGNED_CONTEXT ( ( #765, #20, #1139 ) ) REPRESENTATION_CONTEXT ( 'NONE', 'WORKASPACE' ) );
#913 = VECTOR ( 'NONE', #606, 1000.000000000000000 ) ;
#914 = CARTESIAN_POINT ( 'NONE',  ( -1.400000000000000355, 0.002000000000000000042, 0.05000000000000000278 ) ) ;
#915 = VECTOR ( 'NONE', #320, 1000.000000000000000 ) ;
#916 = CARTESIAN_POINT ( 'NONE',  ( 0.000000000000000000, -0.4000000000000000222, 0.000000000000000000 ) ) ;
#917 = ORIENTED_EDGE ( 'NONE', *, *, #281, .T. ) ;
#918 = CARTESIAN_POINT ( 'NONE',  ( -0.7700000000000003508, 0.005000000000000000104, -0.9299999999999997158 ) ) ;
#919 = FACE_OUTER_BOUND ( 'NONE', #972, .T. ) ;
#920 = DIRECTION ( 'NONE',  ( -1.000000000000000000, 0.000000000000000000, -0.000000000000000000 ) ) ;
#921 = ORIENTED_EDGE ( 'NONE', *, *, #281, .F. ) ;
#922 = EDGE_CURVE ( 'NONE', #573, #232, #225, .T. ) ;
#923 = APPLICATION_PROTOCOL_DEFINITION ( 'draft international standard', 'automotive_design', 1998, #1115 ) ;
#924 = LINE ( 'NONE', #282, #701 ) ;
#925 = FILL_AREA_STYLE ('',( #1134 ) ) ;
#926 = ORIENTED_EDGE ( 'NONE', *, *, #655, .T. ) ;
#927 = CARTESIAN_POINT ( 'NONE',  ( -1.250000000000000444, 0.002000000000000000042, 0.05000000000000000278 ) ) ;
#928 = AXIS2_PLACEMENT_3D ( 'NONE', #245, #44, #526 ) ;
#929 = EDGE_CURVE ( 'NONE', #109, #202, #1178, .T. ) ;
#930 = VECTOR ( 'NONE', #1086, 1000.000000000000000 ) ;
#931 = COLOUR_RGB ( '',0.2980392156862745057, 0.2980392156862745057, 0.2980392156862745057 ) ;
#932 = AXIS2_PLACEMENT_3D ( 'NONE', #379, #393, #743 ) ;
#933 = EDGE_CURVE ( 'NONE', #77, #1207, #893, .T. ) ;
#934 = ORIENTED_EDGE ( 'NONE', *, *, #391, .F. ) ;
#935 = FACE_OUTER_BOUND ( 'NONE', #1015, .T. ) ;
#936 = ORIENTED_EDGE ( 'NONE', *, *, #764, .T. ) ;
#937 = CARTESIAN_POINT ( 'NONE',  ( -1.400000000000000355, 0.002000000000000000042, -0.04999999999999999584 ) ) ;
#938 = CARTESIAN_POINT ( 'NONE',  ( -1.900000000000000355, 0.002000000000000000042, 0.8500000000000006439 ) ) ;
#939 = DIRECTION ( 'NONE',  ( -0.000000000000000000, -1.000000000000000000, -0.000000000000000000 ) ) ;
#940 = EDGE_CURVE ( 'NONE', #449, #59, #596, .T. ) ;
#941 = ORIENTED_EDGE ( 'NONE', *, *, #922, .F. ) ;
#942 = DIRECTION ( 'NONE',  ( -1.000000000000000000, -0.000000000000000000, -0.000000000000000000 ) ) ;
#943 = DIRECTION ( 'NONE',  ( 0.000000000000000000, 0.000000000000000000, 1.000000000000000000 ) ) ;
#944 = DIRECTION ( 'NONE',  ( -0.000000000000000000, -1.000000000000000000, -0.000000000000000000 ) ) ;
#945 = ORIENTED_EDGE ( 'NONE', *, *, #430, .F. ) ;
#946 = EDGE_CURVE ( 'NONE', #1109, #718, #706, .T. ) ;
#947 = VERTEX_POINT ( 'NONE', #130 ) ;
#948 =( LENGTH_UNIT ( ) NAMED_UNIT ( * ) SI_UNIT ( .MILLI., .METRE. ) );
#949 = DIRECTION ( 'NONE',  ( 0.000000000000000000, 0.000000000000000000, -1.000000000000000000 ) ) ;
#950 = PLANE ( 'NONE',  #1132 ) ;
#951 = VECTOR ( 'NONE', #1137, 1000.000000000000000 ) ;
#952 = AXIS2_PLACEMENT_3D ( 'NONE', #353, #173, #63 ) ;
#953 = ORIENTED_EDGE ( 'NONE', *, *, #655, .F. ) ;
#954 = VECTOR ( 'NONE', #501, 1000.000000000000000 ) ;
#955 = ORIENTED_EDGE ( 'NONE', *, *, #228, .F. ) ;
#956 = UNCERTAINTY_MEASURE_WITH_UNIT (LENGTH_MEASURE( 1.000000000000000082E-05 ), #46, 'distance_accuracy_value', 'NONE');
#957 = DIRECTION ( 'NONE',  ( 0.000000000000000000, 0.000000000000000000, 1.000000000000000000 ) ) ;
#958 = ORIENTED_EDGE ( 'NONE', *, *, #1140, .T. ) ;
#959 = CARTESIAN_POINT ( 'NONE',  ( -1.250000000000000444, 0.002000000000000000042, 0.9500000000000001776 ) ) ;
#960 = LINE ( 'NONE', #126, #1050 ) ;
#961 = CARTESIAN_POINT ( 'NONE',  ( -0.7700000000000003508, 0.005000000000000000104, -0.9299999999999997158 ) ) ;
#962 = VERTEX_POINT ( 'NONE', #323 ) ;
#963 = DIRECTION ( 'NONE',  ( -0.000000000000000000, -0.000000000000000000, 1.000000000000000000 ) ) ;
#964 = ORIENTED_EDGE ( 'NONE', *, *, #228, .T. ) ;
#965 = CARTESIAN_POINT ( 'NONE',  ( 1.999999999999999556, -0.4000000000000000222, -0.9999999999999997780 ) ) ;
#966 = DIRECTION ( 'NONE',  ( 0.000000000000000000, 0.000000000000000000, 1.000000000000000000 ) ) ;
#967 = DIRECTION ( 'NONE',  ( 0.000000000000000000, -1.000000000000000000, 0.000000000000000000 ) ) ;
#968 = EDGE_LOOP ( 'NONE', ( #426, #982, #1059, #264 ) ) ;
#969 = LINE ( 'NONE', #137, #508 ) ;
#970 = VECTOR ( 'NONE', #1025, 1000.000000000000000 ) ;
#971 = VECTOR ( 'NONE', #380, 1000.000000000000000 ) ;
#972 = EDGE_LOOP ( 'NONE', ( #662, #27, #150, #862 ) ) ;
#973 = VECTOR ( 'NONE', #627, 1000.000000000000000 ) ;
#974 = CARTESIAN_POINT ( 'NONE',  ( -1.900000000000000355, 0.002000000000000000042, -0.8499999999999993117 ) ) ;
#975 = CARTESIAN_POINT ( 'NONE',  ( -1.250000000000000444, 0.002000000000000000042, 0.9500000000000001776 ) ) ;
#976 = LINE ( 'NONE', #142, #913 ) ;
#977 = CARTESIAN_POINT ( 'NONE',  ( -1.400000000000000355, 0.002000000000000000042, 0.05000000000000000278 ) ) ;
#978 = EDGE_CURVE ( 'NONE', #730, #851, #692, .T. ) ;
#979 = VERTEX_POINT ( 'NONE', #615 ) ;
#980 = FILL_AREA_STYLE_COLOUR ( '', #55 ) ;
#981 = UNCERTAINTY_MEASURE_WITH_UNIT (LENGTH_MEASURE( 1.000000000000000082E-05 ), #880, 'distance_accuracy_value', 'NONE');
#982 = ORIENTED_EDGE ( 'NONE', *, *, #665, .T. ) ;
#983 = LINE ( 'NONE', #149, #89 ) ;
#984 = EDGE_CURVE ( 'NONE', #1185, #403, #983, .T. ) ;
#985 = ORIENTED_EDGE ( 'NONE', *, *, #480, .F. ) ;
#986 = CARTESIAN_POINT ( 'NONE',  ( 0.000000000000000000, 0.007000000000000001013, 0.000000000000000000 ) ) ;
#987 = PRODUCT_DEFINITION ( 'UNKNOWN', '', #584, #1163 ) ;
#988 = DIRECTION ( 'NONE',  ( 1.000000000000000000, 0.000000000000000000, -0.000000000000000000 ) ) ;
#989 = CARTESIAN_POINT ( 'NONE',  ( -1.250000000000000444, 0.000000000000000000, -0.04999999999999999584 ) ) ;
#990 = FACE_OUTER_BOUND ( 'NONE', #557, .T. ) ;
#991 = ORIENTED_EDGE ( 'NONE', *, *, #978, .T. ) ;
#992 = VECTOR ( 'NONE', #476, 1000.000000000000000 ) ;
#993 = MECHANICAL_DESIGN_GEOMETRIC_PRESENTATION_REPRESENTATION (  '', ( #604 ), #739 ) ;
#994 = SURFACE_SIDE_STYLE ('',( #825 ) ) ;
#995 = VECTOR ( 'NONE', #433, 1000.000000000000000 ) ;
#996 = CARTESIAN_POINT ( 'NONE',  ( -1.900000000000000355, 0.002000000000000000042, -0.8499999999999993117 ) ) ;
#997 = CARTESIAN_POINT ( 'NONE',  ( -2.000000000000000444, -0.4000000000000000222, 1.000000000000000222 ) ) ;
#998 = PLANE ( 'NONE',  #1012 ) ;
#999 = ORIENTED_EDGE ( 'NONE', *, *, #1035, .F. ) ;
#1000 = PRESENTATION_STYLE_ASSIGNMENT (( #522 ) ) ;
#1001 = EDGE_CURVE ( 'NONE', #1125, #672, #969, .T. ) ;
#1002 = CARTESIAN_POINT ( 'NONE',  ( 1.399999999999999689, 0.005000000000000000104, 0.8499999999999994227 ) ) ;
#1003 = CARTESIAN_POINT ( 'NONE',  ( 1.399999999999999689, 0.000000000000000000, 0.8499999999999994227 ) ) ;
#1004 = ORIENTED_EDGE ( 'NONE', *, *, #933, .T. ) ;
#1005 = PRESENTATION_STYLE_ASSIGNMENT (( #265 ) ) ;
#1006 =( NAMED_UNIT ( * ) SI_UNIT ( $, .STERADIAN. ) SOLID_ANGLE_UNIT ( ) );
#1007 =( LENGTH_UNIT ( ) NAMED_UNIT ( * ) SI_UNIT ( .MILLI., .METRE. ) );
#1008 = DIRECTION ( 'NONE',  ( -1.000000000000000000, -0.000000000000000000, -0.000000000000000000 ) ) ;
#1009 = ORIENTED_EDGE ( 'NONE', *, *, #929, .T. ) ;
#1010 = SURFACE_SIDE_STYLE ('',( #180 ) ) ;
#1011 =( GEOMETRIC_REPRESENTATION_CONTEXT ( 3 ) GLOBAL_UNCERTAINTY_ASSIGNED_CONTEXT ( ( #593 ) ) GLOBAL_UNIT_ASSIGNED_CONTEXT ( ( #161, #321, #709 ) ) REPRESENTATION_CONTEXT ( 'NONE', 'WORKASPACE' ) );
#1012 = AXIS2_PLACEMENT_3D ( 'NONE', #155, #532, #898 ) ;
#1013 = COLOUR_RGB ( '',0.6901960784313725394, 0.6117647058823529882, 0.5294117647058823595 ) ;
#1014 = CARTESIAN_POINT ( 'NONE',  ( -1.900000000000000355, 0.002000000000000000042, 0.8500000000000006439 ) ) ;
#1015 = EDGE_LOOP ( 'NONE', ( #118, #756, #7, #746 ) ) ;
#1016 = ADVANCED_FACE ( 'NONE', ( #881 ), #200, .F. ) ;
#1017 = FILL_AREA_STYLE_COLOUR ( '', #1013 ) ;
#1018 = CARTESIAN_POINT ( 'NONE',  ( 1.029999999999999361, 0.002000000000000000042, 0.05000000000000000278 ) ) ;
#1019 = ORIENTED_EDGE ( 'NONE', *, *, #1206, .F. ) ;
#1020 = CARTESIAN_POINT ( 'NONE',  ( -2.000000000000000444, -0.4000000000000000222, -0.9999999999999997780 ) ) ;
#1021 = ORIENTED_EDGE ( 'NONE', *, *, #79, .F. ) ;
#1022 = CARTESIAN_POINT ( 'NONE',  ( -1.250000000000000444, 0.002000000000000000042, -0.04999999999999999584 ) ) ;
#1023 = ADVANCED_FACE ( 'NONE', ( #13 ), #577, .F. ) ;
#1024 = MECHANICAL_DESIGN_GEOMETRIC_PRESENTATION_REPRESENTATION (  '', ( #352 ), #389 ) ;
#1025 = DIRECTION ( 'NONE',  ( -0.000000000000000000, -1.000000000000000000, -0.000000000000000000 ) ) ;
#1026 = AXIS2_PLACEMENT_3D ( 'NONE', #916, #169, #360 ) ;
#1027 = CARTESIAN_POINT ( 'NONE',  ( 1.399999999999999689, 0.002000000000000000042, -0.05000000000000000278 ) ) ;
#1028 = VECTOR ( 'NONE', #902, 1000.000000000000000 ) ;
#1029 = ORIENTED_EDGE ( 'NONE', *, *, #38, .T. ) ;
#1030 = LINE ( 'NONE', #757, #112 ) ;
#1031 = ORIENTED_EDGE ( 'NONE', *, *, #174, .T. ) ;
#1032 = SURFACE_STYLE_FILL_AREA ( #367 ) ;
#1033 = EDGE_CURVE ( 'NONE', #129, #677, #771, .T. ) ;
#1034 = LINE ( 'NONE', #395, #970 ) ;
#1035 = EDGE_CURVE ( 'NONE', #474, #59, #205, .T. ) ;
#1036 = VERTEX_POINT ( 'NONE', #300 ) ;
#1037 = PLANE ( 'NONE',  #1131 ) ;
#1038 = ORIENTED_EDGE ( 'NONE', *, *, #687, .T. ) ;
#1039 = FACE_OUTER_BOUND ( 'NONE', #1081, .T. ) ;
#1040 = UNCERTAINTY_MEASURE_WITH_UNIT (LENGTH_MEASURE( 1.000000000000000082E-05 ), #34, 'distance_accuracy_value', 'NONE');
#1041 = CARTESIAN_POINT ( 'NONE',  ( 1.899999999999999689, 0.000000000000000000, 0.8499999999999994227 ) ) ;
#1042 = CARTESIAN_POINT ( 'NONE',  ( -1.400000000000000355, 0.000000000000000000, -0.04999999999999999584 ) ) ;
#1043 = ORIENTED_EDGE ( 'NONE', *, *, #811, .F. ) ;
#1044 = CARTESIAN_POINT ( 'NONE',  ( 1.899999999999999689, -0.000000000000000000, -0.8500000000000005329 ) ) ;
#1045 = EDGE_CURVE ( 'NONE', #252, #77, #114, .T. ) ;
#1046 = ORIENTED_EDGE ( 'NONE', *, *, #834, .T. ) ;
#1047 = LINE ( 'NONE', #3, #679 ) ;
#1048 = DIRECTION ( 'NONE',  ( -1.000000000000000000, 0.000000000000000000, 0.000000000000000000 ) ) ;
#1049 = AXIS2_PLACEMENT_3D ( 'NONE', #669, #752, #1129 ) ;
#1050 = VECTOR ( 'NONE', #504, 1000.000000000000000 ) ;
#1051 = VECTOR ( 'NONE', #556, 1000.000000000000000 ) ;
#1052 = ORIENTED_EDGE ( 'NONE', *, *, #391, .T. ) ;
#1053 = CARTESIAN_POINT ( 'NONE',  ( 1.029999999999999361, 0.007000000000000001013, 0.05000000000000000278 ) ) ;
#1054 = EDGE_CURVE ( 'NONE', #487, #552, #294, .T. ) ;
#1055 = STYLED_ITEM ( 'NONE', ( #1005 ), #719 ) ;
#1056 = DIRECTION ( 'NONE',  ( 0.000000000000000000, 1.000000000000000000, 0.000000000000000000 ) ) ;
#1057 = FILL_AREA_STYLE_COLOUR ( '', #835 ) ;
#1058 = CARTESIAN_POINT ( 'NONE',  ( -1.900000000000000355, -0.000000000000000000, -0.8499999999999993117 ) ) ;
#1059 = ORIENTED_EDGE ( 'NONE', *, *, #79, .T. ) ;
#1060 = DIRECTION ( 'NONE',  ( 0.000000000000000000, 1.000000000000000000, 0.000000000000000000 ) ) ;
#1061 = EDGE_CURVE ( 'NONE', #677, #843, #1047, .T. ) ;
#1062 = DIRECTION ( 'NONE',  ( 0.000000000000000000, -0.000000000000000000, 1.000000000000000000 ) ) ;
#1063 = ORIENTED_EDGE ( 'NONE', *, *, #897, .F. ) ;
#1064 = DIRECTION ( 'NONE',  ( -0.000000000000000000, -1.000000000000000000, -0.000000000000000000 ) ) ;
#1065 = ORIENTED_EDGE ( 'NONE', *, *, #834, .F. ) ;
#1066 = UNCERTAINTY_MEASURE_WITH_UNIT (LENGTH_MEASURE( 1.000000000000000082E-05 ), #1007, 'distance_accuracy_value', 'NONE');
#1067 = DIRECTION ( 'NONE',  ( 0.000000000000000000, 0.000000000000000000, 1.000000000000000000 ) ) ;
#1068 = CARTESIAN_POINT ( 'NONE',  ( 1.049999999999999600, 0.000000000000000000, 0.9500000000000001776 ) ) ;
#1069 = DIRECTION ( 'NONE',  ( 1.000000000000000000, -0.000000000000000000, 0.000000000000000000 ) ) ;
#1070 = PRESENTATION_STYLE_ASSIGNMENT (( #794 ) ) ;
#1071 = VECTOR ( 'NONE', #805, 1000.000000000000000 ) ;
#1072 = AXIS2_PLACEMENT_3D ( 'NONE', #691, #512, #330 ) ;
#1073 = VERTEX_POINT ( 'NONE', #779 ) ;
#1074 =( GEOMETRIC_REPRESENTATION_CONTEXT ( 3 ) GLOBAL_UNCERTAINTY_ASSIGNED_CONTEXT ( ( #125 ) ) GLOBAL_UNIT_ASSIGNED_CONTEXT ( ( #359, #182, #1006 ) ) REPRESENTATION_CONTEXT ( 'NONE', 'WORKASPACE' ) );
#1075 = VECTOR ( 'NONE', #587, 1000.000000000000000 ) ;
#1076 = VECTOR ( 'NONE', #189, 1000.000000000000000 ) ;
#1077 = CARTESIAN_POINT ( 'NONE',  ( 1.029999999999999361, 0.007000000000000001013, 0.05000000000000000278 ) ) ;
#1078 = CARTESIAN_POINT ( 'NONE',  ( 1.399999999999999689, 0.002000000000000000042, -0.05000000000000000278 ) ) ;
#1079 = CARTESIAN_POINT ( 'NONE',  ( -2.000000000000000444, 0.000000000000000000, 1.000000000000000222 ) ) ;
#1080 = EDGE_CURVE ( 'NONE', #343, #439, #1153, .T. ) ;
#1081 = EDGE_LOOP ( 'NONE', ( #1149, #953, #614, #17 ) ) ;
#1082 = CARTESIAN_POINT ( 'NONE',  ( 1.029999999999999361, 0.005000000000000000104, -0.9299999999999997158 ) ) ;
#1083 = EDGE_CURVE ( 'NONE', #332, #677, #1034, .T. ) ;
#1084 = ORIENTED_EDGE ( 'NONE', *, *, #811, .T. ) ;
#1085 = FACE_OUTER_BOUND ( 'NONE', #1127, .T. ) ;
#1086 = DIRECTION ( 'NONE',  ( -1.000000000000000000, -0.000000000000000000, -0.000000000000000000 ) ) ;
#1087 = DIRECTION ( 'NONE',  ( -1.000000000000000000, 0.000000000000000000, -0.000000000000000000 ) ) ;
#1088 = DIRECTION ( 'NONE',  ( -0.000000000000000000, -1.000000000000000000, -0.000000000000000000 ) ) ;
#1089 = EDGE_LOOP ( 'NONE', ( #515, #45, #899, #1142 ) ) ;
#1090 = FACE_OUTER_BOUND ( 'NONE', #767, .T. ) ;
#1091 = SURFACE_STYLE_FILL_AREA ( #442 ) ;
#1092 = DIRECTION ( 'NONE',  ( 0.000000000000000000, 0.000000000000000000, -1.000000000000000000 ) ) ;
#1093 = ORIENTED_EDGE ( 'NONE', *, *, #783, .T. ) ;
#1094 = COLOUR_RGB ( '',0.7921568627450980005, 0.8196078431372548767, 0.9333333333333333481 ) ;
#1095 = ADVANCED_FACE ( 'NONE', ( #98 ), #120, .F. ) ;
#1096 = CARTESIAN_POINT ( 'NONE',  ( 1.049999999999999600, 0.002000000000000000042, 0.9500000000000001776 ) ) ;
#1097 = VECTOR ( 'NONE', #840, 1000.000000000000000 ) ;
#1098 = DIRECTION ( 'NONE',  ( 0.000000000000000000, 0.000000000000000000, -1.000000000000000000 ) ) ;
#1099 = DIRECTION ( 'NONE',  ( 0.000000000000000000, 0.000000000000000000, 1.000000000000000000 ) ) ;
#1100 = EDGE_LOOP ( 'NONE', ( #905, #773, #741, #611 ) ) ;
#1101 = PLANE ( 'NONE',  #703 ) ;
#1102 = LINE ( 'NONE', #267, #1028 ) ;
#1103 = ADVANCED_FACE ( 'NONE', ( #477 ), #498, .F. ) ;
#1104 = CARTESIAN_POINT ( 'NONE',  ( 1.999999999999999556, 0.000000000000000000, -0.9999999999999997780 ) ) ;
#1105 = EDGE_LOOP ( 'NONE', ( #1159, #198, #361, #1031 ) ) ;
#1106 = CARTESIAN_POINT ( 'NONE',  ( 1.049999999999999600, 0.002000000000000000042, 0.9500000000000001776 ) ) ;
#1107 = DIRECTION ( 'NONE',  ( 1.000000000000000000, 0.000000000000000000, 0.000000000000000000 ) ) ;
#1108 = CARTESIAN_POINT ( 'NONE',  ( -1.250000000000000444, 0.002000000000000000042, 0.05000000000000000278 ) ) ;
#1109 = VERTEX_POINT ( 'NONE', #104 ) ;
#1110 = MECHANICAL_DESIGN_GEOMETRIC_PRESENTATION_REPRESENTATION (  '', ( #470 ), #492 ) ;
#1111 = STYLED_ITEM ( 'NONE', ( #341 ), #1135 ) ;
#1112 = CLOSED_SHELL ( 'NONE', ( #448, #1161, #483, #903, #732, #1148 ) ) ;
#1113 = LINE ( 'NONE', #650, #455 ) ;
#1114 =( NAMED_UNIT ( * ) PLANE_ANGLE_UNIT ( ) SI_UNIT ( $, .RADIAN. ) );
#1115 = APPLICATION_CONTEXT ( 'automotive_design' ) ;
#1116 = PRESENTATION_LAYER_ASSIGNMENT (  '', '', ( #370 ) ) ;
#1117 = CARTESIAN_POINT ( 'NONE',  ( 1.399999999999999689, 0.000000000000000000, 0.8499999999999994227 ) ) ;
#1118 = ORIENTED_EDGE ( 'NONE', *, *, #1199, .F. ) ;
#1119 = LINE ( 'NONE', #747, #533 ) ;
#1120 = ORIENTED_EDGE ( 'NONE', *, *, #208, .T. ) ;
#1121 = EDGE_CURVE ( 'NONE', #735, #718, #960, .T. ) ;
#1122 = VERTEX_POINT ( 'NONE', #42 ) ;
#1123 = LINE ( 'NONE', #1020, #1076 ) ;
#1124 = DIRECTION ( 'NONE',  ( -0.000000000000000000, -1.000000000000000000, -0.000000000000000000 ) ) ;
#1125 = VERTEX_POINT ( 'NONE', #1078 ) ;
#1126 = DIRECTION ( 'NONE',  ( 0.000000000000000000, 0.000000000000000000, -1.000000000000000000 ) ) ;
#1127 = EDGE_LOOP ( 'NONE', ( #284, #1172, #1046, #444 ) ) ;
#1128 = EDGE_CURVE ( 'NONE', #628, #573, #441, .T. ) ;
#1129 = DIRECTION ( 'NONE',  ( -1.000000000000000000, 0.000000000000000000, -0.000000000000000000 ) ) ;
#1130 = EDGE_CURVE ( 'NONE', #70, #252, #599, .T. ) ;
#1131 = AXIS2_PLACEMENT_3D ( 'NONE', #1053, #199, #203 ) ;
#1132 = AXIS2_PLACEMENT_3D ( 'NONE', #578, #99, #658 ) ;
#1133 = CARTESIAN_POINT ( 'NONE',  ( -1.400000000000000355, 0.002000000000000000042, 0.04506968986084721601 ) ) ;
#1134 = FILL_AREA_STYLE_COLOUR ( '', #214 ) ;
#1135 = MANIFOLD_SOLID_BREP ( 'Boss-Extrude5', #1112 ) ;
#1136 = ORIENTED_EDGE ( 'NONE', *, *, #607, .T. ) ;
#1137 = DIRECTION ( 'NONE',  ( -0.000000000000000000, -1.000000000000000000, -0.000000000000000000 ) ) ;
#1138 = CARTESIAN_POINT ( 'NONE',  ( 1.899999999999999689, 0.005000000000000000104, 0.8499999999999994227 ) ) ;
#1139 =( NAMED_UNIT ( * ) SI_UNIT ( $, .STERADIAN. ) SOLID_ANGLE_UNIT ( ) );
#1140 = EDGE_CURVE ( 'NONE', #59, #39, #886, .T. ) ;
#1141 = DIRECTION ( 'NONE',  ( -0.000000000000000000, -1.000000000000000000, -0.000000000000000000 ) ) ;
#1142 = ORIENTED_EDGE ( 'NONE', *, *, #464, .F. ) ;
#1143 = DIRECTION ( 'NONE',  ( -0.000000000000000000, -0.000000000000000000, 1.000000000000000000 ) ) ;
#1144 = VERTEX_POINT ( 'NONE', #695 ) ;
#1145 = SURFACE_STYLE_FILL_AREA ( #688 ) ;
#1146 = UNCERTAINTY_MEASURE_WITH_UNIT (LENGTH_MEASURE( 1.000000000000000082E-05 ), #652, 'distance_accuracy_value', 'NONE');
#1147 = FACE_OUTER_BOUND ( 'NONE', #500, .T. ) ;
#1148 = ADVANCED_FACE ( 'NONE', ( #523 ), #786, .F. ) ;
#1149 = ORIENTED_EDGE ( 'NONE', *, *, #933, .F. ) ;
#1150 = DIRECTION ( 'NONE',  ( 0.000000000000000000, 0.000000000000000000, 1.000000000000000000 ) ) ;
#1151 = ORIENTED_EDGE ( 'NONE', *, *, #358, .F. ) ;
#1152 =( NAMED_UNIT ( * ) PLANE_ANGLE_UNIT ( ) SI_UNIT ( $, .RADIAN. ) );
#1153 = LINE ( 'NONE', #1133, #156 ) ;
#1154 = CARTESIAN_POINT ( 'NONE',  ( -1.400000000000000355, 0.002000000000000000042, 0.8500000000000006439 ) ) ;
#1155 = VECTOR ( 'NONE', #298, 1000.000000000000000 ) ;
#1156 = AXIS2_PLACEMENT_3D ( 'NONE', #132, #966, #988 ) ;
#1157 = ORIENTED_EDGE ( 'NONE', *, *, #600, .F. ) ;
#1158 = PRESENTATION_LAYER_ASSIGNMENT (  '', '', ( #681 ) ) ;
#1159 = ORIENTED_EDGE ( 'NONE', *, *, #464, .T. ) ;
#1160 = EDGE_CURVE ( 'NONE', #576, #1125, #702, .T. ) ;
#1161 = ADVANCED_FACE ( 'NONE', ( #1090 ), #56, .F. ) ;
#1162 = SURFACE_SIDE_STYLE ('',( #1145 ) ) ;
#1163 = PRODUCT_DEFINITION_CONTEXT ( 'detailed design', #1115, 'design' ) ;
#1164 = FILL_AREA_STYLE_COLOUR ( '', #1094 ) ;
#1165 = FACE_OUTER_BOUND ( 'NONE', #804, .T. ) ;
#1166 = DIRECTION ( 'NONE',  ( 1.000000000000000000, 0.000000000000000000, 0.000000000000000000 ) ) ;
#1167 = ORIENTED_EDGE ( 'NONE', *, *, #266, .T. ) ;
#1168 = CARTESIAN_POINT ( 'NONE',  ( 0.000000000000000000, 0.000000000000000000, 0.000000000000000000 ) ) ;
#1169 = LINE ( 'NONE', #329, #257 ) ;
#1170 = PLANE ( 'NONE',  #549 ) ;
#1171 = SURFACE_STYLE_FILL_AREA ( #238 ) ;
#1172 = ORIENTED_EDGE ( 'NONE', *, *, #394, .T. ) ;
#1173 =( LENGTH_UNIT ( ) NAMED_UNIT ( * ) SI_UNIT ( .MILLI., .METRE. ) );
#1174 = ADVANCED_FACE ( 'NONE', ( #624 ), #233, .F. ) ;
#1175 = DIRECTION ( 'NONE',  ( 1.000000000000000000, 0.000000000000000000, 0.000000000000000000 ) ) ;
#1176 = ADVANCED_FACE ( 'NONE', ( #895 ), #37, .T. ) ;
#1177 = DIRECTION ( 'NONE',  ( 0.000000000000000000, -0.000000000000000000, -1.000000000000000000 ) ) ;
#1178 = LINE ( 'NONE', #409, #134 ) ;
#1179 = PRESENTATION_LAYER_ASSIGNMENT (  '', '', ( #352 ) ) ;
#1180 = PRESENTATION_LAYER_ASSIGNMENT (  '', '', ( #390 ) ) ;
#1181 = EDGE_LOOP ( 'NONE', ( #96, #562, #867, #823 ) ) ;
#1182 = VECTOR ( 'NONE', #450, 1000.000000000000000 ) ;
#1183 = SURFACE_STYLE_FILL_AREA ( #1187 ) ;
#1184 = ORIENTED_EDGE ( 'NONE', *, *, #1140, .F. ) ;
#1185 = VERTEX_POINT ( 'NONE', #605 ) ;
#1186 = CARTESIAN_POINT ( 'NONE',  ( 1.029999999999999361, 0.005000000000000000104, -0.9299999999999997158 ) ) ;
#1187 = FILL_AREA_STYLE ('',( #1164 ) ) ;
#1188 = DIRECTION ( 'NONE',  ( 1.000000000000000000, 0.000000000000000000, 0.000000000000000000 ) ) ;
#1189 = EDGE_LOOP ( 'NONE', ( #226, #934, #832, #22 ) ) ;
#1190 = CARTESIAN_POINT ( 'NONE',  ( -1.250000000000000444, 0.002000000000000000042, -0.04999999999999999584 ) ) ;
#1191 = LINE ( 'NONE', #632, #312 ) ;
#1192 = ORIENTED_EDGE ( 'NONE', *, *, #430, .T. ) ;
#1193 = VECTOR ( 'NONE', #1064, 1000.000000000000000 ) ;
#1194 = VECTOR ( 'NONE', #643, 1000.000000000000000 ) ;
#1195 = DIRECTION ( 'NONE',  ( -0.000000000000000000, -0.000000000000000000, 1.000000000000000000 ) ) ;
#1196 = DIRECTION ( 'NONE',  ( -1.000000000000000000, 0.000000000000000000, 2.168404344971008868E-16 ) ) ;
#1197 = VERTEX_POINT ( 'NONE', #509 ) ;
#1198 =( LENGTH_UNIT ( ) NAMED_UNIT ( * ) SI_UNIT ( .MILLI., .METRE. ) );
#1199 = EDGE_CURVE ( 'NONE', #202, #749, #879, .T. ) ;
#1200 = FACE_OUTER_BOUND ( 'NONE', #595, .T. ) ;
#1201 = CARTESIAN_POINT ( 'NONE',  ( 1.049999999999999600, 0.002000000000000000042, -0.9499999999999997335 ) ) ;
#1202 = ORIENTED_EDGE ( 'NONE', *, *, #47, .F. ) ;
#1203 = ADVANCED_FACE ( 'NONE', ( #890 ), #48, .F. ) ;
#1204 = CARTESIAN_POINT ( 'NONE',  ( 1.049999999999999600, 0.000000000000000000, 0.9500000000000001776 ) ) ;
#1205 = LINE ( 'NONE', #1201, #291 ) ;
#1206 = EDGE_CURVE ( 'NONE', #344, #381, #152, .T. ) ;
#1207 = VERTEX_POINT ( 'NONE', #460 ) ;
#1208 = VECTOR ( 'NONE', #160, 1000.000000000000000 ) ;
#1209 = VECTOR ( 'NONE', #852, 1000.000000000000000 ) ;
#1210 = AXIS2_PLACEMENT_3D ( 'NONE', #128, #967, #1177 ) ;
#1211 = PLANE ( 'NONE',  #413 ) ;
#1212 = AXIS2_PLACEMENT_3D ( 'NONE', #937, #484, #2 ) ;
#1213 = SURFACE_STYLE_FILL_AREA ( #925 ) ;
#1214 = ORIENTED_EDGE ( 'NONE', *, *, #592, .T. ) ;
#1215 = VERTEX_POINT ( 'NONE', #541 ) ;
#1216 = LINE ( 'NONE', #833, #1155 ) ;
#1217 = CARTESIAN_POINT ( 'NONE',  ( -1.900000000000000355, 0.002000000000000000042, -0.8499999999999993117 ) ) ;
#1218 = ORIENTED_EDGE ( 'NONE', *, *, #940, .T. ) ;
#1219 = EDGE_CURVE ( 'NONE', #962, #882, #1113, .T. ) ;
#1220 = CARTESIAN_POINT ( 'NONE',  ( -1.250000000000000444, 0.000000000000000000, 0.05000000000000000278 ) ) ;
ENDSEC;
END-ISO-10303-21;
