<!--

https://github.com/datalog/datamatrix-svg

--><svg viewBox="0 0 16 16" width="256" height="256" fill="#000000" shape-rendering="crispEdges" xmlns="http://www.w3.org/2000/svg" version="1.1"><path transform="matrix(1,0,0,1,2,2)" d="M0,11h12v1h-12v-1zM10,10h1v1h-1v-1zM6,10h2v1h-2v-1zM4,10h1v1h-1v-1zM0,10h1v1h-1v-1zM11,9h1v1h-1v-1zM9,9h1v1h-1v-1zM4,9h2v1h-2v-1zM0,9h2v1h-2v-1zM10,8h1v1h-1v-1zM7,8h1v1h-1v-1zM4,8h2v1h-2v-1zM0,8h1v1h-1v-1zM11,7h1v1h-1v-1zM4,7h1v1h-1v-1zM0,7h2v1h-2v-1zM8,6h3v1h-3v-1zM4,6h3v1h-3v-1zM2,6h1v1h-1v-1zM0,6h1v1h-1v-1zM8,5h4v1h-4v-1zM3,5h2v1h-2v-1zM0,5h2v1h-2v-1zM9,4h1v1h-1v-1zM5,4h2v1h-2v-1zM2,4h1v1h-1v-1zM0,4h1v1h-1v-1zM10,3h2v1h-2v-1zM7,3h2v1h-2v-1zM2,3h1v1h-1v-1zM0,3h1v1h-1v-1zM7,2h1v1h-1v-1zM4,2h1v1h-1v-1zM0,2h1v1h-1v-1zM10,1h2v1h-2v-1zM4,1h2v1h-2v-1zM2,1h1v1h-1v-1zM0,1h1v1h-1v-1zM10,0h1v1h-1v-1zM8,0h1v1h-1v-1zM6,0h1v1h-1v-1zM4,0h1v1h-1v-1zM2,0h1v1h-1v-1zM0,0h1v1h-1v-1z"/></svg>