<svg width="49" height="92" viewBox="0 0 49 92" fill="none" xmlns="http://www.w3.org/2000/svg">
<path d="M22.611 70.931V91.35L5.93199 81.722C4.13048 80.6819 2.6345 79.1859 1.59444 77.3843C0.554377 75.5828 0.00688338 73.5392 0.00698853 71.459V57.88C0.00700829 56.1528 0.461703 54.4561 1.32535 52.9603C2.18899 51.4646 3.43115 50.2225 4.92699 49.359L17.927 41.853C18.4015 41.5791 18.7956 41.1851 19.0695 40.7106C19.3435 40.2361 19.4877 39.6979 19.4877 39.15C19.4877 38.6021 19.3435 38.0639 19.0695 37.5894C18.7956 37.1149 18.4015 36.7209 17.927 36.447L7.7 30.547C5.3595 29.1966 3.41572 27.254 2.06407 24.9142C0.712427 22.5744 0.000556819 19.9201 0 17.218V0L22.6 13.051L38.785 22.396C41.7261 24.094 44.1684 26.5364 45.8665 29.4775C47.5646 32.4186 48.4585 35.7549 48.4585 39.151C48.4585 42.5471 47.5646 45.8834 45.8665 48.8245C44.1684 51.7656 41.7261 54.2079 38.785 55.906L27.527 62.41C26.0319 63.274 24.7905 64.5163 23.9276 66.012C23.0647 67.5077 22.6106 69.2042 22.611 70.931Z" fill="white"/>
</svg>
